<svg width="167" height="117" viewBox="0 0 167 117" fill="none" xmlns="http://www.w3.org/2000/svg">
<g clip-path="url(#clip0)">
<path d="M166.205 38.193C163.902 46.1082 157.175 51.6489 150.159 56.3557C149.179 57.0131 148.199 57.6553 147.219 58.2823C147.212 58.2852 147.205 58.2914 147.198 58.2943C147.151 58.3243 147.104 58.3544 147.06 58.3846C146.858 58.5138 146.655 58.643 146.455 58.7707L146.565 58.8197C146.565 58.8197 146.673 58.8767 146.555 58.8289C146.52 58.8143 146.483 58.8012 146.447 58.7865C142.371 57.1582 138.223 55.41 135.099 52.3598C131.859 49.1923 129.965 44.2243 131.72 40.0632C131.95 39.5181 132.241 39.0002 132.588 38.5192C132.73 38.3175 132.884 38.1244 133.043 37.9349C134.011 36.7649 135.276 35.8714 136.708 35.3462C138.141 34.8209 139.688 34.683 141.192 34.9465C142.696 35.21 144.101 35.8655 145.265 36.8455C146.428 37.8255 147.307 39.0947 147.811 40.5226C148.326 35.769 144.368 31.7871 140.56 28.8491C136.75 25.9125 132.42 22.7146 131.683 17.9874C131.272 15.3572 132.195 12.8083 133.878 10.7622C133.93 10.7 133.982 10.6379 134.035 10.5775C136.083 8.1943 138.963 6.66397 142.1 6.29215C147.943 5.69074 153.618 8.75372 157.863 12.7771C164.694 19.2504 168.824 29.1934 166.205 38.193Z" fill="#F2F2F2"/>
<path d="M155.223 27.8403C156.345 29.5682 157.206 31.4488 157.779 33.4227C158.264 35.187 158.479 37.0132 158.419 38.8407C158.314 42.597 157.147 46.2677 155.311 49.537C153.891 52.0159 152.159 54.3071 150.159 56.3561C149.179 57.0134 148.199 57.6556 147.219 58.2827C147.212 58.2855 147.205 58.2917 147.198 58.2946C147.151 58.3246 147.104 58.3547 147.06 58.3849C146.858 58.5141 146.655 58.6433 146.455 58.771C146.455 58.771 146.673 58.8771 146.555 58.8292C146.52 58.8146 146.483 58.8015 146.447 58.7868C146.813 55.8203 146.455 52.8102 145.404 50.0089C144.353 47.2076 142.639 44.6966 140.406 42.6863C138.168 40.7067 135.489 39.2789 132.588 38.5195C132.73 38.3178 132.884 38.1247 133.043 37.9353C134.164 38.2464 135.254 38.6551 136.302 39.1566C140.048 40.938 143.114 43.8665 145.049 47.5085C146.784 50.8157 147.531 54.5446 147.202 58.2576C147.369 58.1073 147.537 57.9537 147.7 57.8016C150.797 54.9415 153.548 51.6585 155.41 47.8697C157.026 44.6611 157.819 41.1083 157.722 37.5243C157.57 33.6163 155.998 29.9966 153.722 26.8453C151.283 23.4728 148.226 20.4889 144.962 17.904C141.619 15.2517 137.96 13.0145 134.068 11.2424C133.98 11.2019 133.911 11.1294 133.876 11.0401C133.84 10.9508 133.841 10.8514 133.878 10.7625C133.904 10.6828 133.96 10.6164 134.035 10.5778C134.074 10.5613 134.116 10.5537 134.158 10.5554C134.2 10.5572 134.241 10.5683 134.278 10.588C134.759 10.8071 135.236 11.0292 135.709 11.261C139.652 13.1912 143.338 15.5991 146.681 18.4293C149.911 21.1564 152.951 24.2721 155.223 27.8403Z" fill="white"/>
<path d="M128.61 83.5145C133.329 83.5145 137.154 79.7257 137.154 75.0519C137.154 70.3782 133.329 66.5894 128.61 66.5894C123.891 66.5894 120.066 70.3782 120.066 75.0519C120.066 79.7257 123.891 83.5145 128.61 83.5145Z" fill="#2F2E41"/>
<path d="M121.941 70.4893C123.322 69.1218 123.601 67.1817 122.566 66.1561C121.53 65.1305 119.571 65.4076 118.191 66.7751C116.81 68.1426 116.53 70.0827 117.566 71.1083C118.601 72.1339 120.56 71.8568 121.941 70.4893Z" fill="#2F2E41"/>
<path d="M137.516 67.8015C138.091 66.4677 137.102 64.7705 135.306 64.0108C133.51 63.2511 131.588 63.7165 131.013 65.0504C130.438 66.3843 131.427 68.0814 133.223 68.8411C135.018 69.6009 136.94 69.1354 137.516 67.8015Z" fill="#2F2E41"/>
<path d="M146.705 111.387C145.237 112.398 143.685 113.283 142.067 114.036L141.828 113.617L139.538 109.636L139.337 109.287L138.166 107.251L138.163 107.248L134.465 100.812L132.564 97.5085L138.209 93.5872L140.405 98.1855L141.596 100.683L146.497 110.949L146.705 111.387Z" fill="#A0616A"/>
<path d="M141.661 95.8602L140.953 94.762L137.823 89.8981C137.395 88.9531 136.607 88.2144 135.631 87.8439C134.654 87.4733 133.57 87.5011 132.614 87.9212C131.659 88.3412 130.91 89.1193 130.532 90.0849C130.155 91.0505 130.179 92.125 130.6 93.0729L132.535 99.9011C132.59 100.094 132.685 100.274 132.816 100.427C132.946 100.581 133.108 100.705 133.291 100.791C133.474 100.878 133.673 100.924 133.876 100.928C134.078 100.932 134.279 100.892 134.465 100.813C134.472 100.81 134.477 100.808 134.484 100.805L140.405 98.1857L141.043 97.9034C141.229 97.8203 141.395 97.6986 141.529 97.5464C141.664 97.3943 141.764 97.2153 141.823 97.0215C141.881 96.8278 141.897 96.6238 141.869 96.4235C141.841 96.2231 141.77 96.031 141.661 95.8602H141.661Z" fill="#F9A826"/>
<path d="M124.65 96.0128L123.003 99.6972L122.646 100.499L116.546 114.145L116.35 114.583C114.699 113.901 113.108 113.082 111.596 112.133L111.761 111.674L116.739 97.7617L117.962 94.3452L120.638 95.0127L124.65 96.0128Z" fill="#A0616A"/>
<path d="M135.244 80.5174C137.165 77.0369 135.874 72.6731 132.359 70.7705C128.845 68.8679 124.439 70.147 122.518 73.6275C120.597 77.108 121.889 81.4718 125.403 83.3744C128.917 85.277 133.323 83.9979 135.244 80.5174Z" fill="#A0616A"/>
<path d="M141.521 97.5564C141.416 96.61 141.226 95.6748 140.953 94.762C140.131 92.0134 138.559 89.543 136.41 87.6228C135.62 86.9208 134.596 86.5331 133.535 86.5342H123.319C122.585 86.5323 121.863 86.7168 121.221 87.0701C120.579 87.4234 120.04 87.9337 119.654 88.5523C119.268 89.1709 119.048 89.8772 119.017 90.6036C118.985 91.3301 119.141 92.0526 119.471 92.702L120.638 95.0132L123.003 99.6977L123.571 100.82L126.1 105.832L126.3 106.229L139.139 109.727L139.195 109.605C139.243 109.497 139.291 109.392 139.337 109.287C139.407 109.126 139.477 108.971 139.543 108.813C140.837 105.772 141.449 103.066 141.596 100.683C141.662 99.6409 141.637 98.5946 141.521 97.5564Z" fill="#F9A826"/>
<path d="M125.172 87.8454C124.227 87.4069 123.145 87.3571 122.163 87.7068C121.181 88.0566 120.379 88.7774 119.933 89.7116L119.022 91.0729L115.978 95.6234C115.865 95.7923 115.79 95.9832 115.759 96.1833C115.727 96.3834 115.739 96.588 115.794 96.783C115.85 96.978 115.947 97.1589 116.079 97.3135C116.211 97.468 116.375 97.5926 116.56 97.6786L116.739 97.7623L122.645 100.499L123.066 100.693C123.224 100.767 123.396 100.81 123.57 100.82C123.804 100.838 124.038 100.798 124.252 100.703C124.438 100.62 124.604 100.499 124.739 100.347C124.873 100.195 124.973 100.016 125.032 99.8223L127.076 93.0491C127.519 92.1089 127.568 91.0329 127.211 90.0573C126.854 89.0816 126.121 88.2861 125.172 87.8454Z" fill="#F9A826"/>
<path d="M139.543 108.813C139.5 108.664 139.43 108.524 139.338 108.399C139.007 107.96 138.612 107.573 138.166 107.25L138.164 107.248C136.61 106.083 133.518 104.721 127.554 104.686H127.545C127.271 104.685 127.003 104.763 126.773 104.909C126.543 105.056 126.361 105.265 126.247 105.511L126.1 105.832L125.151 107.899C125.07 108.077 124.942 108.23 124.781 108.341C123.923 108.942 121.194 111.119 119.783 115.277C119.732 115.425 119.684 115.576 119.638 115.732C125.67 117.477 132.087 117.419 138.086 115.567L138.219 115.023L139.538 109.636L139.56 109.547C139.62 109.305 139.614 109.052 139.543 108.813Z" fill="#2F2E41"/>
<path d="M121.261 72.5545C122.918 73.6857 124.885 74.2877 126.898 74.2797C126.18 74.7727 125.362 75.1057 124.502 75.2558C127.178 75.8243 129.943 75.8397 132.625 75.301C133.222 75.2063 133.797 75.0106 134.326 74.7225C134.59 74.5767 134.819 74.3775 135 74.138C135.181 73.8984 135.309 73.6239 135.376 73.3322C135.554 72.3238 134.761 71.4076 133.936 70.7901C132.674 69.8592 131.218 69.2178 129.675 68.9124C128.132 68.607 126.539 68.6451 125.012 69.024C124.016 69.2792 123.017 69.7104 122.37 70.5033C121.722 71.2961 121.53 72.5185 122.147 73.3349L121.261 72.5545Z" fill="#2F2E41"/>
<path d="M131.265 7.29175H0.262451V7.81179H131.265V7.29175Z" fill="#3F3D56"/>
<path d="M4.72533 5.46151C5.59528 5.46151 6.30051 4.76303 6.30051 3.90141C6.30051 3.03979 5.59528 2.34131 4.72533 2.34131C3.85538 2.34131 3.15015 3.03979 3.15015 3.90141C3.15015 4.76303 3.85538 5.46151 4.72533 5.46151Z" fill="#3F3D56"/>
<path d="M9.25389 5.46151C10.1238 5.46151 10.8291 4.76303 10.8291 3.90141C10.8291 3.03979 10.1238 2.34131 9.25389 2.34131C8.38394 2.34131 7.67871 3.03979 7.67871 3.90141C7.67871 4.76303 8.38394 5.46151 9.25389 5.46151Z" fill="#3F3D56"/>
<path d="M13.7827 5.46151C14.6526 5.46151 15.3579 4.76303 15.3579 3.90141C15.3579 3.03979 14.6526 2.34131 13.7827 2.34131C12.9128 2.34131 12.2075 3.03979 12.2075 3.90141C12.2075 4.76303 12.9128 5.46151 13.7827 5.46151Z" fill="#3F3D56"/>
<path d="M102.893 37.4714H28.541C28.3197 37.4714 28.1006 37.4282 27.8962 37.3443C27.6917 37.2605 27.506 37.1375 27.3495 36.9826C27.193 36.8276 27.0689 36.6436 26.9842 36.4411C26.8995 36.2386 26.856 36.0216 26.856 35.8024C26.856 35.5833 26.8995 35.3663 26.9842 35.1638C27.0689 34.9613 27.193 34.7773 27.3495 34.6224C27.506 34.4674 27.6917 34.3445 27.8962 34.2606C28.1006 34.1767 28.3197 34.1335 28.541 34.1335H102.893C103.115 34.1335 103.334 34.1767 103.538 34.2606C103.743 34.3445 103.928 34.4674 104.085 34.6224C104.241 34.7773 104.365 34.9613 104.45 35.1638C104.535 35.3663 104.578 35.5833 104.578 35.8024C104.578 36.0216 104.535 36.2386 104.45 36.4411C104.365 36.6436 104.241 36.8276 104.085 36.9826C103.928 37.1375 103.743 37.2605 103.538 37.3443C103.334 37.4282 103.115 37.4714 102.893 37.4714Z" fill="#CCCCCC"/>
<path d="M102.893 55.4123H28.541C28.3197 55.4123 28.1006 55.3691 27.8962 55.2852C27.6917 55.2014 27.506 55.0784 27.3495 54.9235C27.193 54.7685 27.0689 54.5845 26.9842 54.382C26.8995 54.1796 26.856 53.9625 26.856 53.7434C26.856 53.5242 26.8995 53.3072 26.9842 53.1047C27.0689 52.9022 27.193 52.7182 27.3495 52.5633C27.506 52.4083 27.6917 52.2854 27.8962 52.2015C28.1006 52.1176 28.3197 52.0745 28.541 52.0745H102.893C103.115 52.0745 103.334 52.1176 103.538 52.2015C103.743 52.2854 103.928 52.4083 104.085 52.5633C104.241 52.7182 104.365 52.9022 104.45 53.1047C104.535 53.3072 104.578 53.5242 104.578 53.7434C104.578 53.9625 104.535 54.1796 104.45 54.382C104.365 54.5845 104.241 54.7685 104.085 54.9235C103.928 55.0784 103.743 55.2014 103.538 55.2852C103.334 55.3691 103.115 55.4123 102.893 55.4123Z" fill="#E6E6E6"/>
<path d="M102.893 62.2963H28.541C28.0941 62.2963 27.6655 62.1205 27.3495 61.8075C27.0335 61.4945 26.856 61.07 26.856 60.6274C26.856 60.1848 27.0335 59.7603 27.3495 59.4473C27.6655 59.1343 28.0941 58.9585 28.541 58.9585H102.893C103.34 58.9585 103.769 59.1343 104.085 59.4473C104.401 59.7603 104.578 60.1848 104.578 60.6274C104.578 61.07 104.401 61.4945 104.085 61.8075C103.769 62.1205 103.34 62.2963 102.893 62.2963Z" fill="#E6E6E6"/>
<path d="M90.782 30.3788H40.6521C40.2052 30.3788 39.7766 30.203 39.4606 29.89C39.1446 29.577 38.967 29.1525 38.967 28.7099C38.967 28.2673 39.1446 27.8428 39.4606 27.5298C39.7766 27.2168 40.2052 27.041 40.6521 27.041H90.782C91.2289 27.041 91.6575 27.2168 91.9735 27.5298C92.2895 27.8428 92.467 28.2673 92.467 28.7099C92.467 29.1525 92.2895 29.577 91.9735 29.89C91.6575 30.203 91.2289 30.3788 90.782 30.3788Z" fill="#CCCCCC"/>
<path d="M54.7536 48.528H28.6355C28.4141 48.5283 28.1948 48.4853 27.9901 48.4016C27.7854 48.3178 27.5994 48.1949 27.4427 48.0399C27.2861 47.8849 27.1618 47.7009 27.0769 47.4982C26.9921 47.2956 26.9485 47.0784 26.9485 46.8591C26.9485 46.6398 26.9921 46.4226 27.0769 46.22C27.1618 46.0174 27.2861 45.8333 27.4427 45.6783C27.5994 45.5233 27.7854 45.4004 27.9901 45.3167C28.1948 45.2329 28.4141 45.1899 28.6355 45.1902H54.7536C55.2005 45.1902 55.6291 45.366 55.9451 45.679C56.2611 45.992 56.4387 46.4165 56.4387 46.8591C56.4387 47.3017 56.2611 47.7262 55.9451 48.0392C55.6291 48.3522 55.2005 48.528 54.7536 48.528Z" fill="#E6E6E6"/>
<path d="M102.988 48.528H76.8697C76.6482 48.5283 76.4289 48.4853 76.2242 48.4016C76.0195 48.3178 75.8336 48.1949 75.6769 48.0399C75.5202 47.8849 75.3959 47.7009 75.3111 47.4982C75.2263 47.2956 75.1826 47.0784 75.1826 46.8591C75.1826 46.6398 75.2263 46.4226 75.3111 46.22C75.3959 46.0174 75.5202 45.8333 75.6769 45.6783C75.8336 45.5233 76.0195 45.4004 76.2242 45.3167C76.4289 45.2329 76.6482 45.1899 76.8697 45.1902H102.988C103.209 45.1899 103.429 45.2329 103.633 45.3167C103.838 45.4004 104.024 45.5233 104.181 45.6783C104.337 45.8333 104.462 46.0174 104.546 46.22C104.631 46.4226 104.675 46.6398 104.675 46.8591C104.675 47.0784 104.631 47.2956 104.546 47.4982C104.462 47.7009 104.337 47.8849 104.181 48.0399C104.024 48.1949 103.838 48.3178 103.633 48.4016C103.429 48.4853 103.209 48.5283 102.988 48.528Z" fill="#E6E6E6"/>
<path d="M129.689 0H1.83589C1.34879 0.000733936 0.881894 0.192868 0.537689 0.534222C0.193485 0.875576 0.000106945 1.33825 0 1.82069V87.6274C0.000613647 88.1095 0.194233 88.5716 0.538397 88.9125C0.882561 89.2533 1.34917 89.4451 1.83589 89.4457H97.4434C97.4193 89.2734 97.3999 89.0988 97.3806 88.9265H1.83589C1.4881 88.9262 1.15465 88.7892 0.908723 88.5457C0.662796 88.3021 0.524489 87.9718 0.524169 87.6274V1.82069C0.524396 1.47598 0.662594 1.14542 0.908472 0.901456C1.15435 0.65749 1.48785 0.520018 1.83589 0.51917H129.689C130.038 0.519531 130.372 0.656769 130.618 0.900773C130.865 1.14478 131.003 1.47561 131.003 1.82069V54.41C131.177 54.422 131.354 54.4364 131.528 54.4531V1.82069C131.528 1.33787 131.334 0.874901 130.989 0.533506C130.644 0.192112 130.177 0.000221883 129.689 0Z" fill="#3F3D56"/>
<path d="M97.4435 89.4456C97.4194 89.2733 97.4 89.0987 97.3807 88.9264C97.3758 88.9001 97.3735 88.8762 97.371 88.8498C97.3009 88.2206 97.2502 87.585 97.2189 86.943C97.086 87.4957 96.9661 88.0508 96.859 88.6082C96.8662 88.6896 96.8735 88.7685 96.883 88.8498C96.8855 88.8762 96.8879 88.9001 96.8927 88.9264C96.9121 89.0987 96.9314 89.2733 96.9556 89.4456C97.0232 89.9791 97.1054 90.5055 97.202 91.0294C97.2043 91.0079 97.2068 90.9887 97.2092 90.9672C97.2769 90.4624 97.3541 89.96 97.4459 89.4576C97.444 89.4539 97.4432 89.4497 97.4435 89.4456ZM131.528 53.9721C131.354 53.9554 131.178 53.941 131.004 53.929C130.977 53.9267 130.953 53.9267 130.926 53.9243C130.153 53.8668 129.371 53.8381 128.583 53.8381C124.125 53.8395 119.716 54.7667 115.641 56.5597C111.567 58.3528 107.917 60.972 104.928 64.2484C101.939 67.5247 99.6762 71.3853 98.2864 75.5811C96.8965 79.777 96.4103 84.2148 96.859 88.6082C96.8662 88.6896 96.8735 88.7685 96.883 88.8498C96.8855 88.8762 96.8879 88.9001 96.8927 88.9264C96.912 89.0987 96.9314 89.2733 96.9556 89.4456C97.0232 89.9791 97.1054 90.5055 97.202 91.0294C98.1617 96.2239 100.416 101.099 103.76 105.212C107.103 109.325 111.431 112.546 116.35 114.583C116.853 114.789 117.36 114.985 117.875 115.165C118.213 115.287 118.551 115.399 118.894 115.507C119.14 115.586 119.389 115.66 119.638 115.732C119.991 115.835 120.348 115.933 120.708 116.024C125.123 117.146 129.731 117.312 134.217 116.512C138.703 115.712 142.962 113.964 146.705 111.387H146.707C150.952 108.485 154.421 104.605 156.818 100.082C159.215 95.5591 160.468 90.5273 160.469 85.419C160.469 68.9874 147.734 55.4483 131.528 53.9721ZM146.497 110.949C145.021 111.97 143.459 112.863 141.828 113.617C140.656 114.16 139.45 114.63 138.219 115.024C132.662 116.795 126.717 116.999 121.049 115.615C120.624 115.512 120.202 115.399 119.783 115.277C119.37 115.158 118.961 115.031 118.556 114.897C118.225 114.784 117.894 114.67 117.566 114.548C117.223 114.418 116.884 114.284 116.546 114.146C111.459 112.046 107.018 108.661 103.666 104.329C100.315 99.9962 98.1696 94.8683 97.4459 89.4576C97.444 89.4539 97.4432 89.4497 97.4435 89.4456C97.4194 89.2733 97.4 89.0987 97.3807 88.9264C97.3758 88.9001 97.3735 88.8762 97.371 88.8498C97.301 88.2206 97.2502 87.585 97.2189 86.943C97.1923 86.4382 97.1794 85.9302 97.1802 85.419C97.1893 77.1729 100.501 69.2671 106.388 63.4363C112.275 57.6054 120.257 54.3257 128.583 54.3166C129.371 54.3166 130.153 54.3453 130.926 54.4028C130.953 54.4052 130.977 54.4075 131.004 54.4099C131.178 54.4219 131.354 54.4363 131.528 54.453C147.468 55.9268 159.986 69.2506 159.986 85.419C159.985 90.4368 158.758 95.3799 156.409 99.8258C154.06 104.272 150.659 108.088 146.497 110.949ZM117.566 114.548C117.223 114.418 116.884 114.284 116.546 114.146C111.459 112.046 107.018 108.661 103.666 104.329C100.315 99.9962 98.1696 94.8683 97.4459 89.4576C97.3541 89.96 97.2769 90.4624 97.2092 90.9672C97.2068 90.9887 97.2043 91.0079 97.202 91.0294C98.1617 96.2239 100.416 101.099 103.76 105.212C107.104 109.325 111.431 112.546 116.351 114.583C116.853 114.789 117.36 114.985 117.875 115.165C117.769 114.962 117.665 114.756 117.566 114.548ZM130.926 53.9243C130.153 53.8668 129.371 53.8381 128.583 53.8381C124.125 53.8395 119.716 54.7667 115.641 56.5597C111.567 58.3528 107.917 60.972 104.928 64.2484C101.939 67.5247 99.6762 71.3853 98.2864 75.5811C96.8965 79.777 96.4103 84.2148 96.859 88.6082C96.8662 88.6896 96.8735 88.7685 96.883 88.8498C96.8855 88.8762 96.8879 88.9001 96.8927 88.9264H97.3806C97.3758 88.9001 97.3734 88.8762 97.371 88.8498C97.3009 88.2206 97.2502 87.585 97.2188 86.943C97.1923 86.4382 97.1794 85.9302 97.1801 85.419C97.1892 77.1729 100.501 69.2671 106.388 63.4363C112.275 57.6054 120.257 54.3257 128.583 54.3166C129.371 54.3166 130.153 54.3453 130.926 54.4028C130.953 54.4052 130.977 54.4075 131.003 54.4099V53.929C130.977 53.9267 130.953 53.9267 130.926 53.9243H130.926Z" fill="#3F3D56"/>
<path d="M154.501 61.9216C164.295 62.0873 164.294 76.516 154.501 76.6803C144.707 76.5146 144.709 62.0859 154.501 61.9216Z" fill="#F9A826"/>
<path d="M154.501 73.3189C154.363 73.3188 154.23 73.2641 154.131 73.1669C154.033 73.0696 153.978 72.9378 153.978 72.8003V70.0507C153.978 69.9894 153.953 69.9306 153.909 69.8873C153.866 69.844 153.806 69.8196 153.745 69.8195H150.968C150.829 69.8195 150.696 69.7648 150.598 69.6676C150.5 69.5703 150.445 69.4384 150.445 69.3008C150.445 69.1633 150.5 69.0313 150.598 68.934C150.696 68.8368 150.829 68.7821 150.968 68.7821H153.745C153.806 68.7821 153.866 68.7577 153.909 68.7144C153.953 68.6711 153.978 68.6124 153.978 68.5511V65.8013C153.978 65.6638 154.033 65.5319 154.131 65.4346C154.229 65.3374 154.363 65.2827 154.501 65.2827C154.64 65.2827 154.773 65.3374 154.872 65.4346C154.97 65.5319 155.025 65.6638 155.025 65.8013V68.5511C155.025 68.6124 155.05 68.6711 155.093 68.7144C155.137 68.7577 155.196 68.7821 155.258 68.7821H158.035C158.173 68.7821 158.307 68.8368 158.405 68.934C158.503 69.0313 158.558 69.1632 158.558 69.3008C158.558 69.4384 158.503 69.5703 158.405 69.6676C158.307 69.7648 158.173 69.8195 158.035 69.8195H155.258C155.196 69.8196 155.137 69.844 155.093 69.8873C155.05 69.9306 155.025 69.9894 155.025 70.0506V72.8003C155.025 72.9378 154.97 73.0696 154.871 73.1668C154.773 73.2641 154.64 73.3188 154.501 73.3189Z" fill="white"/>
</g>
<defs>
<clipPath id="clip0">
<rect width="167" height="117" fill="white"/>
</clipPath>
</defs>
</svg>
