<?xml version="1.0" encoding="UTF-8"?>
<svg version="1.1" viewBox="0 0 288 288" xmlns="http://www.w3.org/2000/svg">
<svg class="gridItem__media" width="288" height="288" enable-background="new 0 0 1600 1200" viewBox="0 0 1600 1200" xmlns="http://www.w3.org/2000/svg">
<path class="colorF4F4F4 svgShape" d="m1326.2 1061.1l83.78-336.76c2.43-9.763 2.15-20.006-0.82-29.62l-141.44-458.76c-3.26-10.579-9.63-19.935-18.27-26.855-8.64-6.919-19.16-11.084-30.2-11.955l-720-56.63c-8.347-0.662-16.735 0.582-24.531 3.638s-14.795 7.844-20.469 14.002l-259.56 281.73c-5.32 5.774-9.349 12.614-11.818 20.067-2.469 7.452-3.322 15.345-2.502 23.153l60.75 578 1085.1-0.01z" fill="#f4f4f4"/>
<path class="colorDADDDF svgShape" d="m951.65 444.8h-56.15v614.71h56.15v-614.71z" fill="#dadddf"/>
<path class="colorB2B6BB svgShape" d="m1021.2 882.6h-95.32v106.52h95.32v-106.52z" fill="#b2b6bb"/>
<path class="color858990 svgShape" d="m1003.2 882.6h39.83v10.29h-1.48v96.23h-35.39v-96.23h-2.96v-10.29z" fill="#858990"/>
<path class="colorB2B6BB svgShape" d="m1002.8 882.6h-79.18v10.29h79.18v-10.29z" fill="#b2b6bb"/>
<path class="color858990 svgShape" d="m925.87 894.21h84.65l8.54-1.32h-93.19v1.32z" fill="#858990"/>
<path class="colorDADDDF svgShape" d="m1218.7 537.64h-128.56v106.52h128.56v-106.52z" fill="#dadddf"/>
<path class="colorB2B6BB svgShape" d="m1191.5 537.64h29.46v10.29h-2.24v96.23h-22.74v-96.23h-4.48v-10.29z" fill="#b2b6bb"/>
<path class="colorB2B6BB svgShape" d="m1194.4 537.64h-107.66v10.29h107.66v-10.29zm9.59 10.291h-113.86v1.32h113.86v-1.32z" fill="#b2b6bb"/>
<path class="colorfff svgShape" d="m1246.5 444.8h-357.31v12.76h344.67v186.92h-344.67v14h344.67v401.03h12.64v-614.71z" fill="#fff"/>
<path class="colorDADDDF svgShape" d="m1302.6 444.8h-56.15v614.71h56.15v-614.71z" fill="#dadddf"/>
<path class="colorfff svgShape" d="m895.5 1059.5v-614.71h-12.64v614.71h12.64z" fill="#fff"/>
<path class="colorfff svgShape" d="m1238.9 989.12h-347.27v14.001h347.27v-14.001z" fill="#fff"/>
<path class="colorDADDDF svgShape" d="m1218.6 817.39h-181.97v171.73h181.97v-171.73z" fill="#dadddf"/>
<path class="colorB2B6BB svgShape" d="m1189.6 817.39h31.34v16.59h-2.38v155.14h-24.2v-155.14h-4.76v-16.59z" fill="#b2b6bb"/>
<path class="colorDADDDF svgShape" d="m1188.8 817.39h-155.85v16.59h155.85v-16.59z" fill="#dadddf"/>
<path class="colorB2B6BB svgShape" d="m1202.9 833.98h-166.33v2.13h166.33v-2.13z" fill="#b2b6bb"/>
<path class="color3F4249 svgShape" d="m412.64 1046.9c1.36-0.01 2.707 0.26 3.964 0.77 1.258 0.52 2.4 1.28 3.363 2.24s1.726 2.1 2.247 3.36c0.52 1.25 0.788 2.6 0.786 3.96 0 0.29-0.058 0.58-0.17 0.85-0.113 0.28-0.278 0.52-0.486 0.73s-0.455 0.37-0.727 0.48-0.563 0.17-0.857 0.17h-16.5c-0.912 0-1.804-0.27-2.569-0.76-0.765-0.5-1.37-1.21-1.741-2.04l-21.55-48.3 24.11-28.002c-0.41 1.35 10.13 66.542 10.13 66.542zm-119.27-39.72h40.88l-16.43 15.79c-1.173 1.13-2.045 2.53-2.538 4.09-0.492 1.55-0.589 3.2-0.282 4.8l2.89 15c2.609 0 5.111 1.04 6.955 2.88 1.845 1.85 2.883 4.35 2.885 6.96v0.49c-2e-3 0.59-0.239 1.16-0.659 1.58-0.42 0.41-0.988 0.65-1.581 0.65h-15c-0.881 0-1.745-0.25-2.495-0.71-0.749-0.47-1.353-1.13-1.745-1.92l-14-28.51c-1.868-3.79-2.302-8.13-1.22-12.22l2.34-8.88z" fill="#3f4249"/>
<path class="color868A91 svgShape" d="m271.11 974.86c-8.62-2.62-24.6-11.86-32-21.3-0.284-0.355-0.439-0.796-0.439-1.25s0.155-0.895 0.439-1.25c0.3-0.371 0.723-0.622 1.193-0.708 0.469-0.087 0.954-2e-3 1.367 0.238 64.88 36.6 131.54-6.76 131.54-6.76 0.456-2.529 1.464-4.926 2.952-7.021s3.42-3.836 5.658-5.099c4.478-2.522 9.529-3.851 14.668-3.859 5.139-9e-3 10.195 1.303 14.682 3.809 1.563 0.883 3.297 1.422 5.085 1.581 1.789 0.159 3.59-0.067 5.285-0.661l10.19-3.58c0.415-0.147 0.857-0.199 1.295-0.151s0.859 0.194 1.232 0.428c0.373 0.233 0.689 0.548 0.923 0.921s0.381 0.794 0.43 1.232l0.32 3c0.481 4.404-0.024 8.861-1.481 13.045-1.456 4.184-3.827 7.992-6.939 11.145l-43.51 44.091c-2.423 2.45-4.238 5.44-5.3 8.72-1.063 3.28-1.344 6.76-0.82 10.17l3.88 25.35c2.737 0 5.362 1.09 7.297 3.02 1.935 1.94 3.023 4.56 3.023 7.3 0 0.29-0.058 0.58-0.171 0.86-0.112 0.27-0.277 0.51-0.485 0.72s-0.455 0.38-0.727 0.49-0.563 0.17-0.857 0.17h-16.5c-0.915 0-1.811-0.27-2.578-0.76-0.767-0.5-1.372-1.21-1.742-2.05l-21.93-49.48h-43.44l-16.43 15.78c-1.171 1.13-2.042 2.53-2.534 4.08-0.493 1.55-0.591 3.2-0.286 4.8l2.89 15c2.608 0 5.109 1.03 6.954 2.88 1.845 1.84 2.883 4.34 2.886 6.95 0 0.72-0.288 1.42-0.8 1.93s-1.206 0.8-1.93 0.8h-14.49c-0.882 0-1.746-0.25-2.495-0.71-0.75-0.47-1.354-1.13-1.745-1.92l-14.05-28.52c-1.865-3.79-2.295-8.13-1.21-12.21l10.7-41.221z" fill="#868a91"/>
<path class="color3F4249 svgShape" d="m405.39 938.91c0.809-0.808 0.511-2.416-0.664-3.592-1.176-1.175-2.784-1.473-3.592-0.665-0.809 0.809-0.511 2.417 0.664 3.592 1.176 1.176 2.784 1.474 3.592 0.665zm-124.55 57.256c1e-3 2.08-0.408 4.14-1.204 6.06-0.795 1.92-1.962 3.67-3.434 5.14-1.471 1.47-3.218 2.64-5.14 3.43-1.922 0.8-3.982 1.2-6.062 1.2-1.158 0-2.311-0.13-3.44-0.38l7.96-30.62c3.27 0.97 6.139 2.971 8.179 5.705s3.141 6.054 3.141 9.465zm69.019 17.32l2.84-1.15c1.868-0.75 3.915-0.93 5.883-0.51 1.969 0.41 3.77 1.4 5.177 2.84 1.18 1.21 2.04 2.69 2.503 4.32 0.462 1.62 0.513 3.34 0.147 4.99l-0.52 2.34c-0.412 1.85-0.298 3.79 0.33 5.58l0.22 0.62c0.766 2.19 0.951 4.53 0.535 6.81-0.415 2.28-1.416 4.41-2.905 6.19l-14.21-32.03zm19.24-67.201l-2.79 17c-1.57 9.56-10 15.78-18.66 13.68l-8-1.94c-1.799-0.437-3.671-0.485-5.49-0.14l-17.16 3.27c-8.36 1.59-16.76-2.55-21.26-10.47l-1.41-2.49c34.99 1.09 64.26-13.07 74.77-18.91zm-108.56 12.77c-1.372 1.034-2.993 1.686-4.699 1.891s-3.435-0.044-5.013-0.724c-1.578-0.679-2.949-1.764-3.972-3.144-1.024-1.38-1.664-3.006-1.856-4.713 5.006 2.615 10.2 4.851 15.54 6.69z" fill="#3f4249"/>
<path class="colorB2B6BB svgShape" d="m413.86 951.89c2.272-3.147 3.259-7.041 2.76-10.89l-1-7.83c2.016 0.302 4.076 0.107 6-0.57l10.11-3.6c0.415-0.148 0.858-0.2 1.295-0.152 0.438 0.048 0.859 0.195 1.233 0.428 0.373 0.234 0.688 0.549 0.922 0.922 0.235 0.373 0.381 0.794 0.43 1.232l0.32 3c0.479 4.404-0.027 8.86-1.484 13.044-1.456 4.184-3.825 7.991-6.936 11.146l-12.78 12.95-1.87-3.41c-1.396-2.527-2.043-5.399-1.866-8.281 0.178-2.881 1.171-5.652 2.866-7.989z" fill="#b2b6bb"/>
<path class="color3F4249 svgShape" d="m375.24 946.73l-7.9 19.91c-0.916 2.426-1.003 5.087-0.247 7.568 0.756 2.48 2.313 4.64 4.427 6.142 5 3.3 11.76 3.51 18.37-2.85 9-8.61 5.25-27.73 0.65-35.09m-86.89 64.81l8.68-9.511-7.26 15.921-1.42-6.41zm121.89-76.111l6.06-2.11c0.43-0.155 0.89-0.209 1.345-0.158 0.454 0.05 0.891 0.204 1.277 0.449s0.71 0.575 0.949 0.965c0.239 0.389 0.386 0.828 0.429 1.284l0.47 4.29c-0.752 0.188-1.524 0.285-2.3 0.29-1.697-0.01-3.36-0.481-4.81-1.364-1.45-0.882-2.632-2.143-3.42-3.646z" fill="#3f4249"/>
<path class="color868A91 svgShape" d="m376 944.81l-8.28 20.61c-0.608 1.441-0.682 3.051-0.209 4.541s1.462 2.763 2.789 3.589c4.11 2.55 10.67 4.33 17.85-2.57 7.61-7.31 6.55-22.86 1.57-29.87" fill="#868a91"/>
<path class="color000 svgShape colorStroke3F4249 svgStroke" d="m376 944.81l-8.28 20.61c-0.608 1.441-0.682 3.051-0.209 4.541s1.462 2.763 2.789 3.589c4.11 2.55 10.67 4.33 17.85-2.57 7.61-7.31 6.55-22.86 1.57-29.87" stroke="#3f4249" stroke-linecap="round" stroke-miterlimit="10" stroke-width="1.04"/>
<path class="colorB2B6BB svgShape" d="m347.08 1007.2s-9.24-10.891-34.75-9.511l-4.34 9.511h39.09z" fill="#b2b6bb"/>
<path class="color3F4249 svgShape" d="m271.74 972.18l-0.63 2.68c-4.313-1.417-8.457-3.301-12.36-5.62l12.99 2.94z" fill="#3f4249"/>
<path class="color000 svgShape colorStroke3F4249 svgStroke" d="m435.29 932.7s1.54 16.48-12 12.79" stroke="#3f4249" stroke-linecap="round" stroke-miterlimit="10" stroke-width="1.04"/>
<path class="change-color-in-svg color4D61FC svgShape" d="m1146.9 310.75h-698.16c-9.488 0-17.18 7.692-17.18 17.18v519.58c0 9.488 7.692 17.18 17.18 17.18h698.16c9.49 0 17.18-7.692 17.18-17.18v-519.58c0-9.488-7.69-17.18-17.18-17.18z" fill="#ffdb6f"/>
<path class="colorfff svgShape" d="m1146.9 310.75h-698.16c-9.488 0-17.18 7.692-17.18 17.18v519.58c0 9.488 7.692 17.18 17.18 17.18h698.16c9.49 0 17.18-7.692 17.18-17.18v-519.58c0-9.488-7.69-17.18-17.18-17.18z" fill="#fff" opacity=".6"/>
<path class="colorfff svgShape" d="m1138.7 310.75h-698.16c-9.488 0-17.18 7.692-17.18 17.18v519.58c0 9.488 7.692 17.18 17.18 17.18h698.16c9.49 0 17.18-7.692 17.18-17.18v-519.58c0-9.488-7.69-17.18-17.18-17.18z" fill="#fff"/>
<path class="change-color-in-svg color4D61FC svgShape" d="m440.5 310.75h39.86v553.95h-39.86c-4.556 0-8.926-1.81-12.148-5.032s-5.032-7.592-5.032-12.148v-519.59c0-4.556 1.81-8.926 5.032-12.148s7.592-5.032 12.148-5.032z" fill="#ffdb6f"/>
<path class="colorfff svgShape" d="m463.66 337.31h-23.64c-1.856 0-3.36 1.502-3.36 3.355s1.504 3.355 3.36 3.355h23.64c1.856 0 3.36-1.502 3.36-3.355s-1.504-3.355-3.36-3.355zm-5.61 47.791h-12.41c-1.618 0-2.93 1.311-2.93 2.93v12.41c0 1.618 1.312 2.93 2.93 2.93h12.41c1.618 0 2.93-1.312 2.93-2.93v-12.41c0-1.619-1.312-2.93-2.93-2.93z" fill="#fff"/>
<path class="change-color-in-svg color4D61FC svgShape" d="m458.05 444.42h-12.41c-1.618 0-2.93 1.312-2.93 2.93v12.41c0 1.618 1.312 2.93 2.93 2.93h12.41c1.618 0 2.93-1.312 2.93-2.93v-12.41c0-1.618-1.312-2.93-2.93-2.93zm0 59.33h-12.41c-1.618 0-2.93 1.312-2.93 2.93v12.41c0 1.618 1.312 2.93 2.93 2.93h12.41c1.618 0 2.93-1.312 2.93-2.93v-12.41c0-1.618-1.312-2.93-2.93-2.93zm0 59.318h-12.41c-1.618 0-2.93 1.312-2.93 2.93v12.41c0 1.619 1.312 2.93 2.93 2.93h12.41c1.618 0 2.93-1.311 2.93-2.93v-12.41c0-1.618-1.312-2.93-2.93-2.93z" fill="#ffdb6f"/>
<path class="colorfff svgShape" d="m458.05 444.42h-12.41c-1.618 0-2.93 1.312-2.93 2.93v12.41c0 1.618 1.312 2.93 2.93 2.93h12.41c1.618 0 2.93-1.312 2.93-2.93v-12.41c0-1.618-1.312-2.93-2.93-2.93zm0 59.33h-12.41c-1.618 0-2.93 1.312-2.93 2.93v12.41c0 1.618 1.312 2.93 2.93 2.93h12.41c1.618 0 2.93-1.312 2.93-2.93v-12.41c0-1.618-1.312-2.93-2.93-2.93zm0 59.318h-12.41c-1.618 0-2.93 1.312-2.93 2.93v12.41c0 1.619 1.312 2.93 2.93 2.93h12.41c1.618 0 2.93-1.311 2.93-2.93v-12.41c0-1.618-1.312-2.93-2.93-2.93z" fill="#fff" opacity=".4"/>
<path class="color868A91 svgShape" d="m571.68 334.53h-68.74c-3.214 0-5.82 2.606-5.82 5.82 0 3.215 2.606 5.82 5.82 5.82h68.74c3.214 0 5.82-2.605 5.82-5.82 0-3.214-2.606-5.82-5.82-5.82z" fill="#868a91"/>
<path class="change-color-in-svg color4D61FC svgShape" d="m1132.5 329.09h-60.69c-1.9 0-3.44 1.54-3.44 3.44v15.64c0 1.9 1.54 3.44 3.44 3.44h60.69c1.9 0 3.44-1.54 3.44-3.44v-15.64c0-1.9-1.54-3.44-3.44-3.44z" fill="#ffdb6f"/>
<path class="color000 svgShape colorStroke4D61FC svgStroke" d="m1046.4 329.09h-60.689c-1.9 0-3.44 1.54-3.44 3.44v15.64c0 1.9 1.54 3.44 3.44 3.44h60.689c1.9 0 3.44-1.54 3.44-3.44v-15.64c0-1.9-1.54-3.44-3.44-3.44z" stroke="#4d61fc" stroke-miterlimit="10"/>
<path class="colorfff svgShape" d="m467.58 822.74c0-8.69-7.044-15.735-15.735-15.735-8.69 0-15.735 7.045-15.735 15.735s7.045 15.735 15.735 15.735c8.691 0 15.735-7.045 15.735-15.735z" fill="#fff"/>
<path class="change-color-in-svg color4D61FC svgShape" d="m451.85 823.21c-1.132 0-2.224-0.422-3.061-1.184-0.838-0.761-1.362-1.808-1.469-2.936l-0.3-3.27c-0.064-0.632 5e-3 -1.27 0.203-1.874s0.52-1.159 0.946-1.63 0.946-0.848 1.527-1.106c0.581-0.257 1.209-0.39 1.844-0.39h0.61c0.636 0 1.264 0.133 1.845 0.39 0.58 0.258 1.101 0.635 1.527 1.106s0.748 1.026 0.946 1.63 0.267 1.242 0.202 1.874l-0.3 3.27c-0.106 1.126-0.629 2.171-1.464 2.933-0.836 0.762-1.925 1.185-3.056 1.187zm13.321 7.912c-0.623 1.003-1.361 1.93-2.2 2.76-1.672 1.672-3.699 2.946-5.93 3.727-2.232 0.781-4.611 1.049-6.96 0.784-2.35-0.266-4.609-1.057-6.611-2.316-2.001-1.259-3.693-2.952-4.949-4.955 0.384-1.736 1.35-3.29 2.738-4.402 1.387-1.113 3.113-1.719 4.892-1.718h11.39c1.778-1e-3 3.504 0.605 4.891 1.718 1.388 1.112 2.354 2.666 2.739 4.402z" fill="#ffdb6f"/>
<g class="color000 svgShape" opacity=".4">
<path class="colorfff svgShape" d="m451.85 823.21c-1.132 0-2.224-0.422-3.061-1.184-0.838-0.761-1.362-1.808-1.469-2.936l-0.3-3.27c-0.064-0.632 5e-3 -1.27 0.203-1.874s0.52-1.159 0.946-1.63 0.946-0.848 1.527-1.106c0.581-0.257 1.209-0.39 1.844-0.39h0.61c0.636 0 1.264 0.133 1.845 0.39 0.58 0.258 1.101 0.635 1.527 1.106s0.748 1.026 0.946 1.63 0.267 1.242 0.202 1.874l-0.3 3.27c-0.106 1.126-0.629 2.171-1.464 2.933-0.836 0.762-1.925 1.185-3.056 1.187zm13.321 7.91c-0.623 1.003-1.361 1.93-2.2 2.76-1.672 1.672-3.699 2.946-5.93 3.727-2.232 0.781-4.611 1.049-6.96 0.784-2.35-0.266-4.609-1.057-6.611-2.316-2.001-1.258-3.693-2.952-4.949-4.955 0.384-1.736 1.35-3.289 2.738-4.402 1.387-1.113 3.113-1.719 4.892-1.718h11.39c1.778-1e-3 3.504 0.605 4.891 1.718 1.388 1.113 2.354 2.666 2.739 4.402z" fill="#fff" opacity=".4"/>
</g>
<path class="change-color-in-svg color4D61FC svgShape" d="m692.11 374.24h-186c-4.965 0-8.99 4.025-8.99 8.99v98.37c0 4.965 4.025 8.99 8.99 8.99h186c4.965 0 8.99-4.025 8.99-8.99v-98.37c0-4.965-4.025-8.99-8.99-8.99z" fill="#ffdb6f"/>
<path class="colorfff svgShape" d="m692.11 374.24h-186c-4.965 0-8.99 4.025-8.99 8.99v98.37c0 4.965 4.025 8.99 8.99 8.99h186c4.965 0 8.99-4.025 8.99-8.99v-98.37c0-4.965-4.025-8.99-8.99-8.99z" fill="#fff" opacity=".5"/>
<path class="colorfff svgShape" d="m638.82 440.22h-114.69c-2.48 0-4.49 2.01-4.49 4.49v14.01c0 2.48 2.01 4.49 4.49 4.49h114.69c2.479 0 4.49-2.01 4.49-4.49v-14.01c0-2.48-2.011-4.49-4.49-4.49z" fill="#fff"/>
<path class="change-color-in-svg color4D61FC svgShape" d="m663.51 409.99h-93.84c-2.17 0-3.93 1.76-3.93 3.93 0 2.171 1.76 3.93 3.93 3.93h93.84c2.171 0 3.93-1.759 3.93-3.93 0-2.17-1.759-3.93-3.93-3.93z" fill="#ffdb6f"/>
<path class="colorfff svgShape" d="m663.51 409.99h-93.84c-2.17 0-3.93 1.76-3.93 3.93 0 2.171 1.76 3.93 3.93 3.93h93.84c2.171 0 3.93-1.759 3.93-3.93 0-2.17-1.759-3.93-3.93-3.93z" fill="#fff" opacity=".3"/>
<path class="change-color-in-svg color4D61FC svgShape" d="m535.69 429.97c8.864 0 16.05-7.186 16.05-16.05s-7.186-16.05-16.05-16.05c-8.865 0-16.05 7.186-16.05 16.05s7.185 16.05 16.05 16.05z" fill="#ffdb6f"/>
<path class="colorfff svgShape" d="m535.69 429.97c8.864 0 16.05-7.186 16.05-16.05s-7.186-16.05-16.05-16.05c-8.865 0-16.05 7.186-16.05 16.05s7.185 16.05 16.05 16.05z" fill="#fff" opacity=".3"/>
<path class="change-color-in-svg color4D61FC svgShape" d="m909.44 374.45h-185.66c-4.954 0-8.97 4.016-8.97 8.97v98.19c0 4.954 4.016 8.97 8.97 8.97h185.66c4.954 0 8.97-4.016 8.97-8.97v-98.19c0-4.954-4.016-8.97-8.97-8.97z" fill="#ffdb6f"/>
<path class="colorfff svgShape" d="m856.25 440.31h-114.48c-2.474 0-4.48 2.005-4.48 4.48v13.99c0 2.474 2.006 4.48 4.48 4.48h114.48c2.474 0 4.48-2.006 4.48-4.48v-13.99c0-2.475-2.006-4.48-4.48-4.48z" fill="#fff"/>
<path class="change-color-in-svg color4D61FC svgShape" d="m880.89 410.14h-93.67c-2.165 0-3.92 1.755-3.92 3.92s1.755 3.92 3.92 3.92h93.67c2.165 0 3.92-1.755 3.92-3.92s-1.755-3.92-3.92-3.92z" fill="#ffdb6f"/>
<path class="colorfff svgShape" d="m880.89 410.14h-93.67c-2.165 0-3.92 1.755-3.92 3.92s1.755 3.92 3.92 3.92h93.67c2.165 0 3.92-1.755 3.92-3.92s-1.755-3.92-3.92-3.92z" fill="#fff" opacity=".3"/>
<path class="change-color-in-svg color4D61FC svgShape" d="m753.31 430.09c8.848 0 16.02-7.173 16.02-16.02 0-8.848-7.172-16.02-16.02-16.02s-16.02 7.172-16.02 16.02c0 8.847 7.172 16.02 16.02 16.02z" fill="#ffdb6f"/>
<path class="colorfff svgShape" d="m753.31 430.09c8.848 0 16.02-7.173 16.02-16.02 0-8.848-7.172-16.02-16.02-16.02s-16.02 7.172-16.02 16.02c0 8.847 7.172 16.02 16.02 16.02z" fill="#fff" opacity=".3"/>
<path class="colorB2B6BB svgShape" d="m1126.9 374.45h-185.66c-4.954 0-8.97 4.016-8.97 8.97v98.19c0 4.954 4.016 8.97 8.97 8.97h185.66c4.95 0 8.97-4.016 8.97-8.97v-98.19c0-4.954-4.02-8.97-8.97-8.97z" fill="#b2b6bb"/>
<path class="colorfff svgShape" d="m1073.8 440.31h-114.48c-2.474 0-4.48 2.005-4.48 4.48v13.99c0 2.474 2.006 4.48 4.48 4.48h114.48c2.47 0 4.48-2.006 4.48-4.48v-13.99c0-2.475-2.01-4.48-4.48-4.48z" fill="#fff"/>
<path class="change-color-in-svg color4D61FC svgShape" d="m1098.4 410.14h-93.67c-2.16 0-3.92 1.755-3.92 3.92s1.76 3.92 3.92 3.92h93.67c2.17 0 3.92-1.755 3.92-3.92s-1.75-3.92-3.92-3.92z" fill="#ffdb6f"/>
<path class="color868A91 svgShape" d="m1098.4 410.14h-93.67c-2.16 0-3.92 1.755-3.92 3.92s1.76 3.92 3.92 3.92h93.67c2.17 0 3.92-1.755 3.92-3.92s-1.75-3.92-3.92-3.92zm-127.58 19.95c8.848 0 16.02-7.173 16.02-16.02 0-8.848-7.172-16.02-16.02-16.02s-16.02 7.172-16.02 16.02c0 8.847 7.172 16.02 16.02 16.02z" fill="#868a91"/>
<path class="change-color-in-svg color4D61FC svgShape" d="m1126.9 504.33h-185.66c-4.954 0-8.97 4.016-8.97 8.97v240.6c0 4.954 4.016 8.97 8.97 8.97h185.66c4.95 0 8.97-4.016 8.97-8.97v-240.6c0-4.954-4.02-8.97-8.97-8.97z" fill="#ffdb6f"/>
<path class="colorfff svgShape" d="m1126.9 504.33h-185.66c-4.954 0-8.97 4.016-8.97 8.97v240.6c0 4.954 4.016 8.97 8.97 8.97h185.66c4.95 0 8.97-4.016 8.97-8.97v-240.6c0-4.954-4.02-8.97-8.97-8.97z" fill="#fff" opacity=".85"/>
<path class="change-color-in-svg color4D61FC svgShape" d="m1080.5 568.18l-0.92-1-17.24 16.09 0.92 1c6.94 7.406 10.79 17.182 10.77 27.332s-3.91 19.909-10.88 27.287c-6.98 7.377-16.5 11.816-26.63 12.411s-20.11-2.699-27.9-9.21l-1-0.87-15.079 18.11 1 0.87c12.389 10.356 28.269 15.595 44.389 14.65 16.12-0.946 31.28-8.006 42.37-19.74 11.1-11.734 17.3-27.258 17.35-43.408 0.04-16.149-6.08-31.708-17.11-43.502l-0.04-0.02z" fill="#ffdb6f"/>
<path class="colorfff svgShape" d="m1080.5 568.18l-0.92-1-17.24 16.09 0.92 1c6.94 7.406 10.79 17.182 10.77 27.332s-3.91 19.909-10.88 27.287c-6.98 7.377-16.5 11.816-26.63 12.411s-20.11-2.699-27.9-9.21l-1-0.87-15.079 18.11 1 0.87c12.389 10.356 28.269 15.595 44.389 14.65 16.12-0.946 31.28-8.006 42.37-19.74 11.1-11.734 17.3-27.258 17.35-43.408 0.04-16.149-6.08-31.708-17.11-43.502l-0.04-0.02z" fill="#fff" opacity=".5"/>
<path class="change-color-in-svg color4D61FC svgShape" d="m1080.5 568.18c-7.63-8.181-17.29-14.192-28-17.42l-1.3-0.37-1.28-0.36c-10.48-2.697-21.48-2.666-31.95 0.091s-20.056 8.148-27.85 15.659l-1 0.93 16.35 17 1-0.94c7.41-7.167 17.33-11.163 27.64-11.14 3.63-1e-3 7.25 0.49 10.75 1.46 7.03 1.98 13.38 5.854 18.36 11.2l0.93 1 17.24-16.09-0.89-1.02z" fill="#ffdb6f"/>
<path class="color61656D svgShape" d="m1008.6 642.09c-4.3-3.589-7.8-8.043-10.261-13.074-2.465-5.03-3.842-10.522-4.043-16.12s0.779-11.176 2.877-16.37c2.097-5.194 5.267-9.887 9.297-13.776l1-0.93-16.349-17-1 0.94c-6.426 6.182-11.476 13.649-14.821 21.914-3.344 8.266-4.907 17.143-4.587 26.054s2.516 17.654 6.444 25.658 9.501 15.09 16.354 20.794l1 0.86 15.129-18.04-1.04-0.91z" fill="#61656d"/>
<path class="change-color-in-svg color4D61FC svgShape" d="m1048.9 602.14h-29.5c-2.8 0-5.07 2.27-5.07 5.07v8.51c0 2.8 2.27 5.07 5.07 5.07h29.5c2.8 0 5.07-2.27 5.07-5.07v-8.51c0-2.8-2.27-5.07-5.07-5.07z" fill="#ffdb6f"/>
<path class="colorfff svgShape" d="m1048.9 602.14h-29.5c-2.8 0-5.07 2.27-5.07 5.07v8.51c0 2.8 2.27 5.07 5.07 5.07h29.5c2.8 0 5.07-2.27 5.07-5.07v-8.51c0-2.8-2.27-5.07-5.07-5.07z" fill="#fff" opacity=".4"/>
<path class="change-color-in-svg color4D61FC svgShape" d="m647.14 776.31h-138.43c-2.369 0-4.29 1.92-4.29 4.29v59.21c0 2.369 1.921 4.29 4.29 4.29h138.43c2.369 0 4.29-1.921 4.29-4.29v-59.21c0-2.37-1.921-4.29-4.29-4.29zm161.49 0h-138.43c-2.369 0-4.29 1.92-4.29 4.29v59.21c0 2.369 1.921 4.29 4.29 4.29h138.43c2.369 0 4.29-1.921 4.29-4.29v-59.21c0-2.37-1.921-4.29-4.29-4.29zm161.5 0h-138.43c-2.369 0-4.29 1.92-4.29 4.29v59.21c0 2.369 1.921 4.29 4.29 4.29h138.43c2.369 0 4.29-1.921 4.29-4.29v-59.21c0-2.37-1.921-4.29-4.29-4.29zm161.49 0h-138.43c-2.369 0-4.29 1.92-4.29 4.29v59.21c0 2.369 1.921 4.29 4.29 4.29h138.43c2.37 0 4.29-1.921 4.29-4.29v-59.21c0-2.37-1.92-4.29-4.29-4.29z" fill="#ffdb6f"/>
<path class="colorfff svgShape" d="m647.14 776.31h-138.43c-2.369 0-4.29 1.92-4.29 4.29v59.21c0 2.369 1.921 4.29 4.29 4.29h138.43c2.369 0 4.29-1.921 4.29-4.29v-59.21c0-2.37-1.921-4.29-4.29-4.29zm161.49 0h-138.43c-2.369 0-4.29 1.92-4.29 4.29v59.21c0 2.369 1.921 4.29 4.29 4.29h138.43c2.369 0 4.29-1.921 4.29-4.29v-59.21c0-2.37-1.921-4.29-4.29-4.29zm161.5 0h-138.43c-2.369 0-4.29 1.92-4.29 4.29v59.21c0 2.369 1.921 4.29 4.29 4.29h138.43c2.369 0 4.29-1.921 4.29-4.29v-59.21c0-2.37-1.921-4.29-4.29-4.29zm161.49 0h-138.43c-2.369 0-4.29 1.92-4.29 4.29v59.21c0 2.369 1.921 4.29 4.29 4.29h138.43c2.37 0 4.29-1.921 4.29-4.29v-59.21c0-2.37-1.92-4.29-4.29-4.29z" fill="#fff" opacity=".85"/>
<path class="change-color-in-svg color4D61FC svgShape" d="m909.33 504.33h-400.5c-4.954 0-8.97 4.016-8.97 8.97v240.54c0 4.954 4.016 8.97 8.97 8.97h400.5c4.954 0 8.97-4.016 8.97-8.97v-240.54c0-4.954-4.016-8.97-8.97-8.97z" fill="#ffdb6f"/>
<path class="colorfff svgShape" d="m909.33 504.33h-400.5c-4.954 0-8.97 4.016-8.97 8.97v240.54c0 4.954 4.016 8.97 8.97 8.97h400.5c4.954 0 8.97-4.016 8.97-8.97v-240.54c0-4.954-4.016-8.97-8.97-8.97z" fill="#fff" opacity=".85"/>
<path class="change-color-in-svg color4D61FC svgShape" d="m918.3 691.11h-418.22v0.91h418.22v-0.91zm0-69.73h-418.22v0.91h418.22v-0.91zm0-69.74h-418.22v0.91h418.22v-0.91z" fill="#ffdb6f" opacity=".2"/>
<path class="change-color-in-svg color4D61FC svgShape" d="m500.08 656.62s59.17 22.06 101.29 0 87.59-72.4 149.44-20.06c51.44 43.54 75.89-52.34 110-52.34s57.5 64.7 57.5 64.7v104.92c0 2.387-0.948 4.676-2.636 6.364s-3.977 2.636-6.364 2.636h-400.47c-2.387 0-4.676-0.948-6.364-2.636s-2.636-3.977-2.636-6.364l0.24-97.22z" fill="#ffdb6f" opacity=".4"/>
<path class="change-color-in-svg color4D61FC svgShape" d="m556.21 667.33c-7.163-0.026-14.316-0.537-21.41-1.53-11.913-1.619-23.636-4.409-35-8.33l0.64-1.71c11.252 3.874 22.858 6.634 34.65 8.24 18.16 2.49 44.32 3.1 65.86-8.18 7.86-4.12 15.74-9.16 24.07-14.5 35.45-22.69 75.62-48.41 126.38-5.45 9.72 8.22 18.84 11.82 27.9 11 16.81-1.51 30.45-18.07 43.65-34.08 12.5-15.16 24.3-29.49 37.85-29.49 34.34 0 57.39 62.65 58.36 65.31l-1.72 0.62c-4.291-11.203-9.614-21.983-15.9-32.2-16.49-26.37-31.26-31.9-40.74-31.9-12.69 0-24.22 14-36.44 28.83-13.43 16.3-27.32 33.15-44.9 34.73-9.55 0.86-19.13-2.88-29.24-11.43-22.22-18.81-44.22-25.86-67.38-21.54-20.41 3.81-38.93 15.67-56.83 27.13-8.37 5.36-16.28 10.42-24.21 14.57-9.31 4.88-24.12 9.91-45.59 9.91z" fill="#ffdb6f"/>
<path class="change-color-in-svg color4D61FC svgShape" d="m708.7 617.38c1.635 0 2.96-1.325 2.96-2.96s-1.325-2.96-2.96-2.96-2.96 1.325-2.96 2.96 1.325 2.96 2.96 2.96zm70.12 33.541c1.635 0 2.96-1.325 2.96-2.96s-1.325-2.96-2.96-2.96c-1.634 0-2.96 1.325-2.96 2.96s1.326 2.96 2.96 2.96zm83.42-63.74c1.635 0 2.96-1.326 2.96-2.96 0-1.635-1.325-2.96-2.96-2.96s-2.96 1.325-2.96 2.96c0 1.634 1.325 2.96 2.96 2.96zm-223.19 49.82c1.635 0 2.96-1.325 2.96-2.96s-1.325-2.96-2.96-2.96-2.96 1.325-2.96 2.96 1.325 2.96 2.96 2.96zm-69.449 31.619c1.634 0 2.96-1.325 2.96-2.96s-1.326-2.96-2.96-2.96c-1.635 0-2.96 1.325-2.96 2.96s1.325 2.96 2.96 2.96zm-69.521-8.609c1.635 0 2.96-1.325 2.96-2.96s-1.325-2.96-2.96-2.96-2.96 1.325-2.96 2.96 1.325 2.96 2.96 2.96zm418.22-9.09c1.635 0 2.96-1.325 2.96-2.96s-1.325-2.96-2.96-2.96-2.96 1.325-2.96 2.96 1.325 2.96 2.96 2.96z" fill="#ffdb6f"/>
<path class="color868A91 svgShape" d="m643.27 519.4h-124.93c-3.215 0-5.82 2.606-5.82 5.82 0 3.215 2.605 5.82 5.82 5.82h124.93c3.214 0 5.82-2.605 5.82-5.82 0-3.214-2.606-5.82-5.82-5.82zm386.86 0h-78.299c-3.215 0-5.82 2.606-5.82 5.82 0 3.215 2.605 5.82 5.82 5.82h78.299c3.22 0 5.82-2.605 5.82-5.82 0-3.214-2.6-5.82-5.82-5.82z" fill="#868a91"/>
<path class="change-color-in-svg color4D61FC svgShape" d="m954.2 691.11h-6.51c-1.685 0-3.05 1.366-3.05 3.05v6.51c0 1.685 1.365 3.05 3.05 3.05h6.51c1.684 0 3.05-1.365 3.05-3.05v-6.51c0-1.684-1.366-3.05-3.05-3.05z" fill="#ffdb6f"/>
<path class="colorfff svgShape" d="m954.2 691.11h-6.51c-1.685 0-3.05 1.366-3.05 3.05v6.51c0 1.685 1.365 3.05 3.05 3.05h6.51c1.684 0 3.05-1.365 3.05-3.05v-6.51c0-1.684-1.366-3.05-3.05-3.05z" fill="#fff" opacity=".5"/>
<path class="change-color-in-svg color4D61FC svgShape" d="m954.2 714.54h-6.51c-1.685 0-3.05 1.366-3.05 3.05v6.51c0 1.685 1.365 3.05 3.05 3.05h6.51c1.684 0 3.05-1.365 3.05-3.05v-6.51c0-1.684-1.366-3.05-3.05-3.05z" fill="#ffdb6f"/>
<path class="color61656D svgShape" d="m954.2 737.97h-6.51c-1.685 0-3.05 1.365-3.05 3.05v6.51c0 1.684 1.365 3.05 3.05 3.05h6.51c1.684 0 3.05-1.366 3.05-3.05v-6.51c0-1.685-1.366-3.05-3.05-3.05z" fill="#61656d"/>
<path class="change-color-in-svg color4D61FC svgShape" d="m1056.9 694.36h-87.6c-1.69 0-3.06 1.37-3.06 3.06v0.01c0 1.69 1.37 3.06 3.06 3.06h87.6c1.69 0 3.06-1.37 3.06-3.06v-0.01c0-1.69-1.37-3.06-3.06-3.06zm0 23.43h-87.6c-1.69 0-3.06 1.37-3.06 3.06v0.01c0 1.69 1.37 3.06 3.06 3.06h87.6c1.69 0 3.06-1.37 3.06-3.06v-0.01c0-1.69-1.37-3.06-3.06-3.06zm0 23.43h-87.6c-1.69 0-3.06 1.37-3.06 3.06v0.01c0 1.69 1.37 3.06 3.06 3.06h87.6c1.69 0 3.06-1.37 3.06-3.06v-0.01c0-1.69-1.37-3.06-3.06-3.06z" fill="#ffdb6f"/>
<path class="colorfff svgShape" d="m1056.9 694.36h-87.6c-1.69 0-3.06 1.37-3.06 3.06v0.01c0 1.69 1.37 3.06 3.06 3.06h87.6c1.69 0 3.06-1.37 3.06-3.06v-0.01c0-1.69-1.37-3.06-3.06-3.06zm0 23.43h-87.6c-1.69 0-3.06 1.37-3.06 3.06v0.01c0 1.69 1.37 3.06 3.06 3.06h87.6c1.69 0 3.06-1.37 3.06-3.06v-0.01c0-1.69-1.37-3.06-3.06-3.06zm0 23.43h-87.6c-1.69 0-3.06 1.37-3.06 3.06v0.01c0 1.69 1.37 3.06 3.06 3.06h87.6c1.69 0 3.06-1.37 3.06-3.06v-0.01c0-1.69-1.37-3.06-3.06-3.06z" fill="#fff" opacity=".5"/>
<path class="change-color-in-svg color4D61FC svgShape" d="m1120.5 694.36h-24.13c-1.69 0-3.06 1.37-3.06 3.06v0.01c0 1.69 1.37 3.06 3.06 3.06h24.13c1.69 0 3.06-1.37 3.06-3.06v-0.01c0-1.69-1.37-3.06-3.06-3.06zm0 23.43h-24.13c-1.69 0-3.06 1.37-3.06 3.06v0.01c0 1.69 1.37 3.06 3.06 3.06h24.13c1.69 0 3.06-1.37 3.06-3.06v-0.01c0-1.69-1.37-3.06-3.06-3.06zm0 23.43h-24.13c-1.69 0-3.06 1.37-3.06 3.06v0.01c0 1.69 1.37 3.06 3.06 3.06h24.13c1.69 0 3.06-1.37 3.06-3.06v-0.01c0-1.69-1.37-3.06-3.06-3.06zm-495.33 55.051h-102.96c-1.673 0-3.03 1.356-3.03 3.029 0 1.674 1.357 3.031 3.03 3.031h102.96c1.674 0 3.03-1.357 3.03-3.031 0-1.673-1.356-3.029-3.03-3.029z" fill="#ffdb6f"/>
<path class="colorfff svgShape" d="m561.63 814.92h-38.14c-2.369 0-4.29 1.921-4.29 4.29v7.08c0 2.369 1.921 4.29 4.29 4.29h38.14c2.369 0 4.29-1.921 4.29-4.29v-7.08c0-2.369-1.921-4.29-4.29-4.29z" fill="#fff" opacity=".15"/>
<path class="colorfff svgShape" d="m625.19 796.27h-102.96c-1.673 0-3.03 1.356-3.03 3.029 0 1.674 1.357 3.031 3.03 3.031h102.96c1.674 0 3.03-1.357 3.03-3.031 0-1.673-1.356-3.029-3.03-3.029z" fill="#fff" opacity=".5"/>
<path class="change-color-in-svg color4D61FC svgShape" d="m790.9 796.27h-102.96c-1.673 0-3.03 1.356-3.03 3.029 0 1.674 1.357 3.031 3.03 3.031h102.96c1.674 0 3.03-1.357 3.03-3.031 0-1.673-1.356-3.029-3.03-3.029z" fill="#ffdb6f"/>
<path class="colorfff svgShape" d="m727.34 814.92h-38.14c-2.369 0-4.29 1.921-4.29 4.29v7.08c0 2.369 1.921 4.29 4.29 4.29h38.14c2.37 0 4.29-1.921 4.29-4.29v-7.08c0-2.369-1.92-4.29-4.29-4.29z" fill="#fff" opacity=".15"/>
<path class="colorfff svgShape" d="m790.9 796.27h-102.96c-1.673 0-3.03 1.356-3.03 3.029 0 1.674 1.357 3.031 3.03 3.031h102.96c1.674 0 3.03-1.357 3.03-3.031 0-1.673-1.356-3.029-3.03-3.029z" fill="#fff" opacity=".5"/>
<path class="change-color-in-svg color4D61FC svgShape" d="m953.38 796.27h-102.96c-1.674 0-3.03 1.356-3.03 3.029 0 1.674 1.356 3.031 3.03 3.031h102.96c1.673 0 3.03-1.357 3.03-3.031 0-1.673-1.357-3.029-3.03-3.029z" fill="#ffdb6f"/>
<path class="colorfff svgShape" d="m889.82 814.92h-38.14c-2.37 0-4.29 1.921-4.29 4.29v7.08c0 2.369 1.92 4.29 4.29 4.29h38.14c2.369 0 4.29-1.921 4.29-4.29v-7.08c0-2.369-1.921-4.29-4.29-4.29z" fill="#fff" opacity=".15"/>
<path class="colorfff svgShape" d="m953.38 796.27h-102.96c-1.674 0-3.03 1.356-3.03 3.029 0 1.674 1.356 3.031 3.03 3.031h102.96c1.673 0 3.03-1.357 3.03-3.031 0-1.673-1.357-3.029-3.03-3.029z" fill="#fff" opacity=".5"/>
<path class="change-color-in-svg color4D61FC svgShape" d="m1113.9 796.27h-102.96c-1.67 0-3.03 1.356-3.03 3.029 0 1.674 1.36 3.031 3.03 3.031h102.96c1.67 0 3.03-1.357 3.03-3.031 0-1.673-1.36-3.029-3.03-3.029zm-63.56 18.65h-38.14c-2.37 0-4.29 1.921-4.29 4.29v7.08c0 2.369 1.92 4.29 4.29 4.29h38.14c2.37 0 4.29-1.921 4.29-4.29v-7.08c0-2.369-1.92-4.29-4.29-4.29zm-488.69 0h-38.14c-2.369 0-4.29 1.921-4.29 4.29v7.08c0 2.369 1.921 4.29 4.29 4.29h38.14c2.369 0 4.29-1.921 4.29-4.29v-7.08c0-2.369-1.921-4.29-4.29-4.29zm165.71 0h-38.14c-2.369 0-4.29 1.921-4.29 4.29v7.08c0 2.369 1.921 4.29 4.29 4.29h38.14c2.37 0 4.29-1.921 4.29-4.29v-7.08c0-2.369-1.92-4.29-4.29-4.29zm162.48 0h-38.14c-2.37 0-4.29 1.921-4.29 4.29v7.08c0 2.369 1.92 4.29 4.29 4.29h38.14c2.369 0 4.29-1.921 4.29-4.29v-7.08c0-2.369-1.921-4.29-4.29-4.29z" fill="#ffdb6f"/>
<path class="change-color-in-svg color4D61FC svgShape" d="m1050.3 814.92h-38.14c-2.37 0-4.29 1.921-4.29 4.29v7.08c0 2.369 1.92 4.29 4.29 4.29h38.14c2.37 0 4.29-1.921 4.29-4.29v-7.08c0-2.369-1.92-4.29-4.29-4.29z" fill="#ffdb6f"/>
<path class="colorfff svgShape" d="m561.63 814.92h-38.14c-2.369 0-4.29 1.921-4.29 4.29v7.08c0 2.369 1.921 4.29 4.29 4.29h38.14c2.369 0 4.29-1.921 4.29-4.29v-7.08c0-2.369-1.921-4.29-4.29-4.29zm165.71 0h-38.14c-2.369 0-4.29 1.921-4.29 4.29v7.08c0 2.369 1.921 4.29 4.29 4.29h38.14c2.37 0 4.29-1.921 4.29-4.29v-7.08c0-2.369-1.92-4.29-4.29-4.29zm162.48 0h-38.14c-2.37 0-4.29 1.921-4.29 4.29v7.08c0 2.369 1.92 4.29 4.29 4.29h38.14c2.369 0 4.29-1.921 4.29-4.29v-7.08c0-2.369-1.921-4.29-4.29-4.29z" fill="#fff" opacity=".15"/>
<path class="colorfff svgShape" d="m561.63 814.92h-38.14c-2.369 0-4.29 1.921-4.29 4.29v7.08c0 2.369 1.921 4.29 4.29 4.29h38.14c2.369 0 4.29-1.921 4.29-4.29v-7.08c0-2.369-1.921-4.29-4.29-4.29zm165.71 0h-38.14c-2.369 0-4.29 1.921-4.29 4.29v7.08c0 2.369 1.921 4.29 4.29 4.29h38.14c2.37 0 4.29-1.921 4.29-4.29v-7.08c0-2.369-1.92-4.29-4.29-4.29zm162.48 0h-38.14c-2.37 0-4.29 1.921-4.29 4.29v7.08c0 2.369 1.92 4.29 4.29 4.29h38.14c2.369 0 4.29-1.921 4.29-4.29v-7.08c0-2.369-1.921-4.29-4.29-4.29zm160.5 0h-38.14c-2.37 0-4.29 1.921-4.29 4.29v7.08c0 2.369 1.92 4.29 4.29 4.29h38.14c2.37 0 4.29-1.921 4.29-4.29v-7.08c0-2.369-1.92-4.29-4.29-4.29z" fill="#fff" opacity=".15"/>
<path class="colorfff svgShape" d="m1113.9 796.27h-102.96c-1.67 0-3.03 1.356-3.03 3.029 0 1.674 1.36 3.031 3.03 3.031h102.96c1.67 0 3.03-1.357 3.03-3.031 0-1.673-1.36-3.029-3.03-3.029z" fill="#fff" opacity=".5"/>
<path class="colorB1B5BA svgShape" d="m223.7 1060.4h1131.8c0.1-0.02 0.2-0.07 0.27-0.15s0.1-0.18 0.1-0.29c0-0.1-0.03-0.2-0.1-0.28s-0.17-0.13-0.27-0.15h-1131.8c-0.104 0.02-0.199 0.07-0.268 0.15-0.068 0.08-0.106 0.18-0.106 0.28 0 0.11 0.038 0.21 0.106 0.29 0.069 0.08 0.164 0.13 0.268 0.15z" fill="#b1b5ba"/>
<path class="color858990 svgShape" d="m806 237.59c0-10.111-3.73-19.867-10.476-27.399s-16.034-12.311-26.084-13.421l-4.53-0.27c-10.897 0-21.349 4.329-29.055 12.035s-12.035 18.157-12.035 29.055 4.329 21.349 12.035 29.055 18.158 12.035 29.055 12.035h4.53v-0.27c10.049-1.115 19.333-5.895 26.079-13.426 6.745-7.531 10.476-17.284 10.481-27.394z" fill="#858990"/>
<path class="colorB1B5BA svgShape" d="m761.63 278.68c22.693 0 41.09-18.397 41.09-41.09s-18.397-41.09-41.09-41.09-41.09 18.397-41.09 41.09 18.397 41.09 41.09 41.09z" fill="#b1b5ba"/>
<path class="colorfff svgShape" d="m761.63 274.15c20.192 0 36.56-16.368 36.56-36.56 0-20.191-16.368-36.56-36.56-36.56-20.191 0-36.56 16.369-36.56 36.56 0 20.192 16.369 36.56 36.56 36.56z" fill="#fff"/>
<path class="color858990 svgShape" d="m761.63 274.15c20.192 0 36.56-16.368 36.56-36.56 0-20.191-16.368-36.56-36.56-36.56-20.191 0-36.56 16.369-36.56 36.56 0 20.192 16.369 36.56 36.56 36.56z" fill="#858990"/>
<path class="colorfff svgShape" d="m761.63 274.15c20.192 0 36.56-16.368 36.56-36.56 0-20.191-16.368-36.56-36.56-36.56-20.191 0-36.56 16.369-36.56 36.56 0 20.192 16.369 36.56 36.56 36.56z" fill="#fff" opacity=".9"/>
<path class="color858990 svgShape" d="m761.64 201c0.668-0.013 1.336 0.017 2 0.09-9.342 0.49-18.14 4.545-24.58 11.331s-10.03 15.784-10.03 25.139 3.59 18.353 10.03 25.139 15.238 10.842 24.58 11.331c-0.63 0-1.27 0.09-2 0.09-9.696 0-18.995-3.852-25.852-10.708-6.856-6.856-10.708-16.156-10.708-25.852s3.852-18.995 10.708-25.852c6.857-6.856 16.156-10.708 25.852-10.708z" fill="#858990"/>
<path class="change-color-in-svg color4D61FC svgShape" d="m762 240.4l-12.16-24.12c-0.197-0.442-0.218-0.943-0.057-1.399s0.491-0.834 0.922-1.054c0.43-0.221 0.929-0.268 1.393-0.131 0.465 0.136 0.859 0.445 1.102 0.864l10.43 20.77 13.88-6.8c0.456-0.216 0.979-0.243 1.455-0.073 0.475 0.17 0.864 0.522 1.08 0.978s0.242 0.979 0.072 1.455c-0.169 0.475-0.521 0.864-0.977 1.08l-17.14 8.43z" fill="#ffdb6f"/>
<path class="colorfff svgShape" d="m792.92 256.36c3.456-5.682 5.276-12.208 5.26-18.86 8e-3 -4.802-0.932-9.559-2.766-13.997-1.834-4.439-4.526-8.472-7.921-11.868-3.396-3.397-7.428-6.09-11.866-7.925s-9.195-2.776-13.997-2.77c-1 0-2 0.09-3 0.09l34.29 55.33zm-39.819-54.359c-1.757 0.431-3.484 0.975-5.17 1.63l37.82 61.37c1.477-1.306 2.842-2.735 4.08-4.27l-36.73-58.73z" fill="#fff" opacity=".5"/>
<path class="colorfff svgShape" d="m248.56 599.37h121.49v-154.71h-121.49v154.71z" fill="#fff"/>
<path class="colorDDD svgShape" d="m264.76 583.81h89.09v-123.59h-89.09v123.59z" fill="#ddd"/>
<path class="colorDADDDF svgShape" d="m373.58 444.67h-3.53v154.71h3.53v-154.71z" fill="#dadddf"/>
<path class="change-color-in-svg color4D61FC svgShape" d="m294.54 538.99c10.659 0 19.3-8.641 19.3-19.3s-8.641-19.3-19.3-19.3-19.3 8.641-19.3 19.3 8.641 19.3 19.3 19.3z" fill="#ffdb6f"/>
<path class="color868A91 svgShape" d="m342.77 570.44l-20.1-31.46-20.1 31.12 40.2 0.34z" fill="#868a91"/>
<path class="color000 svgShape" d="m298.96 515.41h41.74v-41.74h-41.74v41.74z" opacity=".2"/>
<path class="colorFC9D9D svgShape" d="m558.21 795.06l-4.29 47.19-13.84 152.24c-0.897 7.631-1.384 15.311-1.46 23.001v5.14l0.18 11.24c-0.084 2.37-1.088 4.62-2.799 6.26-1.712 1.65-3.997 2.56-6.371 2.55h-1.53c-1.309-0.01-2.602-0.29-3.792-0.84-1.19-0.54-2.25-1.33-3.11-2.32-0.859-0.99-1.498-2.15-1.874-3.4s-0.479-2.57-0.304-3.87l2.61-13.31c1.332-6.75 1.816-13.63 1.44-20.501l-5.55-157.22v-0.45l-1.63-46.16 42.32 0.45z" fill="#fc9d9d"/>
<path class="color000 svgShape" d="m553.92 842.25l-13.84 152.24c-0.896 7.63-1.383 15.31-1.46 23-1.91 1.9-4.86 3.57-4.55-4.83l8.93-153.66c0.098-1.631-0.249-3.257-1.005-4.705s-1.891-2.663-3.285-3.515c-6.696-3.95-13.801-7.162-21.19-9.58-1-0.35-1.65-0.52-1.65-0.52l1.63 0.07 36.42 1.5z" opacity=".15"/>
<path class="color37383A svgShape" d="m533.94 1016.3c3.13 0 5.76-4 6.06-1 0.1 1.08 0.19 2.35 0.19 3.52l0.1 24.54c-0.117 4.32-1.365 8.53-3.62 12.22l-0.48 0.88c-0.697 1.08-1.654 1.97-2.782 2.58-1.128 0.62-2.393 0.94-3.678 0.94h-7.52c-1.627 0.01-3.215-0.51-4.522-1.48-1.306-0.97-2.261-2.34-2.718-3.9-0.959-3.64-1.092-7.45-0.39-11.14l6.26-26.3c0.19-1 0.49-1.95 0.78-3 0.78-2.44 3.13 2 5.86 2h6.46v0.14z" fill="#37383a"/>
<path class="color21252B svgShape" d="m539.78 1031.2l-0.58-0.68c-0.493-0.57-1.138-0.98-1.858-1.19-0.721-0.21-1.486-0.21-2.207 0-0.72 0.21-1.366 0.62-1.859 1.19-0.494 0.56-0.815 1.26-0.926 2l-4.3 27.67h-4.79l1-27.18c9e-3 -0.76-0.2-1.51-0.603-2.16s-0.983-1.17-1.672-1.5-1.457-0.45-2.215-0.36c-0.757 0.09-1.472 0.4-2.06 0.89l4.1-16.72c0.091-0.35 0.256-0.68 0.483-0.97 0.228-0.28 0.513-0.52 0.837-0.68 0.324-0.17 0.679-0.26 1.043-0.28s0.727 0.04 1.067 0.17l2.24 0.88c2.196 0.86 4.63 0.9 6.85 0.1l2.25-0.78c0.389-0.14 0.804-0.17 1.21-0.12 0.407 0.06 0.794 0.22 1.128 0.46 0.335 0.24 0.608 0.55 0.796 0.92 0.188 0.36 0.286 0.77 0.286 1.18v17.11l-0.22 0.05z" fill="#21252b"/>
<path class="colorFC9D9D svgShape" d="m612.18 450.35c0.048 0.451 4e-3 0.907-0.128 1.341-0.133 0.434-0.352 0.836-0.645 1.183-0.292 0.346-0.652 0.63-1.057 0.834s-0.847 0.324-1.3 0.352v0.2l-0.9 4.45-0.17 0.83c-0.07 0.31-0.14 0.62-0.23 0.91-2.38 9.09-7.86 13.85-16 13.85h-4.1l0.43 5.9c0.2 2.71 9.95 2.66 12.58 3.34l3.93 5.38-33.07 16.76-39.81-17.85 16.2-4.92c6.22-2.25 9.15-6.91 11.4-10.77l2.23-6.62-6.45-45 15.84-6.45h28.25l7.43 17.3 1.57 13.3c0.118 0.592 0.362 1.151 0.716 1.639 0.354 0.489 0.809 0.895 1.334 1.191 0.55 0.258 1.021 0.658 1.364 1.159 0.343 0.502 0.545 1.085 0.586 1.691z" fill="#fc9d9d"/>
<path class="color231F20 svgShape" d="m592.85 425.43c-2.41-19.14-19.07-24.45-37.74-18.93-19 5.65-27.39 31.31-19.25 49.53s33 22 45.55 16c10.78-5.25 13.86-27.46 11.44-46.6z" fill="#231f20"/>
<path class="color000 svgShape" d="m547.37 401.11c-15.92 11.66-22.89 38.92-15.28 59.34-1.27-1.65 57.43 14.67 59.43 13.85 2.501-4.384 4.513-9.028 6-13.85-1.32 3.86-2.22 10.19-1.1 12.31 0.85 1.6 4.44-1.18 4.44-1.18 3-10.45 2.09-35.23 1.82-44.17-5.84-3.92-48.74-30.83-55.31-26.3z" opacity=".15"/>
<path class="color21252B svgShape" d="m546.53 401.11c6.607-4.542 14.453-6.937 22.47-6.86 11-0.3 40.14 6.91 41.57 33.91-2.37 1.86-6.29 1.59-8 3.17 1 20.14-3.76 45.46-7.72 55.3-1.39-1.28-2.86-2.57-4.42-3.81 2.706-6.582 4.393-13.539 5-20.63-1.591 6.522-4.297 12.72-8 18.32-18.69-14.22-45.13-23-55.6-18.09-7.58-20.42-1.27-49.65 14.7-61.31z" fill="#21252b"/>
<path class="color000 svgShape" d="m605.11 457.69c-0.05-0.067-0.111-0.124-0.18-0.17-0.193-0.123-0.426-0.166-0.65-0.12-0.111 0.017-0.217 0.058-0.31 0.12s-0.172 0.144-0.23 0.24c-0.12 0.173-0.17 0.385-0.143 0.594 0.028 0.208 0.132 0.4 0.293 0.536 0.5 0.503 1.095 0.9 1.751 1.168 0.657 0.268 1.36 0.401 2.069 0.392 0.09-0.29 0.16-0.6 0.23-0.91l0.17-0.83c-0.545 0.067-1.098 0.01-1.617-0.167-0.52-0.176-0.992-0.468-1.383-0.853z" opacity=".15"/>
<path class="color21252B svgShape" d="m608 451.29c-2.35 0-3.62-5-3.62-9.77s1.27-9.78 3.62-9.78 3.62 5 3.62 9.78-1.33 9.77-3.62 9.77zm0-18.37c-1.07 0-2.54 3.32-2.54 8.7s1.47 8.7 2.54 8.7 2.54-3.33 2.54-8.7-1.54-8.7-2.54-8.7z" fill="#21252b"/>
<path class="colorFA9B9B svgShape" d="m685.13 1043.2l-5 6.84-19.6-9.81-17.44-31.47c0.064-5.36-0.74-10.69-2.38-15.791l-37.22-141.86-2.21-8.42-12.62-48.1 48.61 1.28 5.38 45.64 17.93 152.23c0.545 3.211 1.609 6.311 3.15 9.181l21.4 40.28z" fill="#fa9b9b"/>
<path class="color000 svgShape" d="m685.13 1043.2l-5 6.84-24.53-46.43c-1.874-3.55-3.048-7.435-3.46-11.431l-12.53-122.46c-0.343-2.757-1.502-5.348-3.328-7.442-1.827-2.094-4.237-3.594-6.922-4.308l-25.87-6.86-2.21-8.42 41.37-1.18 17.93 152.23c0.545 3.211 1.609 6.311 3.15 9.181l21.4 40.28z" opacity=".15"/>
<path class="color21252B svgShape" d="m705 1055.6c0.141 0.36 0.193 0.74 0.152 1.12-0.04 0.38-0.172 0.75-0.384 1.06-0.213 0.32-0.499 0.58-0.834 0.77-0.336 0.18-0.711 0.28-1.094 0.29h-24.72c-3.027 0.01-6.018-0.65-8.756-1.95-2.739-1.29-5.155-3.17-7.074-5.51l-13.58-16.64c-0.231-0.29-0.546-0.51-0.903-0.61-0.357-0.11-0.738-0.1-1.091 0.01-0.354 0.12-0.662 0.35-0.883 0.65s-0.344 0.66-0.353 1.03l-0.72 23h-2.52l-3.24-22.37c-1.434-9.4-0.042-19.01 4-27.61l22.3 27c2.343 2.88 5.408 5.09 8.883 6.4s7.235 1.68 10.897 1.06l13.85 6.3c2.658 1.23 4.804 3.36 6.07 6z" fill="#21252b"/>
<path class="color3F4249 svgShape" d="m545.72 483.13l-27.64 5.13c-3.507 0.683-6.807 2.173-9.639 4.353-2.831 2.18-5.115 4.99-6.671 8.207-0.824 1.704-1.432 3.505-1.81 5.36l-17.24 83.93c-0.521 2.542-0.469 5.168 0.151 7.688s1.793 4.871 3.434 6.881c1.64 2.01 3.708 3.631 6.053 4.743 2.344 1.112 4.907 1.689 7.502 1.688h52.48l0.39-22.89-38.39-0.66 15.11-78 16.27-26.43z" fill="#3f4249"/>
<path class="colorFC9D9D svgShape" d="m794.28 482l-14.25 15 1-0.62c0.628-0.401 1.381-0.56 2.117-0.445 0.736 0.114 1.406 0.493 1.883 1.065 0.405 0.506 0.627 1.133 0.63 1.78 4e-3 0.439-0.088 0.873-0.269 1.272s-0.448 0.753-0.781 1.038l-0.42 0.31c0.292-0.241 0.63-0.42 0.994-0.525s0.746-0.133 1.122-0.083c0.375 0.05 0.736 0.176 1.061 0.372 0.324 0.196 0.604 0.457 0.823 0.766 0.311 0.467 0.491 1.01 0.52 1.57-6e-3 0.752-0.308 1.47-0.84 2l-1.25 1.15c0.278-0.26 0.61-0.458 0.971-0.58 0.362-0.121 0.745-0.163 1.125-0.123 0.379 0.039 0.746 0.16 1.074 0.354 0.329 0.194 0.612 0.456 0.83 0.769 0.322 0.42 0.504 0.931 0.52 1.46-1e-3 0.618-0.224 1.215-0.63 1.68l-4.5 5.45-1.57 2c-4.21 5.232-9.854 9.124-16.24 11.2l-4.81 1.57-28.91 22-10.89-17.81 28.8-18 19.79-22 19.38-15.71c0.423-0.345 0.962-0.516 1.507-0.477 0.544 0.039 1.053 0.285 1.423 0.687 0.197 0.192 0.354 0.42 0.462 0.672 0.108 0.253 0.165 0.524 0.168 0.798-0.131 0.544-0.424 1.036-0.84 1.41z" fill="#fc9d9d"/>
<path class="color000 svgShape" d="m765 525.32l-4.19 1.36c-0.456 0.12-0.882 0.335-1.25 0.63l-28.7 20.84 3.35 4.4 28.91-22 4.81-1.57c6.387-2.076 12.03-5.968 16.24-11.2l1.57-2 4.5-5.45c0.406-0.465 0.63-1.062 0.63-1.68l-6.6 6.71c-4.27 5.35-12.93 7.86-19.27 9.96z" opacity=".15"/>
<path class="change-color-in-svg color4D61FC svgShape" d="m527.2 642.8l-0.68 2.81c-11.299 44.818-16.738 90.913-16.18 137.13l-1.52 57.85 139.26 9.19-25.71-206.78-95.17-0.2z" fill="#ffdb6f"/>
<path class="color231F20 svgShape" d="m523.91 656.9l2.71-12.94h96.18l1.36 13.41-100.25-0.47z" fill="#231f20"/>
<path class="color000 svgShape" d="m584.75 657.14c16.32 0 26 9.34 28.11 21.63l17.59 169.85 17.63 1.16-23.92-192.41-39.41-0.23z" opacity=".2"/>
<path class="color3F4249 svgShape" d="m683.31 580.7l-51.53-40.32c0.334 2.319 0.524 4.657 0.57 7 4e-3 2.053-0.282 4.096-0.85 6.07-1.07 3.57-2.992 6.827-5.6 9.49l-2.9 3.15c-0.28 0.288-0.5 0.629-0.646 1.003-0.146 0.375-0.216 0.775-0.204 1.177l0.28 75.81-95.81-0.08-7.36-105-1.93-36.52c0-6.65 8.58-16.13 18.64-17.55l14.59-2.75c7.79 7.49 34.07 8.82 50.1 1.42l13.38 3c7.78 2 13 5.41 18.22 10.34l61.74 53.87 38.71-22.2 11.57 15.75-45 36.34c-2.289 1.762-5.096 2.717-7.985 2.717s-5.696-0.955-7.985-2.717z" fill="#3f4249"/>
<path class="color000 svgShape" d="m623 566.09c-0.28 0.288-0.5 0.629-0.646 1.004-0.146 0.374-0.215 0.774-0.204 1.176l0.28 75.81h-6.3l-0.82-69.47c-0.023-2.002 0.669-3.946 1.953-5.483 1.283-1.536 3.073-2.564 5.047-2.897l0.69-0.14z" opacity=".3"/>
<path class="colorfff svgShape" d="m575.32 625.61l-1.95 0.3-0.86 1.77-0.88-1.76-1.94-0.27 1.4-1.39-0.35-1.93 1.75 0.9 1.73-0.92-0.32 1.94 1.42 1.36zm29.67-19.899l-1.94 0.29-0.86 1.77-0.88-1.76-1.95-0.27 1.4-1.38-0.34-1.94 1.74 0.91 1.74-0.93-0.32 1.94 1.41 1.37zm-66.96 0.35l-1.94 0.29-0.86 1.77-0.88-1.76-1.95-0.27 1.4-1.38-0.34-1.94 1.74 0.91 1.74-0.93-0.32 1.94 1.41 1.37zm34.3-13.131l-1.95 0.3-0.86 1.76-0.88-1.75-1.95-0.28 1.4-1.38-0.34-1.93 1.75 0.9 1.73-0.92-0.32 1.94 1.42 1.36zm-35.58 46.99l-1.94 0.29-0.86 1.77-0.88-1.76-1.95-0.27 1.4-1.38-0.34-1.94 1.74 0.91 1.74-0.93-0.32 1.94 1.41 1.37zm2.221-78.64l-1.94 0.29-0.86 1.77-0.88-1.76-1.95-0.27 1.4-1.38-0.34-1.93 1.74 0.9 1.74-0.92-0.33 1.93 1.42 1.37zm20.949-10.469l-1.95 0.29-0.86 1.77-0.88-1.76-1.94-0.27 1.4-1.38-0.35-1.94 1.75 0.91 1.73-0.93-0.32 1.94 1.42 1.37zm31.421 20.939l-1.95 0.3-0.86 1.77-0.88-1.76-1.94-0.27 1.4-1.39-0.35-1.93 1.75 0.9 1.73-0.92-0.32 1.94 1.42 1.36zm20.949-31.42l-1.95 0.3-0.86 1.76-0.88-1.75-1.95-0.27 1.4-1.38-0.34-1.94 1.75 0.9 1.73-0.92-0.32 1.94 1.42 1.36zm-31.42-20.939l-1.95 0.29-0.86 1.77-0.88-1.76-1.95-0.27 1.4-1.38-0.34-1.94 1.741 0.91 1.74-0.93-0.32 1.94 1.419 1.37zm-41.899 0l-1.94 0.29-0.86 1.77-0.88-1.76-1.95-0.27 1.4-1.38-0.34-1.94 1.74 0.91 1.74-0.93-0.33 1.94 1.42 1.37zm0-25.141l-1.94 0.29-0.86 1.77-0.88-1.76-1.95-0.27 1.4-1.38-0.34-1.94 1.74 0.91 1.74-0.93-0.33 1.94 1.42 1.37zm-31.42 31.42l-1.94 0.29-0.86 1.77-0.88-1.76-1.95-0.27 1.4-1.38-0.34-1.93 1.74 0.9 1.74-0.92-0.33 1.94 1.42 1.36zm10.47 31.42l-1.94 0.29-0.86 1.77-0.88-1.76-1.95-0.27 1.4-1.38-0.34-1.93 1.74 0.9 1.74-0.92-0.32 1.94 1.41 1.36zm-20.941 20.95l-1.95 0.29-0.86 1.77-0.88-1.76-1.95-0.27 1.41-1.38-0.35-1.94 1.75 0.91 1.73-0.93-0.32 1.94 1.42 1.37zm10.471 20.941l-1.94 0.3-0.86 1.77-0.88-1.76-1.95-0.27 1.4-1.38-0.34-1.94 1.74 0.91 1.74-0.93-0.33 1.94 1.42 1.36zm104.74-98.451l-1.95 0.299-0.86 1.771-0.88-1.76-1.95-0.27 1.4-1.38-0.34-1.94 1.75 0.899 1.73-0.919-0.32 1.94 1.42 1.36zm29.32 20.951l-1.94 0.29-0.86 1.77-0.88-1.76-1.95-0.27 1.4-1.38-0.349-1.93 1.75 0.9 1.74-0.92-0.32 1.94 1.409 1.36zm-27.23 113.11l-1.94 0.3-0.86 1.77-0.88-1.76-1.95-0.27 1.4-1.38-0.35-1.94 1.75 0.91 1.74-0.93-0.33 1.94 1.42 1.36zm52.37-101.59l-1.95 0.3-0.86 1.76-0.88-1.75-1.94-0.28 1.39-1.38-0.34-1.93 1.75 0.9 1.73-0.92-0.32 1.94 1.42 1.36zm0 26.18l-1.95 0.3-0.86 1.77-0.88-1.76-1.94-0.27 1.39-1.38-0.34-1.94 1.75 0.91 1.73-0.93-0.32 1.94 1.42 1.36zm20.951 10.481l-1.95 0.29-0.86 1.77-0.88-1.76-1.95-0.27 1.4-1.38-0.34-1.94 1.75 0.91 1.73-0.93-0.32 1.94 1.42 1.37zm23.04 0l-1.95 0.29-0.86 1.77-0.88-1.76-1.95-0.27 1.4-1.38-0.34-1.94 1.75 0.91 1.73-0.93-0.32 1.94 1.42 1.37zm20.94-25.141l-1.94 0.3-0.86 1.77-0.88-1.76-1.95-0.28 1.4-1.38-0.34-1.93 1.74 0.9 1.74-0.92-0.32 1.94 1.41 1.36z" fill="#fff"/>
<path class="color000 svgShape" d="m522.68 587.65l-8.34-0.12 6.11-31.53-0.15 0.09c-1.02 0.622-1.902 1.447-2.59 2.424-0.688 0.978-1.168 2.086-1.41 3.256l-5.76 28c-0.032 0.148-0.03 0.301 6e-3 0.447 0.036 0.147 0.105 0.284 0.201 0.4 0.096 0.117 0.217 0.21 0.355 0.273 0.137 0.062 0.287 0.093 0.438 0.09h11.37l-0.23-3.33z" opacity=".3"/>
<path class="color000 svgShape" d="m524.58 586.78l-4.12-30.83 6.16 88.01h3.33l-5.37-57.18z" opacity=".3"/>
</svg>
</svg>
