<?xml version="1.0" encoding="UTF-8"?>
<svg version="1.1" viewBox="0 0 288 288" xmlns="http://www.w3.org/2000/svg">
<g transform="matrix(.9167 0 0 .9167 12.002 12.013)">
<svg class="gridItem__media" width="288" height="288" enable-background="new 0 0 1600 1200" viewBox="0 0 1600 1200" xmlns="http://www.w3.org/2000/svg">
<path class="colorF4F4F4 svgShape" d="m207.48 1087.3l-47.36-580.52c-1.201-14.782 2.909-29.507 11.59-41.53l236.3-327c6.312-8.756 14.792-15.72 24.608-20.209 9.816-4.49 20.63-6.351 31.382-5.401l809 71.33c12.8 1.128 24.94 6.191 34.75 14.493s16.82 19.437 20.05 31.877l111.14 427.77c2.72 10.501 2.66 21.533-0.2 32l-108.76 398.59-1122.5-1.4z" fill="#f4f4f4"/>
<path class="colorfff svgShape colorStrokeB2B6BB svgStroke" d="m1141 298.88h-762.97v571.12h762.97v-571.12z" fill="#fff" stroke="#b2b6bb" stroke-miterlimit="10" stroke-width="1.94"/>
<path class="change-color-in-svg color4D61FC svgShape" d="m1140.6 298.66h-763.08v52.33h763.08v-52.33z" fill="#ffdb6f"/>
<path class="colorDADDDF svgShape" d="m907.6 386.45h-492.96v357.9h492.96v-357.9z" fill="#fff"/>
<path class="change-color-in-svg color4D61FC svgShape" d="m661.12 602.12c20.28 0 36.72-16.44 36.72-36.72s-16.44-36.72-36.72-36.72c-20.279 0-36.72 16.44-36.72 36.72s16.441 36.72 36.72 36.72z" fill="#ffdb6f"/>
<path class="colorfff svgShape" d="m675.66 566.4l-23.389-13.51v27.01l23.389-13.5z" fill="#fff"/>
<path class="change-color-in-svg color4D61FC svgShape" d="m1115.3 388h-183.03v75.03h183.03v-75.03z" fill="#ffdb6f"/>
<path class="colorfff svgShape" d="m1115.3 388h-183.03v75.03h183.03v-75.03z" fill="#fff" opacity=".6"/>
<path class="colorfff svgShape" d="m1010.2 400.37h-65.962v50.29h65.962v-50.29z" fill="#fff"/>
<path class="colorF4F4F4 svgShape" d="m1100.1 405.05h-76.67c-0.15 0.034-0.3 0.034-0.44 0-0.15-0.033-0.29-0.099-0.41-0.193-0.11-0.094-0.21-0.213-0.27-0.348-0.07-0.135-0.1-0.284-0.1-0.434s0.03-0.298 0.1-0.434c0.06-0.135 0.16-0.254 0.27-0.348 0.12-0.093 0.26-0.159 0.41-0.193 0.14-0.033 0.29-0.033 0.44 0h76.67c0.15-0.033 0.3-0.033 0.45 0 0.14 0.034 0.28 0.1 0.4 0.193 0.11 0.094 0.21 0.213 0.27 0.348 0.07 0.136 0.1 0.284 0.1 0.434s-0.03 0.299-0.1 0.434c-0.06 0.135-0.16 0.254-0.27 0.348-0.12 0.094-0.26 0.16-0.4 0.193-0.15 0.034-0.3 0.034-0.45 0zm0.42 13.201h-76.68c-0.26 0-0.52-0.105-0.71-0.293-0.18-0.187-0.29-0.442-0.29-0.707s0.11-0.52 0.29-0.707c0.19-0.188 0.45-0.293 0.71-0.293h76.68c0.27 0 0.52 0.105 0.71 0.293 0.19 0.187 0.29 0.442 0.29 0.707s-0.1 0.52-0.29 0.707c-0.19 0.188-0.44 0.293-0.71 0.293zm-32.98 13.189h-43.7c-0.26 0-0.52-0.105-0.71-0.292-0.18-0.188-0.29-0.442-0.29-0.708 0-0.265 0.11-0.519 0.29-0.707 0.19-0.187 0.45-0.293 0.71-0.293h43.7c0.27 0 0.52 0.106 0.71 0.293 0.19 0.188 0.29 0.442 0.29 0.707 0 0.266-0.1 0.52-0.29 0.708-0.19 0.187-0.44 0.292-0.71 0.292z" fill="#f4f4f4"/>
<path class="colorDADDDF svgShape" d="m974 405.52h6.469l17.471 40h-7.37l-4-9.59h-18.82l-4.091 9.59h-7.139l17.48-40zm10 24.22l-6.87-15.88-6.8 15.88h13.67z" fill="#fff"/>
<path class="change-color-in-svg color4D61FC svgShape" d="m1115.3 488.6h-183.03v75.03h183.03v-75.03z" fill="#ffdb6f"/>
<path class="colorfff svgShape" d="m1115.3 488.6h-183.03v75.03h183.03v-75.03z" fill="#fff" opacity=".6"/>
<path class="colorfff svgShape" d="m1010.2 500.97h-65.962v50.29h65.962v-50.29z" fill="#fff"/>
<path class="colorF4F4F4 svgShape" d="m1100.1 505.66h-76.67c-0.26 0-0.52-0.105-0.71-0.293-0.18-0.187-0.29-0.442-0.29-0.707s0.11-0.519 0.29-0.707c0.19-0.188 0.45-0.293 0.71-0.293h76.67c0.27 0 0.52 0.105 0.71 0.293s0.29 0.442 0.29 0.707-0.1 0.52-0.29 0.707c-0.19 0.188-0.44 0.293-0.71 0.293zm0.42 13.19h-76.68c-0.26 0-0.52-0.106-0.71-0.293-0.18-0.188-0.29-0.442-0.29-0.707 0-0.266 0.11-0.52 0.29-0.707 0.19-0.188 0.45-0.293 0.71-0.293h76.68c0.27 0 0.52 0.105 0.71 0.293 0.19 0.187 0.29 0.441 0.29 0.707 0 0.265-0.1 0.519-0.29 0.707-0.19 0.187-0.44 0.293-0.71 0.293zm-32.98 13.15h-43.7c-0.15 0.034-0.3 0.034-0.44 0-0.15-0.033-0.29-0.099-0.41-0.193-0.11-0.094-0.21-0.212-0.27-0.348-0.07-0.135-0.1-0.283-0.1-0.434 0-0.15 0.03-0.298 0.1-0.433 0.06-0.136 0.16-0.255 0.27-0.348 0.12-0.094 0.26-0.16 0.41-0.193 0.14-0.034 0.29-0.034 0.44-1e-3h43.7c0.22 0.051 0.42 0.175 0.56 0.352s0.22 0.397 0.22 0.623c0 0.227-0.08 0.447-0.22 0.624s-0.34 0.301-0.56 0.351z" fill="#f4f4f4"/>
<path class="colorDADDDF svgShape" d="m974 506.12h6.469l17.471 40h-7.37l-4-9.59h-18.82l-4.091 9.59h-7.139l17.48-40zm10 24.22l-6.87-15.88-6.8 15.88h13.67z" fill="#fff"/>
<path class="change-color-in-svg color4D61FC svgShape" d="m1115.3 589.21h-183.03v75.03h183.03v-75.03z" fill="#ffdb6f"/>
<path class="colorfff svgShape" d="m1115.3 589.21h-183.03v75.03h183.03v-75.03z" fill="#fff" opacity=".6"/>
<path class="colorfff svgShape" d="m1010.2 601.57h-65.962v50.29h65.962v-50.29z" fill="#fff"/>
<path class="colorF4F4F4 svgShape" d="m1100.1 606.26h-76.67c-0.26 0-0.52-0.106-0.71-0.293-0.18-0.188-0.29-0.442-0.29-0.707s0.11-0.52 0.29-0.707c0.19-0.188 0.45-0.293 0.71-0.293h76.67c0.27 0 0.52 0.105 0.71 0.293 0.19 0.187 0.29 0.442 0.29 0.707s-0.1 0.519-0.29 0.707c-0.19 0.187-0.44 0.293-0.71 0.293zm0.42 13.189h-76.68c-0.26 0-0.52-0.105-0.71-0.293-0.18-0.187-0.29-0.442-0.29-0.707s0.11-0.519 0.29-0.707c0.19-0.187 0.45-0.293 0.71-0.293h76.68c0.27 0 0.52 0.106 0.71 0.293 0.19 0.188 0.29 0.442 0.29 0.707s-0.1 0.52-0.29 0.707c-0.19 0.188-0.44 0.293-0.71 0.293zm-32.98 13.19h-43.7c-0.15 0.033-0.3 0.033-0.44 0-0.15-0.034-0.29-0.1-0.41-0.193-0.11-0.094-0.21-0.213-0.27-0.348-0.07-0.135-0.1-0.284-0.1-0.434s0.03-0.298 0.1-0.434c0.06-0.135 0.16-0.254 0.27-0.348 0.12-0.093 0.26-0.159 0.41-0.193 0.14-0.033 0.29-0.033 0.44 0h43.7c0.22 0.05 0.42 0.174 0.56 0.351 0.14 0.178 0.22 0.397 0.22 0.624s-0.08 0.447-0.22 0.624-0.34 0.301-0.56 0.351z" fill="#f4f4f4"/>
<path class="colorDADDDF svgShape" d="m974 606.73h6.469l17.471 40h-7.37l-4-9.579h-18.82l-4.091 9.579h-7.139l17.48-40zm10 24.27l-6.87-15.88-6.831 15.88h13.701z" fill="#fff"/>
<path class="change-color-in-svg color4D61FC svgShape" d="m1115.3 689.81h-183.03v75.03h183.03v-75.03z" fill="#ffdb6f"/>
<path class="colorfff svgShape" d="m1115.3 689.81h-183.03v75.03h183.03v-75.03z" fill="#fff" opacity=".6"/>
<path class="colorfff svgShape" d="m1010.2 702.18h-65.962v50.29h65.962v-50.29z" fill="#fff"/>
<path class="colorF4F4F4 svgShape" d="m1100.1 706.87h-76.67c-0.26 0-0.52-0.105-0.71-0.293-0.18-0.187-0.29-0.442-0.29-0.707s0.11-0.519 0.29-0.707c0.19-0.187 0.45-0.293 0.71-0.293h76.67c0.27 0 0.52 0.106 0.71 0.293 0.19 0.188 0.29 0.442 0.29 0.707s-0.1 0.52-0.29 0.707c-0.19 0.188-0.44 0.293-0.71 0.293zm0.42 13.192h-76.68c-0.26 0-0.52-0.106-0.71-0.293-0.18-0.188-0.29-0.442-0.29-0.707 0-0.266 0.11-0.52 0.29-0.708 0.19-0.187 0.45-0.292 0.71-0.292h76.68c0.27 0 0.52 0.105 0.71 0.292 0.19 0.188 0.29 0.442 0.29 0.708 0 0.265-0.1 0.519-0.29 0.707-0.19 0.187-0.44 0.293-0.71 0.293zm-32.98 13.189h-43.7c-0.26 0-0.52-0.105-0.71-0.293-0.18-0.187-0.29-0.442-0.29-0.707s0.11-0.52 0.29-0.707c0.19-0.188 0.45-0.293 0.71-0.293h43.7c0.27 0 0.52 0.105 0.71 0.293 0.19 0.187 0.29 0.442 0.29 0.707s-0.1 0.52-0.29 0.707c-0.19 0.188-0.44 0.293-0.71 0.293z" fill="#f4f4f4"/>
<path class="colorDADDDF svgShape" d="m974 707.33h6.469l17.471 40h-7.37l-4-9.59h-18.82l-4.091 9.59h-7.139l17.48-40zm10 24.22l-6.87-15.88-6.8 15.88h13.67z" fill="#fff"/>
<path class="change-color-in-svg color4D61FC svgShape" d="m452.55 839.54c18.369 0 33.26-14.89 33.26-33.259s-14.891-33.26-33.26-33.26-33.26 14.891-33.26 33.26 14.891 33.259 33.26 33.259z" fill="#ffdb6f"/>
<path class="colorDADDDF svgShape" d="m469.67 821.61c0-10.92-7.66-19.77-17.12-19.77s-17.11 8.85-17.11 19.77c5.102 3.29 11.045 5.04 17.115 5.04 6.071 0 12.013-1.75 17.115-5.04z" fill="#fff"/>
<path class="colorfff svgShape" d="m452.55 804.51c5.136 0 9.3-4.164 9.3-9.3s-4.164-9.3-9.3-9.3-9.3 4.164-9.3 9.3 4.164 9.3 9.3 9.3z" fill="#fff"/>
<path class="colorB2B6BB svgShape" d="m787.85 773.33h-279.57v5h279.57v-5zm-100.56 22.369h-179.29v5h179.29v-5z" fill="#b2b6bb"/>
<path class="change-color-in-svg color4D61FC svgShape" d="m519.34 817.65l3.51 7.1 7.84 1.14-5.68 5.53 1.34 7.8-7.01-3.68-7.01 3.68 1.34-7.8-5.67-5.53 7.84-1.14 3.5-7.1zm38.94 0l3.5 7.1 7.84 1.14-5.67 5.53 1.34 7.8-7.01-3.68-7.01 3.68 1.34-7.8-5.68-5.53 7.84-1.14 3.51-7.1zm38.931 0l3.51 7.1 7.84 1.14-5.68 5.53 1.34 7.8-7.01-3.68-7.01 3.68 1.34-7.8-5.67-5.53 7.84-1.14 3.5-7.1zm38.938 0l3.5 7.1 7.84 1.14-5.67 5.53 1.34 7.8-7.01-3.68-7.01 3.68 1.34-7.8-5.67-5.53 7.83-1.14 3.51-7.1z" fill="#ffdb6f"/>
<path class="colorDADDDF svgShape" d="m675.08 817.65l3.51 7.1 7.84 1.14-5.68 5.53 1.34 7.8-7.01-3.68-7.01 3.68 1.34-7.8-5.67-5.53 7.84-1.14 3.5-7.1z" fill="#fff"/>
<path class="change-color-in-svg color4D61FC svgShape" d="m674.98 835.54l-7.01 3.68 1.33-7.8-5.67-5.53 7.84-1.14 3.51-7.1v17.89z" fill="#ffdb6f"/>
<path class="colorfff svgShape" d="m410.21 332.64c4.314 0 7.81-3.497 7.81-7.81 0-4.314-3.496-7.81-7.81-7.81-4.313 0-7.81 3.496-7.81 7.81 0 4.313 3.497 7.81 7.81 7.81zm28.911 0c4.313 0 7.81-3.497 7.81-7.81 0-4.314-3.497-7.81-7.81-7.81-4.314 0-7.81 3.496-7.81 7.81 0 4.313 3.496 7.81 7.81 7.81zm28.91 0c4.313 0 7.81-3.497 7.81-7.81 0-4.314-3.497-7.81-7.81-7.81-4.314 0-7.81 3.496-7.81 7.81 0 4.313 3.496 7.81 7.81 7.81z" fill="#fff"/>
<path class="colorB2B6BB svgShape" d="m1368.4 1090h-1193c-0.398 0-0.779-0.16-1.061-0.44-0.281-0.28-0.439-0.66-0.439-1.06s0.158-0.78 0.439-1.06c0.282-0.28 0.663-0.44 1.061-0.44h1193c0.4 0 0.78 0.16 1.06 0.44s0.44 0.66 0.44 1.06-0.16 0.78-0.44 1.06-0.66 0.44-1.06 0.44z" fill="#b2b6bb"/>
<path class="colorfff svgShape" d="m879.16 920.3h247.08c4.95 0 9.85 0.975 14.42 2.87 4.58 1.895 8.73 4.672 12.23 8.173s6.28 7.657 8.17 12.231 2.86 9.476 2.86 14.426v17.84c0 10.221-4.06 20.024-11.29 27.249-7.23 7.23-17.03 11.29-27.25 11.29h-246.22v-94.079z" fill="#fff"/>
<path class="colorB2B6BB svgShape" d="m1376.3 959v14.15c0.03 7.238-1.77 14.367-5.22 20.73-6.67 12.249-19.08 20.479-33.29 20.479h-466.26c-0.761-0.03-1.51-0.2-2.202-0.52-0.693-0.31-1.317-0.76-1.835-1.32-0.519-0.56-0.922-1.21-1.187-1.93-0.265-0.71-0.386-1.47-0.356-2.23v-2.12c-0.028-0.76 0.094-1.52 0.359-2.23s0.669-1.37 1.187-1.93c0.518-0.55 1.141-1 1.833-1.32s1.44-0.49 2.201-0.52h284.23c1.54-2.003 2.88-4.154 4-6.419 2.76-5.597 4.19-11.759 4.17-18v-18c0-3.225-0.38-6.438-1.15-9.57-1.23-5.063-3.47-9.825-6.59-14h-284.66c-0.761-0.027-1.509-0.204-2.201-0.52-0.692-0.317-1.315-0.766-1.833-1.324-0.518-0.557-0.922-1.211-1.187-1.924s-0.387-1.472-0.359-2.232v-2.11c-0.028-0.761 0.094-1.519 0.359-2.233 0.265-0.713 0.669-1.367 1.187-1.924s1.141-1.007 1.833-1.323c0.692-0.317 1.44-0.493 2.201-0.52h468.61c16.52 0 30.44 11.85 34.77 28 0.95 3.541 1.41 7.194 1.39 10.86z" fill="#b2b6bb"/>
<path class="color000 svgShape" d="m1374.9 948.34h-212.14c-1.23-5.063-3.47-9.825-6.59-14h-284.65c-0.76-0.028-1.508-0.204-2.2-0.521-0.692-0.316-1.315-0.766-1.834-1.323-0.518-0.557-0.921-1.211-1.186-1.924-0.266-0.713-0.388-1.472-0.36-2.232v-2.111c-0.028-0.76 0.094-1.519 0.36-2.232 0.265-0.713 0.668-1.367 1.186-1.924 0.519-0.558 1.142-1.007 1.834-1.323 0.692-0.317 1.44-0.493 2.2-0.521h468.61c16.52 0.07 30.44 11.921 34.77 28.111zm-495.75 18.989l34.52 1.58-34.52 0.96v-2.54zm0 14.76l82.13 1.58-82.13 0.96v-2.54z" opacity=".1"/>
<path class="color868A91 svgShape" d="m1086 1087.3h-247.57c-8.111 0-15.889-3.22-21.624-8.96-5.735-5.73-8.956-13.51-8.956-21.62v-13.88c0-7.61 3.024-14.92 8.408-20.3 5.385-5.39 12.687-8.41 20.301-8.41h249.44v73.17z" fill="#868a91"/>
<path class="colorF4F4F4 svgShape" d="m1351.3 1087.3h-281.3c-7.96 0-15.59-3.16-21.21-8.79-5.63-5.62-8.79-13.25-8.79-21.21v-13.83c0-7.77 3.09-15.23 8.58-20.73 5.5-5.49 12.96-8.58 20.73-8.58h281.99v73.17-0.03z" fill="#f4f4f4"/>
<path class="color868A91 svgShape" d="m1021.1 1087.3h340.25c2.45 0 4.43-1.98 4.43-4.43v-2.08c0-2.45-1.98-4.43-4.43-4.43h-340.25c-2.45 0-4.43 1.98-4.43 4.43v2.08c0 2.45 1.98 4.43 4.43 4.43zm0-62.23h340.25c2.45 0 4.43-1.98 4.43-4.43v-2.08c0-2.45-1.98-4.43-4.43-4.43h-340.25c-2.45 0-4.43 1.98-4.43 4.43v2.08c0 2.45 1.98 4.43 4.43 4.43z" fill="#868a91"/>
<path class="color000 svgShape" d="m1351.3 1050.8l-37.74 1.23 37.74 0.74v-1.97zm0-16.84l-89.78 1.23 89.78 0.74v-1.97z" opacity=".1"/>
<path class="change-color-in-svg color4D61FC svgShape" d="m1262.4 1034.9c2.48 2.21 4.27 5.1 5.12 8.31 0.24 0.95 0.37 1.92 0.4 2.89 0.21 6.87 0 22.4 0 22.4l11.36-7.76 11.33 7.76v-21c0-4-1-7.86-2.78-10.4-0.87-1.23-1.93-2.15-3.14-2.15l-22.29-0.05z" fill="#ffdb6f"/>
<path class="color000 svgShape" d="m1262.4 1034.9c2.48 2.21 4.27 5.1 5.12 8.31l22.76 0.31s-0.89-7.4-5.59-8.62h-22.29z" opacity=".2"/>
<path class="colorfff svgShape" d="m816.69 813h235.45c11.42 0 22.38 4.538 30.46 12.615 8.07 8.077 12.61 19.032 12.61 30.455v20.39c0 11.67-4.63 22.861-12.89 31.113-8.25 8.251-19.44 12.887-31.11 12.887h-234.52v-107.46z" fill="#fff"/>
<path class="color868A91 svgShape" d="m1095.3 854.71v23.14c-0.06 9.88-4.64 18.45-11.37 23-3.29 2.285-7.2 3.519-11.21 3.54h-263.4c-3.09 0-5.589 3-5.589 6.67v2.73c0 3.69 2.499 6.68 5.589 6.68h455c13.06 0 24.59-7.75 31.56-19.62 4.64-8.023 7.06-17.141 7-26.41v-18.22c0.02-6.44-1.2-12.824-3.6-18.8-5.84-14.42-18.23-24.42-32.58-24.42h-457.38c-3.09 0-5.589 3-5.589 6.67v2.73c0 3.69 2.499 6.68 5.589 6.68h264.21c6.31 0 12 3.21 16 8.34 3.76 4.977 5.79 11.051 5.77 17.29z" fill="#868a91"/>
<path class="color000 svgShape" d="m803.77 911.09v2.73c0 3.69 2.499 6.68 5.589 6.68h455c13.06 0 24.59-7.75 31.56-19.62h-211.92c-3.29 2.285-7.2 3.519-11.21 3.54h-263.43c-3.09 0-5.589 2.99-5.589 6.67zm12.921-44.341l33.77 1.81-33.77 1.08v-2.89zm0-24.74l80.33 1.81-80.33 1.08v-2.89z" opacity=".1"/>
<path class="change-color-in-svg color4D61FC svgShape" d="m896.19 843.46s-5.3 3.41-7.05 9c-0.323 1.014-0.508 2.067-0.55 3.13-0.29 7.45 0 24.3 0 24.3l-15.65-8.43-15.62 8.43v-22.83c0-4.32 1.34-8.52 3.83-11.27 0.519-0.668 1.17-1.22 1.914-1.621s1.564-0.643 2.406-0.709h30.72z" fill="#ffdb6f"/>
<path class="color000 svgShape" d="m896.19 843.46s-5.3 3.41-7.05 9l-31.37 0.33s1.229-8 7.699-9.34l30.721 0.01z" opacity=".2"/>
<path class="change-color-in-svg color4D61FC svgShape" d="m292.33 811.78c-1.175 0.013-2.332 0.29-3.386 0.809-1.053 0.519-1.978 1.268-2.704 2.191-9.9 12.72-11.9 39.54-7.82 46.5 4.8 8.2-0.16 11.14 1 18.56 0.94 6 9.4 10.58 12.54 12.09 0.366 0.173 0.765 0.263 1.17 0.263s0.804-0.09 1.17-0.263c3.25-1.57 12.22-6.42 13-12.5 0.93-7.45-4.12-10.24 0.44-18.58 3.87-7.08 1.06-33.83-9.21-46.25-0.76-0.894-1.71-1.608-2.781-2.089s-2.235-0.717-3.409-0.691" fill="#ffdb6f"/>
<path class="colorfff svgShape" d="m292.33 811.78c-1.175 0.013-2.332 0.29-3.386 0.809-1.053 0.519-1.978 1.268-2.704 2.191-9.9 12.72-11.9 39.54-7.82 46.5 4.8 8.2-0.16 11.14 1 18.56 0.94 6 9.4 10.58 12.54 12.09 0.366 0.173 0.765 0.263 1.17 0.263s0.804-0.09 1.17-0.263c3.25-1.57 12.22-6.42 13-12.5 0.93-7.45-4.12-10.24 0.44-18.58 3.87-7.08 1.06-33.83-9.21-46.25-0.76-0.894-1.71-1.608-2.781-2.089s-2.235-0.717-3.409-0.691" fill="#fff" opacity=".4"/>
<path class="change-color-in-svg color4D61FC svgShape" d="m362.21 884.9c-0.883-0.773-1.928-1.339-3.058-1.655-1.13-0.317-2.316-0.377-3.472-0.175-15.84 3-35.12 21.73-36.68 29.64-1.83 9.33-7.5 8.24-11.55 14.56-3.29 5.13 0 14.16 1.38 17.37 0.156 0.373 0.394 0.705 0.697 0.972s0.663 0.461 1.053 0.568c3.48 1 13.41 3.3 18-0.75 5.63-5 3.7-10.39 12.64-13.62 7.58-2.73 23.22-24.62 23.76-40.73 0.025-1.173-0.213-2.336-0.695-3.406-0.483-1.069-1.199-2.017-2.095-2.774m-141.91 17.269c-0.752 0.622-1.356 1.405-1.766 2.291s-0.616 1.852-0.604 2.828c0.32 13.4 13.14 31.731 19.43 34.071 7.41 2.75 5.76 7.259 10.41 11.429 3.77 3.38 11.63 1.871 14.44 1.191 0.327-0.082 0.631-0.235 0.891-0.45 0.259-0.215 0.467-0.485 0.609-0.79 1.27-2.72 4.5-10.56 1.79-14.88-3.31-5.29-8-4.431-9.49-12.201-1.23-6.6-17.11-22.359-30.26-24.949-0.96-0.182-1.948-0.144-2.892 0.108-0.943 0.253-1.818 0.715-2.558 1.352" fill="#ffdb6f"/>
<path class="change-color-in-svg color4D61FC svgShape" d="m339.45 932.11c-0.69-0.493-1.483-0.825-2.319-0.971-0.836-0.145-1.694-0.1-2.511 0.131-11.21 3.26-23.76 18.15-24.32 24-0.66 6.85-4.82 6.47-7.29 11.31-2 3.93 1 10.2 2.23 12.42 0.142 0.257 0.337 0.48 0.574 0.653s0.509 0.291 0.796 0.347c2.58 0.46 9.9 1.42 12.93-1.82 3.71-4 1.93-7.76 8.14-10.71 5.27-2.52 15-19.41 14.22-31-0.063-0.848-0.316-1.671-0.74-2.408-0.424-0.738-1.008-1.37-1.71-1.852m-83.817-80.34c-0.932 0.289-1.787 0.783-2.504 1.446-0.716 0.662-1.275 1.477-1.636 2.384-4.81 12.51 0.06 34.35 5 38.91 5.8 5.37 2.56 8.91 5.26 14.53 2.2 4.57 10 6.16 12.91 6.6 0.332 0.049 0.67 0.024 0.99-0.075s0.614-0.268 0.86-0.495c2.21-2 8.19-8 7.33-13.08-1.05-6.15-5.74-7.16-4.12-14.9 1.37-6.56-7.31-27.18-18.48-34.6-0.82-0.53-1.749-0.87-2.718-0.995-0.969-0.124-1.954-0.03-2.882 0.275m77.849 2.951c-0.863-0.458-1.818-0.716-2.794-0.756s-1.949 0.14-2.846 0.526c-12.25 5.45-24.25 24.34-24 31 0.31 7.9-4.49 8.11-6.55 14-1.67 4.78 2.74 11.45 4.46 13.79 0.198 0.27 0.455 0.493 0.751 0.65 0.296 0.158 0.624 0.247 0.959 0.26 3 0.13 11.49 0.09 14.43-4.07 3.61-5.09 1-9.12 7.62-13.45 5.61-3.67 14.06-24.39 11.4-37.53-0.204-0.953-0.619-1.849-1.214-2.621s-1.356-1.4-2.226-1.839" fill="#ffdb6f"/>
<path class="colorfff svgShape" d="m255.63 851.87c-0.932 0.289-1.787 0.783-2.504 1.446-0.716 0.662-1.275 1.477-1.636 2.384-4.81 12.51 0.06 34.35 5 38.91 5.8 5.37 2.56 8.91 5.26 14.53 2.2 4.57 10 6.16 12.91 6.6 0.332 0.049 0.67 0.024 0.99-0.075s0.614-0.268 0.86-0.495c2.21-2 8.19-8 7.33-13.08-1.05-6.15-5.74-7.16-4.12-14.9 1.37-6.56-7.31-27.18-18.48-34.6-0.82-0.53-1.749-0.87-2.718-0.995-0.969-0.124-1.954-0.03-2.882 0.275m77.849 2.951c-0.863-0.458-1.818-0.716-2.794-0.756s-1.949 0.14-2.846 0.526c-12.25 5.45-24.25 24.34-24 31 0.31 7.9-4.49 8.11-6.55 14-1.67 4.78 2.74 11.45 4.46 13.79 0.198 0.27 0.455 0.493 0.751 0.65 0.296 0.158 0.624 0.247 0.959 0.26 3 0.13 11.49 0.09 14.43-4.07 3.61-5.09 1-9.12 7.62-13.45 5.61-3.67 14.06-24.39 11.4-37.53-0.204-0.953-0.619-1.849-1.214-2.621s-1.356-1.4-2.226-1.839" fill="#fff" opacity=".2"/>
<path class="change-color-in-svg color4D61FC svgShape" d="m290.14 857.75c-0.971-0.031-1.936 0.155-2.825 0.544s-1.68 0.972-2.315 1.706c-8.63 10.26-11.13 32.49-8 38.4 3.73 7-0.49 9.26 0.24 15.46 0.59 5 7.48 9.1 10.05 10.44 0.297 0.156 0.626 0.244 0.962 0.256 0.335 0.012 0.67-0.051 0.978-0.186 2.75-1.2 10.36-4.95 11.19-10 1-6.16-3.1-8.64 0.95-15.43 3.44-5.76 1.95-28.08-6.2-38.73-0.601-0.769-1.366-1.393-2.24-1.826-0.875-0.432-1.835-0.663-2.81-0.674m-35.872 100.12c-0.627 0.436-1.149 1.008-1.526 1.672-0.377 0.665-0.601 1.406-0.654 2.168-0.62 10.5 8.22 25.66 13 27.89 5.61 2.64 4 6.05 7.4 9.61 2.73 2.89 9 2.22 11.21 1.86 0.26-0.04 0.507-0.14 0.723-0.29s0.397-0.34 0.527-0.57c1.17-2 4.2-8 2.36-11.52-2.24-4.35-6-4-6.62-10.16-0.54-5.23-11.94-18.58-22-21.46-0.739-0.2-1.513-0.232-2.266-0.094s-1.465 0.444-2.084 0.894" fill="#ffdb6f"/>
<path class="color000 svgShape" d="m339.45 932.11c-0.69-0.493-1.483-0.825-2.319-0.971-0.836-0.145-1.694-0.1-2.511 0.131-11.21 3.26-23.76 18.15-24.32 24-0.66 6.85-4.82 6.47-7.29 11.31-2 3.93 1 10.2 2.23 12.42 0.142 0.257 0.337 0.48 0.574 0.653s0.509 0.291 0.796 0.347c2.58 0.46 9.9 1.42 12.93-1.82 3.71-4 1.93-7.76 8.14-10.71 5.27-2.52 15-19.41 14.22-31-0.063-0.848-0.316-1.671-0.74-2.408-0.424-0.738-1.008-1.37-1.71-1.852m-49.307-74.46c-0.971-0.031-1.936 0.155-2.825 0.544s-1.68 0.972-2.315 1.706c-8.63 10.26-11.13 32.49-8 38.4 3.73 7-0.49 9.26 0.24 15.46 0.59 5 7.48 9.1 10.05 10.44 0.297 0.156 0.626 0.244 0.962 0.256 0.335 0.012 0.67-0.051 0.978-0.186 2.75-1.2 10.36-4.95 11.19-10 1-6.16-3.1-8.64 0.95-15.43 3.44-5.76 1.95-28.08-6.2-38.73-0.601-0.769-1.366-1.393-2.24-1.826-0.875-0.432-1.835-0.663-2.81-0.674m-35.872 100.12c-0.627 0.436-1.149 1.008-1.526 1.672-0.377 0.665-0.601 1.406-0.654 2.168-0.62 10.5 8.22 25.66 13 27.89 5.61 2.64 4 6.05 7.4 9.61 2.73 2.89 9 2.22 11.21 1.86 0.26-0.04 0.507-0.14 0.723-0.29s0.397-0.34 0.527-0.57c1.17-2 4.2-8 2.36-11.52-2.24-4.35-6-4-6.62-10.16-0.54-5.23-11.94-18.58-22-21.46-0.739-0.2-1.513-0.232-2.266-0.094s-1.465 0.444-2.084 0.894" opacity=".2"/>
<path class="change-color-in-svg color4D61FC svgShape" d="m291.93 1015.6l-0.79-0.24c0.19-0.64 19.34-63.841 48.42-81.651l0.43 0.7c-28.81 17.65-47.87 80.551-48.06 81.191" fill="#ffdb6f"/>
<path class="change-color-in-svg color4D61FC svgShape" d="m290.7 1015.6c-2.63-16.201-35.26-54.881-35.58-55.271l0.63-0.54c1.35 1.6 33.09 39.25 35.76 55.681l-0.81 0.13z" fill="#ffdb6f"/>
<path class="change-color-in-svg color4D61FC svgShape" d="m291.72 1015.5l-0.82-0.1 3.85-33.252c2.103-18.759 10.14-36.356 22.94-50.23l42.4-45.79 0.61 0.56-42.41 45.79c-12.674 13.748-20.633 31.179-22.72 49.76l-3.85 33.262z" fill="#ffdb6f"/>
<path class="change-color-in-svg color4D61FC svgShape" d="m290.57 1015.6c-0.21-0.76-21.95-77.001-68.86-111.68l0.49-0.67c47.14 34.88 68.95 111.36 69.17 112.13l-0.8 0.22z" fill="#ffdb6f"/>
<path class="change-color-in-svg color4D61FC svgShape" d="m289.93 861.57l-0.82 0.01 1.827 153.87 0.819-0.01-1.826-153.87z" fill="#ffdb6f"/>
<path class="change-color-in-svg color4D61FC svgShape" d="m290.49 965.63c-0.82-48.79 41.23-108.67 41.66-109.27l0.67 0.48c-0.42 0.6-42.32 60.26-41.51 108.77l-0.82 0.02z" fill="#ffdb6f"/>
<path class="change-color-in-svg color4D61FC svgShape" d="m290.49 967.91c-1-18.7-35.1-113-35.45-113.92l0.78-0.28c0.34 0.95 34.47 95.34 35.49 114.15l-0.82 0.05zm1.635-154.07l-0.819 0.031 1.649 43.919 0.819-0.031-1.649-43.919zm-36.043 157.18l-0.323 0.764 12.372 5.224 0.323-0.765-12.372-5.223zm-32.463-54.14l-0.309 0.76 21.585 8.8 0.309-0.76-21.585-8.8z" fill="#ffdb6f"/>
<path class="change-color-in-svg color4D61FC svgShape" d="m252.51 866.82l-0.646 0.506 14.432 18.419 0.646-0.505-14.432-18.42zm44.932 11.707l-7.429 26.395 0.799 0.225 7.429-26.395-0.799-0.225zm19.927-14.51l-3.017 22.135 0.823 0.112 3.016-22.135-0.822-0.112zm17.707 49.979l-0.79-0.21c2-8 5.13-20.1 5.21-20.69h0.82c0 0.42-3.66 14.73-5.24 20.86m-0.918 35.729l-18.395 10.909 0.418 0.705 18.395-10.909-0.418-0.705z" fill="#ffdb6f"/>
<g class="color000 svgShape" opacity=".3">
<path class="color000 svgShape" d="m291.93 1015.6l-0.79-0.24c0.19-0.64 19.34-63.841 48.42-81.651l0.43 0.7c-28.81 17.65-47.87 80.551-48.06 81.191" opacity=".3"/>
<path class="color000 svgShape" d="m290.7 1015.6c-2.63-16.201-35.26-54.881-35.58-55.271l0.63-0.54c1.35 1.6 33.09 39.25 35.76 55.681l-0.81 0.13z" opacity=".3"/>
<path class="color000 svgShape" d="m291.72 1015.5l-0.82-0.1 3.85-33.25c2.103-18.759 10.14-36.356 22.94-50.23l42.4-45.79 0.61 0.56-42.41 45.79c-12.674 13.748-20.633 31.179-22.72 49.76l-3.85 33.26z" opacity=".3"/>
<path class="color000 svgShape" d="m290.57 1015.6c-0.21-0.76-21.95-77.001-68.86-111.68l0.49-0.67c47.14 34.88 68.95 111.36 69.17 112.13l-0.8 0.22z" opacity=".3"/>
<path class="color000 svgShape" d="m289.93 861.57l-0.82 0.01 1.827 153.87 0.819-0.01-1.826-153.87z" opacity=".3"/>
<path class="color000 svgShape" d="m290.49 965.63c-0.82-48.79 41.23-108.67 41.66-109.27l0.67 0.48c-0.42 0.6-42.32 60.26-41.51 108.77l-0.82 0.02z" opacity=".3"/>
<path class="color000 svgShape" d="m290.49 967.91c-1-18.7-35.1-113-35.45-113.92l0.78-0.28c0.34 0.95 34.47 95.34 35.49 114.15l-0.82 0.05zm1.639-154.07l-0.819 0.031 1.648 43.919 0.82-0.031-1.649-43.919zm-36.047 157.18l-0.323 0.764 12.372 5.224 0.323-0.765-12.372-5.223zm-32.463-54.14l-0.309 0.76 21.585 8.8 0.309-0.76-21.585-8.8z" opacity=".3"/>
<path class="color000 svgShape" d="m252.51 866.82l-0.646 0.506 14.432 18.419 0.646-0.505-14.432-18.42zm44.932 11.707l-7.429 26.395 0.799 0.225 7.429-26.395-0.799-0.225zm19.927-14.51l-3.017 22.135 0.823 0.112 3.016-22.135-0.822-0.112zm17.707 49.979l-0.79-0.21c2-8 5.13-20.1 5.21-20.69h0.82c0 0.42-3.66 14.73-5.24 20.86m-0.918 35.729l-18.395 10.909 0.418 0.705 18.395-10.909-0.418-0.705z" opacity=".3"/>
</g>
<path class="color868A91 svgShape" d="m306.51 1086.6h-30c-4.226 0-8.278-1.68-11.267-4.67-2.989-2.98-4.67-7.04-4.673-11.26v-54.18h61.86v54.18c0 4.22-1.678 8.28-4.665 11.26-2.988 2.99-7.04 4.67-11.265 4.67" fill="#868a91"/>
<path class="color606266 svgShape" d="m291.92 1086.6h14.59c2.092 0 4.163-0.41 6.096-1.21s3.689-1.98 5.168-3.46 2.653-3.23 3.453-5.17c0.801-1.93 1.213-4 1.213-6.09v-47.53l-61.69 0.77-0.17 2.64h45.42v45.21s3.3 14.84-14 14.84" fill="#606266"/>
<path class="color868A91 svgShape" d="m323.93 1023.9h-65.66c-0.48 0-0.94-0.19-1.28-0.53-0.339-0.34-0.53-0.8-0.53-1.28v-3.79c-1e-3 -0.24 0.045-0.48 0.135-0.7s0.223-0.42 0.392-0.59c0.168-0.17 0.368-0.3 0.588-0.39s0.456-0.14 0.695-0.14h65.66c0.239 0 0.475 0.05 0.695 0.14s0.42 0.22 0.588 0.39c0.169 0.17 0.302 0.37 0.392 0.59s0.136 0.46 0.135 0.7v3.79c0 0.48-0.191 0.94-0.53 1.28-0.34 0.34-0.8 0.53-1.28 0.53" fill="#868a91"/>
<path class="color606266 svgShape" d="m325.74 1022.1v-3.79c-8e-3 -0.25-0.064-0.49-0.167-0.72-0.102-0.22-0.248-0.43-0.429-0.6-0.182-0.17-0.394-0.3-0.627-0.38-0.232-0.09-0.479-0.13-0.727-0.12h-13v7.42h13c0.247 0.01 0.493-0.03 0.725-0.12 0.232-0.08 0.444-0.21 0.625-0.38s0.328-0.37 0.43-0.6c0.103-0.22 0.161-0.46 0.17-0.71" fill="#606266"/>
<path class="change-color-in-svg color4D61FC svgShape" d="M440 426.01H288V484H440V426.01Z" fill="#ffdb6f"/>
<path class="change-color-in-svg color4D61FC svgShape" d="m424 500v-20h-17l17 20z" fill="#ffdb6f"/>
<path class="color000 svgShape" d="m332.64 459.12h10.707v2.436h-13.702v-22.594h2.995v20.158zm20.623 2.746c-2.276 0-4.128-0.745-5.556-2.234-1.427-1.5-2.141-3.502-2.141-6.006v-0.527c0-1.666 0.316-3.15 0.947-4.454 0.641-1.314 1.531-2.338 2.669-3.072 1.148-0.745 2.389-1.118 3.724-1.118 2.183 0 3.879 0.719 5.09 2.157 1.21 1.438 1.815 3.497 1.815 6.176v1.195h-11.374c0.041 1.655 0.522 2.995 1.443 4.019 0.931 1.014 2.11 1.521 3.538 1.521 1.014 0 1.872-0.207 2.576-0.621 0.703-0.414 1.319-0.962 1.846-1.645l1.754 1.366c-1.407 2.162-3.517 3.243-6.331 3.243zm-0.357-15.052c-1.159 0-2.131 0.424-2.917 1.273-0.787 0.837-1.273 2.017-1.459 3.538h8.41v-0.218c-0.082-1.458-0.475-2.586-1.179-3.383-0.703-0.806-1.655-1.21-2.855-1.21zm20.607 14.742c-0.165-0.331-0.3-0.921-0.403-1.769-1.335 1.386-2.928 2.079-4.78 2.079-1.655 0-3.015-0.465-4.081-1.396-1.055-0.942-1.583-2.132-1.583-3.569 0-1.749 0.662-3.104 1.987-4.066 1.334-0.973 3.207-1.459 5.617-1.459h2.793v-1.319c0-1.003-0.3-1.8-0.9-2.389-0.6-0.6-1.484-0.9-2.653-0.9-1.024 0-1.883 0.258-2.576 0.775-0.693 0.518-1.04 1.144-1.04 1.878h-2.886c0-0.838 0.295-1.645 0.884-2.421 0.6-0.786 1.407-1.407 2.421-1.862 1.024-0.455 2.147-0.683 3.367-0.683 1.935 0 3.45 0.487 4.547 1.459 1.097 0.962 1.666 2.291 1.707 3.988v7.728c0 1.541 0.196 2.767 0.59 3.677v0.249h-3.011zm-4.764-2.188c0.9 0 1.754-0.233 2.561-0.698 0.807-0.466 1.391-1.071 1.753-1.816v-3.445h-2.25c-3.517 0-5.276 1.029-5.276 3.088 0 0.9 0.3 1.604 0.9 2.11 0.6 0.507 1.371 0.761 2.312 0.761zm19.801-12.026c-0.435-0.073-0.905-0.109-1.412-0.109-1.883 0-3.161 0.802-3.833 2.405v11.918h-2.871v-16.79h2.793l0.047 1.939c0.941-1.5 2.276-2.25 4.003-2.25 0.559 0 0.983 0.073 1.273 0.218v2.669zm5.369-2.576l0.093 2.11c1.283-1.614 2.959-2.421 5.028-2.421 3.548 0 5.338 2.002 5.369 6.006v11.095h-2.871v-11.111c-0.01-1.21-0.29-2.105-0.838-2.684-0.538-0.58-1.381-0.869-2.529-0.869-0.931 0-1.749 0.248-2.452 0.745-0.704 0.496-1.252 1.148-1.645 1.955v11.964h-2.871v-16.79h2.716z"/>
<path class="change-color-in-svg color4D61FC svgShape" d="M856 636H1008V578.01H856V636Z" fill="#ffdb6f"/>
<path class="change-color-in-svg color4D61FC svgShape" d="m872 652v-20h17l-17 20z" fill="#ffdb6f"/>
<path class="color000 svgShape" d="m913.79 613.55h-2.994v-10.444h-11.39v10.444h-2.98v-22.594h2.98v9.714h11.39v-9.714h2.994v22.594zm11.809 0.31c-2.276 0-4.127-0.745-5.555-2.234-1.428-1.5-2.141-3.502-2.141-6.006v-0.527c0-1.666 0.315-3.15 0.946-4.454 0.642-1.314 1.531-2.338 2.669-3.072 1.148-0.745 2.39-1.118 3.724-1.118 2.183 0 3.88 0.719 5.09 2.157 1.211 1.438 1.816 3.497 1.816 6.176v1.195h-11.375c0.042 1.655 0.523 2.995 1.443 4.019 0.932 1.014 2.111 1.521 3.538 1.521 1.014 0 1.873-0.207 2.576-0.621 0.704-0.414 1.319-0.962 1.847-1.645l1.753 1.366c-1.406 2.162-3.517 3.243-6.331 3.243zm-0.357-15.052c-1.158 0-2.131 0.424-2.917 1.273-0.786 0.837-1.272 2.017-1.459 3.538h8.411v-0.218c-0.083-1.458-0.476-2.586-1.179-3.383-0.704-0.806-1.656-1.21-2.856-1.21zm13.361 14.742h-2.871v-23.835h2.871v23.835zm7.728 0h-2.871v-23.835h2.871v23.835zm3.848-8.55c0-1.645 0.321-3.125 0.962-4.438 0.652-1.314 1.552-2.328 2.7-3.042 1.159-0.714 2.478-1.071 3.957-1.071 2.287 0 4.133 0.792 5.54 2.375 1.417 1.582 2.126 3.688 2.126 6.315v0.202c0 1.635-0.316 3.103-0.947 4.407-0.62 1.293-1.515 2.302-2.684 3.026-1.159 0.724-2.493 1.086-4.004 1.086-2.276 0-4.122-0.791-5.539-2.374-1.407-1.583-2.111-3.678-2.111-6.285v-0.201zm2.886 0.341c0 1.862 0.43 3.357 1.288 4.485 0.869 1.127 2.028 1.691 3.476 1.691 1.459 0 2.618-0.569 3.476-1.707 0.859-1.148 1.288-2.752 1.288-4.81 0-1.842-0.439-3.332-1.319-4.469-0.869-1.149-2.027-1.723-3.476-1.723-1.417 0-2.56 0.564-3.429 1.691-0.869 1.128-1.304 2.742-1.304 4.842zm19.211 1.831h-2.591l-0.202-16.216h3.01l-0.217 16.216zm-2.902 4.935c0-0.466 0.14-0.854 0.419-1.164 0.29-0.321 0.714-0.481 1.273-0.481 0.558 0 0.983 0.16 1.272 0.481 0.29 0.31 0.435 0.698 0.435 1.164 0 0.465-0.145 0.853-0.435 1.163-0.289 0.3-0.714 0.45-1.272 0.45-0.559 0-0.983-0.15-1.273-0.45-0.279-0.31-0.419-0.698-0.419-1.163z"/>
<path class="colorFC9D9D svgShape" d="m888.38 981.48l44.47 30.66c0.814 0.58 1.74 0.98 2.72 1.18 0.979 0.2 1.99 0.2 2.966-0.02 0.975-0.22 1.895-0.64 2.699-1.23 0.803-0.59 1.473-1.35 1.965-2.22 1.267-2.3 2.292-4.73 3.06-7.24 0.559-1.75 1.51-3.352 2.78-4.68l47.44-49.93 18.822-21-20.492-23.65-62.39 79.9c-0.323 0.439-0.769 0.773-1.281 0.959-0.512 0.187-1.068 0.219-1.599 0.091l-31.21-8.18c-2.766-0.762-5.703-0.629-8.39 0.38-2.32 0.94-4.03 2.5-1.56 4.98z" fill="#fc9d9d"/>
<path class="color000 svgShape" d="m949 997.93c-1.27 1.329-2.221 2.93-2.78 4.68-0.779 2.55-1.825 5-3.12 7.33-0.505 0.85-1.182 1.59-1.988 2.17s-1.723 0.98-2.693 1.19c-0.97 0.2-1.972 0.2-2.943 0s-1.889-0.6-2.696-1.18l-44.44-30.64c-0.389-0.268-0.677-0.659-0.818-1.11-0.142-0.452-0.128-0.937 0.038-1.38l44.12 28.22c4.75 3.28 8-1.45 9.77-5.26 1.564-3.4 3.583-6.572 6-9.43l61.369-72.87 6.4 7.38-18.819 21-47.4 49.9z" opacity=".15"/>
<path class="change-color-in-svg color4D61FC svgShape" d="m906.09 978.18l-7.76-2c-2.767-0.761-5.704-0.628-8.39 0.38-2.32 0.91-4 2.45-1.56 5l44.47 30.661c0.813 0.58 1.74 0.98 2.719 1.18s1.99 0.2 2.966-0.02 1.895-0.64 2.699-1.23 1.473-1.35 1.966-2.22c1.266-2.3 2.291-4.73 3.06-7.24 0.326-1.01 0.783-1.96 1.36-2.851-44.45-13.61-41.53-21.66-41.53-21.66z" fill="#ffdb6f"/>
<path class="color000 svgShape" d="m887.22 978.8c-0.18 0.74 0.11 1.63 1.16 2.68l44.47 30.659c0.941 0.66 2.026 1.09 3.165 1.25 1.14 0.15 2.3 0.03 3.385-0.35l-52.18-34.239z" opacity=".3"/>
<path class="change-color-in-svg color4D61FC svgShape" d="m1081.6 853.5h-42c-8.38 0-15.65 4.5-24.9 17.13l-81.75 108.37 20 16 96.65-92 32-49.5z" fill="#ffdb6f"/>
<path class="color3F4249 svgShape" d="m1148.5 704.5l-24.81 3.83c-6.83 1.33-13.28 10.48-15 17.22l-30.2 68 22 58 110 2s1-44 6-63l33.16-4.3-18-66.9c-0.93-3.481-2.89-6.599-5.63-8.95-2.73-2.351-6.1-3.825-9.68-4.23l-31.86-3.62-35.98 1.95z" fill="#3f4249"/>
<path class="color000 svgShape" d="m1115.1 747.55c0.74-1.266 1.02-2.752 0.78-4.2-0.25-1.34-1-2-2.9 1.65-3.65 6.91-13.41 31.32-18 41 0 0 4 25 3 35h14.91s1.84-26.37-5.35-36.25c-2.53-3.572-3.57-7.993-2.89-12.32 0.74-5.03 5-15.13 10.45-24.88zm-44.82 105.95h-25.14s-23.58 7-20.16 32.39c1.52 11.26 2.9 22.69-2.91 32.45l-74.09 71.66h0.07l5 5 94.65-90 27.86-42.8-5.28-8.7z" opacity=".2"/>
<path class="color000 svgShape" d="m1196.6 624.17s34.36-0.24 36.24 32.66c0.13 2.31 0.07 4.63 0.26 6.94 0.7 8.58 3 25.58 10 32.32l-4.66 1.37s-7-8.71-7.27-16.21c0 0-2.52 10.85 0.86 18.08 0 0-9.87 7.32-34.28 8.14 0 0-9.62-16.69-1.46-34.66 0.38-0.85 0.83-1.67 1.29-2.49 1.21-2.16 4.6-9.64 1.46-21.66l-2.44-24.49z"/>
<path class="change-color-in-svg color4D61FC svgShape" d="m1206 638.31c0.33-8.957-4.99-16.429-11.9-16.69s-12.79 6.789-13.13 15.747c-0.33 8.957 4.99 16.429 11.9 16.69 6.91 0.26 12.79-6.789 13.13-15.747z" fill="#ffdb6f"/>
<path class="color000 svgShape" d="m1173.3 681.94c5.66-1.167 10.87-3.913 15.03-7.92s7.11-9.11 8.49-14.72c5.16-19 1.57-28.41-3.3-39.15-3.66-8.09-18.82-20.4-35.76-17.63-17.1 2.8-26.67 11.86-28.81 27.35-4 28.99 16.57 65.91 44.35 52.07z"/>
<path class="colorFC9D9D svgShape" d="m1059 1053.1l50.75-18.49c0.94-0.33 1.81-0.85 2.54-1.54 0.73-0.68 1.3-1.51 1.69-2.43s0.59-1.91 0.57-2.91-0.25-1.98-0.67-2.89c-1.15-2.36-2.53-4.6-4.13-6.69-1.11-1.48-1.86-3.19-2.2-5l-16.25-67.601-6.18-27.48-28.14 3 29 97.141c0.18 0.52 0.2 1.09 0.05 1.62-0.15 0.54-0.45 1.02-0.87 1.38l-24.75 20.71c-2.22 1.82-3.81 4.29-4.54 7.06-0.6 2.4-0.34 4.69 3.13 4.12z" fill="#fc9d9d"/>
<path class="color000 svgShape" d="m1107.6 1013.2c0.35 1.81 1.1 3.52 2.21 5 1.64 2.11 3.04 4.38 4.2 6.78 0.41 0.91 0.62 1.89 0.62 2.88 0.01 0.99-0.2 1.97-0.59 2.88-0.4 0.91-0.98 1.73-1.7 2.41-0.73 0.67-1.59 1.19-2.53 1.51l-50.72 18.48c-0.44 0.16-0.93 0.17-1.38 0.02s-0.83-0.44-1.1-0.83l48.56-19.62c5.42-2 3.47-7.38 1.37-11-1.86-3.26-3.27-6.75-4.19-10.39l-23.86-92.23 6.72-0.94 6.18 27.48 16.21 67.57z" opacity=".15"/>
<path class="colorFC9D9D svgShape" d="m1179.7 657.7l8.49 44.75-3.37 2.28c-12.83 8.27-31.83 11.27-36.31-0.22l1.41-30.44 29.78-16.37z" fill="#fc9d9d"/>
<path class="color000 svgShape" d="m1149.3 685.22c3.91 1.54 3.48 2.3 7.61 1.81l2.84-0.41c0.34-0.034 0.68-0.118 1-0.25h0.2c0.51-0.18 1-0.25 1.63-0.46 0.2 0 0.4-0.16 0.6-0.19 2.78-0.875 5.37-2.255 7.65-4.07 0.06-0.063 0.14-0.111 0.23-0.14 0.09-0.02 0.18-0.02 0.27 0 0.09 6e-3 0.17 0.03 0.25 0.07s0.15 0.098 0.2 0.17c0.12 0.144 0.18 0.324 0.18 0.51-0.02 0.185-0.1 0.357-0.24 0.48-2.94 2.366-6.35 4.071-10 5-3.07 3.195-7.1 5.301-11.48 6-1.73 0.26 1.13 0.08-0.62-0.1l-0.32-8.42z" opacity=".15"/>
<path class="colorfff svgShape colorStroke000 svgStroke" d="m1142.4 844.43v0.07-0.07z" fill="#fff" stroke="#000" stroke-miterlimit="10" stroke-width=".92"/>
<path class="colorFC9D9D svgShape" d="m1167.7 826.37l-9.77 2.37-15.95-1.74c-1.83 0.23-3.5 1.162-4.66 2.6l-17.16 15.1c-0.36 0.4-0.55 0.922-0.53 1.458s0.24 1.045 0.62 1.422c0.39 0.373 0.91 0.581 1.45 0.581s1.06-0.208 1.45-0.581l14-11.68-9.6 11.64c-0.19 0.267-0.32 0.578-0.36 0.905-0.05 0.327-0.01 0.66 0.11 0.969 0.11 0.309 0.3 0.584 0.55 0.802 0.25 0.217 0.55 0.37 0.87 0.444 0.36 0.082 0.74 0.065 1.09-0.047 0.35-0.113 0.66-0.317 0.91-0.593l9.64-11.66-7.32 8.88c-0.2 0.244-0.34 0.535-0.4 0.846s-0.04 0.632 0.06 0.933c0.1 0.3 0.28 0.57 0.51 0.784 0.24 0.213 0.52 0.364 0.83 0.437 0.31 0.096 0.63 0.109 0.95 0.039 0.31-0.07 0.6-0.221 0.84-0.439l10.56-9.57-7.14 6.54c-0.19 0.173-0.34 0.39-0.44 0.633-0.09 0.243-0.13 0.505-0.1 0.764s0.12 0.508 0.26 0.726 0.33 0.398 0.56 0.527c0.25 0.135 0.53 0.206 0.81 0.206s0.56-0.071 0.81-0.206l9.94-5.42c0.48-0.264 1-0.423 1.55-0.468 0.54-0.045 1.09 0.026 1.6 0.208l4.13 1.06c2.5 0.87 5.8 0.28 9.36-0.09l8.13-0.79c-2.13-5.31-8.16-17.59-8.16-17.59z" fill="#fc9d9d"/>
<path class="color000 svgShape" d="m1148.8 842.82c-2.35 1.5-6.28 4-7.65 5-1.92 1.38-2.66-0.09-2.66-0.09-0.04 0.342 0.02 0.69 0.17 1.001s0.39 0.571 0.68 0.749c0.26 0.144 0.55 0.22 0.85 0.22s0.59-0.076 0.85-0.22l10.38-5.65c0.5-0.28 1.05-0.449 1.61-0.496 0.57-0.047 1.14 0.03 1.67 0.226l-2.24-1c-0.58-0.252-1.22-0.36-1.86-0.315-0.64 0.046-1.25 0.243-1.8 0.575zm-8.13 3.528c0.04 4e-3 0.08-2e-3 0.11-0.018 0.04-0.016 0.07-0.04 0.1-0.072l6.86-6.25c0.13-0.16 0.18-0.38 0-0.51-0.07-0.068-0.16-0.106-0.26-0.106s-0.19 0.038-0.26 0.106l-6.86 6.24c-0.07 0.07-0.11 0.163-0.11 0.26 0 0.098 0.04 0.191 0.11 0.26 0.09 0.059 0.2 0.09 0.31 0.09zm-6.34 0.18c0.07 0 0.22 0 0.21-0.09l7.19-8.71c0.03-0.037 0.05-0.079 0.07-0.125 0.01-0.045 0.02-0.093 0.01-0.14 0-0.048-0.02-0.094-0.04-0.136s-0.05-0.079-0.09-0.109-0.08-0.053-0.12-0.067c-0.05-0.013-0.1-0.018-0.14-0.014-0.05 5e-3 -0.1 0.019-0.14 0.041-0.04 0.023-0.08 0.053-0.11 0.09l-7.2 8.73c-0.03 0.033-0.06 0.072-0.08 0.116s-0.03 0.091-0.03 0.139 0.01 0.095 0.03 0.139 0.05 0.083 0.08 0.116c0.06 0.027 0.12 0.043 0.18 0.047 0.06 3e-3 0.12-6e-3 0.18-0.027z" opacity=".15"/>
<path class="color000 svgShape" d="m1204.8 754.88l-8.16 57-34.66 13.12 5 18 31.4-2 0.91 12.25 11.2-0.31c0.13-4.94 1.31-44.69 6-62.49l14.56-1.89 1.44-36.11-27.69 2.43z" opacity=".2"/>
<path class="color000 svgShape colorStrokefff svgStroke" d="m1131.6 664.89c-0.87 0.234-1.66 0.677-2.32 1.29-0.66 0.625-1.16 1.4-1.46 2.26-0.3 0.87-0.38 1.799-0.25 2.71 0.13 0.906 0.48 1.769 1 2.52 0.52 0.735 1.2 1.335 2 1.75 0.8 0.4 1.69 0.592 2.59 0.559 0.9-0.034 1.77-0.291 2.54-0.749 0.78-0.466 1.43-1.115 1.89-1.89" stroke="#fff" stroke-linecap="round" stroke-miterlimit="10" stroke-width="1.46"/>
<path class="colorFC9D9D svgShape" d="m1139.5 681.45c2.33 1.98 5.04 3.475 7.96 4.398 2.92 0.924 5.99 1.258 9.04 0.982l1.76-0.15c3.03-0.288 5.96-1.193 8.63-2.66 2.7-1.461 5.08-3.454 7-5.86 1.92-2.425 3.36-5.199 4.23-8.17 0.85-2.997 1.13-6.129 0.82-9.23l-3.31-33.23c-0.21-2.085-1.22-4.008-2.82-5.36-0.78-0.657-1.69-1.152-2.66-1.454-0.98-0.302-2-0.406-3.02-0.306l-30.27 2.93c-1.31 0.14-2.59 0.54-3.74 1.177-1.16 0.637-2.18 1.498-3 2.533-1.68 2.134-2.46 4.839-2.18 7.54l3.13 30.83c0.65 6.227 3.67 11.966 8.43 16.03z" fill="#fc9d9d"/>
<path class="change-color-in-svg color4D61FC svgShape" d="m1210.5 853.5s7.5 23.57 5.21 43.81c-1.94 17.2-17.21 23.19-35.09 23l-23.74-0.36-73.38-17.45 25 107-26 7-51.34-129c-1.52-3.754-2.1-7.824-1.67-11.853 0.42-4.028 1.82-7.891 4.09-11.249 2.26-3.358 5.32-6.108 8.89-8.008 3.58-1.901 7.57-2.893 11.62-2.89h156.41z" fill="#ffdb6f"/>
<path class="color000 svgShape" d="m1151.4 653.69c-0.05-0.49 0.04-0.986 0.26-1.425 0.22-0.44 0.57-0.803 1-1.046 0.43-0.242 0.92-0.352 1.42-0.317 0.49 0.035 0.96 0.215 1.35 0.517 0.39 0.301 0.68 0.711 0.84 1.178s0.18 0.971 0.05 1.448c-0.12 0.477-0.39 0.906-0.75 1.235-0.37 0.328-0.83 0.54-1.32 0.61-0.33 0.044-0.67 0.021-0.99-0.066s-0.63-0.237-0.89-0.442c-0.27-0.204-0.49-0.459-0.65-0.749-0.17-0.291-0.28-0.611-0.32-0.943z"/>
<path class="colorfff svgShape" d="m1152.2 653.87c-0.01-0.068-0.01-0.138 0.01-0.205 0.01-0.068 0.04-0.131 0.08-0.187s0.09-0.103 0.15-0.139 0.13-0.059 0.2-0.069c0.1-0.016 0.21-2e-3 0.3 0.042 0.1 0.044 0.18 0.115 0.23 0.205 0.06 0.09 0.09 0.194 0.08 0.299 0 0.105-0.04 0.206-0.1 0.291s-0.15 0.149-0.25 0.185-0.2 0.041-0.3 0.016c-0.11-0.025-0.2-0.081-0.27-0.158-0.07-0.078-0.12-0.176-0.13-0.28z" fill="#fff"/>
<path class="color000 svgShape" d="m1132 656.46c-0.05-0.491 0.04-0.986 0.26-1.426 0.22-0.439 0.57-0.803 1-1.045 0.43-0.243 0.92-0.353 1.42-0.317 0.49 0.035 0.96 0.215 1.35 0.516 0.39 0.302 0.68 0.712 0.84 1.179s0.18 0.97 0.05 1.447c-0.12 0.477-0.39 0.907-0.76 1.235-0.36 0.328-0.82 0.541-1.31 0.611-0.33 0.043-0.67 0.021-0.99-0.067-0.32-0.087-0.63-0.237-0.89-0.441-0.27-0.205-0.49-0.459-0.65-0.75-0.17-0.29-0.28-0.61-0.32-0.942z"/>
<path class="colorfff svgShape" d="m1132.9 656.52c-0.01-0.068-0.01-0.138 0-0.205 0.02-0.068 0.04-0.131 0.08-0.188 0.05-0.056 0.1-0.103 0.16-0.139 0.05-0.035 0.12-0.059 0.19-0.068 0.1-0.019 0.21-7e-3 0.31 0.036 0.09 0.042 0.17 0.113 0.23 0.202s0.09 0.193 0.08 0.299c0 0.105-0.04 0.207-0.1 0.293s-0.14 0.151-0.24 0.188-0.21 0.043-0.31 0.018c-0.1-0.024-0.2-0.079-0.27-0.157s-0.12-0.175-0.13-0.279z" fill="#fff"/>
<path class="color000 svgShape" d="m1179.8 657.87l-3.51 0.5 4.93 6.64-1.42-7.14zm-36.98 6.962c0.14 0.377 0.36 0.719 0.65 1 0.28 0.287 0.62 0.503 1 0.63 0.37 0.13 0.76 0.178 1.15 0.14l3.36-0.15c0.11 0.02 0.21 0.02 0.32 0 0.1-0.03 0.19-0.082 0.26-0.15 0.08-0.072 0.14-0.157 0.19-0.25 0.04-0.102 0.07-0.21 0.07-0.32-0.02-0.215-0.11-0.417-0.26-0.57-0.08-0.069-0.18-0.121-0.28-0.15-0.1-0.025-0.21-0.025-0.31 0l-3.36 0.15c-0.2 0.012-0.39-0.022-0.57-0.1-0.19-0.069-0.36-0.178-0.51-0.32-0.15-0.135-0.27-0.302-0.35-0.49-0.08-0.187-0.13-0.387-0.14-0.59-0.01-0.416 0.14-0.819 0.42-1.13 0.25-0.305 0.61-0.507 1-0.57 0.17-0.039 0.31-0.134 0.42-0.269 0.1-0.135 0.15-0.301 0.15-0.471 0.01-0.17-0.05-0.336-0.15-0.47-0.1-0.139-0.25-0.238-0.42-0.28-0.77 0.063-1.49 0.421-2 1-0.54 0.607-0.81 1.401-0.77 2.21-0.04 0.388 0 0.781 0.13 1.15z" opacity=".15"/>
<path class="color3F4249 svgShape" d="m1188 703l27.73 2.77c3.61 0.37 7.02 1.821 9.79 4.164s4.77 5.468 5.73 8.966l27.69 101.26c0.5 1.829 0.6 3.744 0.28 5.614-0.31 1.87-1.03 3.649-2.09 5.215-1.07 1.565-2.47 2.88-4.1 3.852-1.63 0.973-3.44 1.58-5.33 1.779l-80.7 9.38-4.5-19.5 60-17-34.5-106.5z" fill="#3f4249"/>
<path class="colorFC9D9D svgShape" d="m1177.6 658.91s11.08 0.35 12.75-11-12-12.7-13.22-1.25l-0.74 12.47 1.21-0.22z" fill="#fc9d9d"/>
<path class="color000 svgShape colorStrokefff svgStroke" d="m1181.2 654.51c0.99-0.032 1.97 0.203 2.83 0.68 0.87 0.493 1.59 1.203 2.1 2.06 0.51 0.868 0.78 1.853 0.8 2.86 0.02 1.003-0.23 1.994-0.72 2.87-0.47 0.862-1.16 1.584-2 2.09-0.85 0.491-1.81 0.743-2.79 0.73-0.99-0.024-1.95-0.314-2.79-0.84-0.84-0.538-1.53-1.281-2-2.16" stroke="#fff" stroke-linecap="round" stroke-miterlimit="10" stroke-width="1.46"/>
<path class="color000 svgShape" d="m1187 643c0.06-0.172 0.06-0.359 0-0.53-0.06-0.167-0.17-0.31-0.32-0.41-0.48-0.349-1.04-0.591-1.62-0.71-0.58-0.12-1.17-0.12-1.75 0-0.57 0.169-1.09 0.467-1.53 0.87-0.43 0.406-0.77 0.901-1 1.45-0.72 1.373-1.05 2.921-0.94 4.47v1.19c0 0.86 1.51 1.09 1.45 0v-1.3c-0.05-1.268 0.21-2.53 0.74-3.68 0.16-0.371 0.39-0.71 0.67-1 0.29-0.28 0.63-0.501 1-0.65 0.81-0.13 1.63 0.06 2.3 0.53 0.17 0.095 0.36 0.123 0.55 0.078 0.18-0.044 0.35-0.158 0.45-0.318v0.01z" opacity=".15"/>
<path class="color000 svgShape colorStrokefff svgStroke" d="m1164.9 646.15c0.76 1.328 1.2 2.813 1.3 4.34 0.05 0.728 0.01 1.461-0.11 2.18-0.28 1.828-1.07 3.539-2.29 4.93-1.2 1.371-2.78 2.358-4.54 2.84-0.61 0.162-1.23 0.249-1.85 0.26-1.25 0.07-2.49-0.109-3.67-0.526-1.17-0.417-2.25-1.064-3.17-1.904-1.89-1.723-3.04-4.102-3.23-6.65v-0.16c-0.03-1.01 0.08-2.02 0.33-3-1.57-0.301-3.2-0.109-4.65 0.55 0.99 1.46 1.57 3.159 1.69 4.92 0.17 2.545-0.66 5.057-2.31 7-0.81 0.948-1.79 1.726-2.9 2.287-1.11 0.562-2.32 0.896-3.56 0.983-0.93 0.048-1.86-0.05-2.75-0.29-1.96-0.515-3.71-1.634-5-3.2-1.31-1.597-2.09-3.56-2.24-5.62-0.18-2.545 0.65-5.058 2.31-6.999 1.66-1.94 4.01-3.154 6.55-3.381 0.99-0.032 1.98 0.082 2.94 0.34 1.77 0.487 3.37 1.473 4.61 2.84 1.78-0.928 3.84-1.19 5.8-0.74 0.49-1.171 1.2-2.234 2.1-3.13 0.89-0.869 1.95-1.549 3.12-2 0.3-0.124 0.61-0.231 0.93-0.32 0.62-0.149 1.26-0.239 1.9-0.27 1.99-0.131 3.96 0.392 5.63 1.49 1.25 0.825 2.3 1.931 3.06 3.23z" stroke="#fff" stroke-miterlimit="10" stroke-width="1.45"/>
<path class="colorfff svgShape" d="m1144.4 671c-0.07 0.012-0.14 0.039-0.2 0.08-0.05 0.052-0.1 0.109-0.14 0.17-0.03 0.069-0.05 0.144-0.05 0.22s0.02 0.151 0.05 0.22c0.76 1.145 1.82 2.056 3.06 2.63 1.23 0.567 2.59 0.767 3.93 0.576 1.34-0.192 2.59-0.767 3.61-1.656 1.03-0.902 1.79-2.072 2.19-3.38 0.05-0.34-0.09-0.63-0.51-0.57l-11.94 1.71z" fill="#fff"/>
<path class="color000 svgShape" d="m1177.9 632.28s6.29-26.9-33.67-17.27c-23 5.55-24.75 15.79-25.37 21.08s12-3.62 12-3.62 0 10.64 4.21 7.53c5.16-3.81 11.11-12.24 11.11-12.24s13.07 13.93 26.15 10.84c7.43-1.75 5.57-6.32 5.57-6.32z"/>
<path class="color000 svgShape" d="m1169.2 627.32s6.61 20.25 6.86 24.29c0.34 5.51 8.3-13 1.6-29.36l-8.46 5.07z"/>
<path class="color21252B svgShape" d="m1047.4 856.08h144.64v-7.08h-144.64l-0.08 0.14c-0.57 1.067-0.86 2.26-0.85 3.47s0.33 2.397 0.93 3.45v0.02z" fill="#21252b"/>
<path class="color000 svgShape" d="m1047.4 856.08h144.64v-7.08h-144.64c-0.68 1.052-1.04 2.278-1.04 3.53 0 1.253 0.36 2.478 1.04 3.53v0.02z" opacity=".3"/>
<path class="color21252B svgShape" d="m1047 849.17h84.8l-31.59-62.91h-84.8l31.59 62.91z" fill="#21252b"/>
<path class="color000 svgShape" d="m1047 849.17h84.8l-31.59-62.91h-84.8l31.59 62.91z" opacity=".3"/>
<path class="color21252B svgShape" d="m1191.7 855.87h-58.34c-0.93 0-1.83-0.372-2.49-1.034-0.67-0.662-1.04-1.56-1.04-2.496s0.37-1.834 1.04-2.496c0.66-0.662 1.56-1.034 2.49-1.034h58.34v7.06z" fill="#21252b"/>
<path class="color21252B svgShape" d="m1131.5 849.94l2.77-1.13-31.59-62.55h-3.16l31.98 63.68z" fill="#21252b"/>
<path class="colorfff svgShape" d="m1075.5 825.18c2.26-2.046 1.77-6.26-1.08-9.413-2.85-3.152-7-4.049-9.26-2.002-2.26 2.046-1.78 6.26 1.08 9.413 2.85 3.152 7 4.049 9.26 2.002z" fill="#fff" opacity=".2"/>
<path class="color000 svgShape" d="m1131 848.95l-83.73 0.05-0.46-0.9h83.76l0.43 0.85z" opacity=".3"/>
<path class="color000 svgShape" d="m1192.3 905.36c-2.65 2.289-5.75 4.004-9.09 5.036-3.35 1.033-6.87 1.361-10.35 0.964l-96.88-12.36 7.56 3.76-0.06-0.26 73.38 17.5 23.74 0.36c17.88 0.18 33.15-5.81 35.09-23 2.29-20.24-5.21-43.81-5.21-43.81h-13.25s13.46 35.45-4.93 51.81z" opacity=".2"/>
<path class="color000 svgShape" d="m1076 899l25.84 111.75 7.16-1.75-26-107-7-3z" opacity=".2"/>
<path class="change-color-in-svg color4D61FC svgShape" d="m1066.6 1036.8l-6.16 5.15c-2.22 1.82-3.81 4.29-4.54 7.06-0.6 2.42-0.34 4.71 3.13 4.14l50.75-18.49c0.94-0.33 1.81-0.85 2.54-1.54 0.73-0.68 1.3-1.51 1.69-2.43s0.59-1.91 0.57-2.91-0.25-1.98-0.67-2.89c-1.15-2.36-2.53-4.6-4.13-6.69-0.64-0.85-1.15-1.77-1.54-2.76-36.77 28.41-41.64 21.36-41.64 21.36z" fill="#ffdb6f"/>
<path class="color000 svgShape" d="m1056.2 1052.5c0.5 0.58 1.39 0.85 2.85 0.61l50.75-18.49c1.08-0.38 2.06-1.02 2.85-1.86s1.36-1.86 1.68-2.97l-58.13 22.71z" opacity=".3"/>
<path class="color000 svgShape" d="m1247.7 836.62c1.89-0.2 3.7-0.807 5.33-1.779 1.63-0.973 3.03-2.287 4.1-3.853 1.06-1.565 1.78-3.345 2.09-5.215 0.32-1.869 0.22-3.785-0.28-5.614l-2.56-9.389c-0.63 17.78-14.38 18.23-14.38 18.23l-76 12.84 1 4.16 80.7-9.38z" opacity=".2"/>
<path class="colorfff svgShape" d="m1151.3 782.04l-2.25-1.14-2.22 1.21 0.39-2.5-1.83-1.73 2.49-0.4 1.08-2.28 1.15 2.25 2.51 0.32-1.78 1.79 0.46 2.48zm39-3l-2.25-1.14-2.22 1.21 0.39-2.5-1.83-1.73 2.49-0.4 1.08-2.28 1.15 2.25 2.51 0.32-1.78 1.79 0.46 2.48zm-16 35l-2.25-1.14-2.22 1.21 0.39-2.5-1.83-1.73 2.49-0.4 1.08-2.28 1.15 2.25 2.51 0.32-1.78 1.79 0.46 2.48zm46 7l-2.25-1.14-2.22 1.21 0.39-2.5-1.83-1.73 2.49-0.4 1.08-2.28 1.15 2.25 2.51 0.32-1.78 1.79 0.46 2.48zm-39 22l-2.25-1.14-2.22 1.21 0.39-2.5-1.83-1.73 2.49-0.4 1.08-2.28 1.15 2.25 2.51 0.32-1.78 1.79 0.46 2.48zm-86-62l-2.25-1.14-2.22 1.21 0.39-2.5-1.83-1.73 2.49-0.4 1.08-2.28 1.15 2.25 2.51 0.32-1.78 1.79 0.46 2.48zm34 33l-2.25-1.14-2.22 1.21 0.39-2.5-1.83-1.73 2.49-0.4 1.08-2.28 1.15 2.25 2.51 0.32-1.78 1.79 0.46 2.48zm84.58-12.559l-2.49 0.4 1.83 1.73-0.39 2.5 1-0.54c0.25-2 0.52-3.85 0.8-5.66l-0.75 1.57zm-7.58-51.441l-2.25-1.14-2.22 1.21 0.39-2.5-1.83-1.73 2.49-0.4 1.08-2.28 1.15 2.25 2.51 0.32-1.78 1.79 0.46 2.48zm36 29l-2.25-1.14-2.22 1.21 0.39-2.5-1.83-1.73 2.49-0.4 1.08-2.28 1.15 2.25 2.51 0.32-1.78 1.79 0.46 2.48zm-43-65l-2.25-1.14-2.22 1.21 0.39-2.5-1.83-1.73 2.49-0.4 1.08-2.28 1.15 2.25 2.51 0.32-1.78 1.79 0.46 2.48zm-42 33l-2.25-1.14-2.22 1.21 0.39-2.5-1.83-1.73 2.49-0.4 1.08-2.28 1.15 2.25 2.51 0.32-1.78 1.79 0.46 2.48zm-28-23l-2.25-1.14-2.22 1.21 0.39-2.5-1.83-1.73 2.49-0.4 1.08-2.28 1.15 2.25 2.51 0.32-1.78 1.79 0.46 2.48zm-2 39l-2.25-1.14-2.22 1.21 0.39-2.5-1.83-1.73 2.49-0.4 1.08-2.28 1.15 2.25 2.51 0.32-1.78 1.79 0.46 2.48z" fill="#fff"/>
<path class="colorB2B6BB svgShape" d="m1235 621.58c0-12.56 14.1-22.75 31.5-22.75s31.5 10.17 31.5 22.75-14.1 22.75-31.5 22.75c-2.22 0-4.44-0.171-6.64-0.51l-15.53 5.18 3.34-9.18c-7.67-4.15-12.67-10.77-12.67-18.24z" fill="#b2b6bb"/>
<path class="colorfff svgShape" d="m1278.2 625.67c1.93 0 3.5-1.567 3.5-3.5s-1.57-3.5-3.5-3.5-3.5 1.567-3.5 3.5 1.57 3.5 3.5 3.5zm-11.67 0c1.93 0 3.5-1.567 3.5-3.5s-1.57-3.5-3.5-3.5-3.5 1.567-3.5 3.5 1.57 3.5 3.5 3.5zm-11.67 0c1.93 0 3.5-1.567 3.5-3.5s-1.57-3.5-3.5-3.5-3.5 1.567-3.5 3.5 1.57 3.5 3.5 3.5z" fill="#fff"/>
</svg>
</g>
</svg>
