<?xml version="1.0" standalone="no"?>
<!DOCTYPE svg PUBLIC "-//W3C//DTD SVG 20010904//EN"
 "http://www.w3.org/TR/2001/REC-SVG-20010904/DTD/svg10.dtd">
<svg version="1.0" xmlns="http://www.w3.org/2000/svg"
 width="1459.000000pt" height="525.000000pt" viewBox="0 0 1459.000000 525.000000"
 preserveAspectRatio="xMidYMid meet">

<g transform="translate(0.000000,525.000000) scale(0.100000,-0.100000)"
fill="#000000" stroke="none">
<path d="M7 4803 c-3 -5 -2 -45 1 -90 l5 -83 353 0 354 0 0 -60 0 -60 -345 0
c-190 0 -345 -1 -345 -3 0 -2 13 -39 29 -83 l29 -79 313 -5 314 -5 3 -57 3
-58 -331 0 -330 0 0 -470 0 -470 325 0 325 0 0 -125 0 -125 -310 0 -310 0 0
-62 c0 -35 3 -73 6 -85 l6 -23 309 0 309 0 0 -40 0 -40 -335 0 -335 0 0 -80 0
-80 425 0 425 0 0 355 0 355 34 0 c18 0 54 -3 80 -6 l46 -7 0 -354 0 -354 88
3 87 3 3 351 2 351 47 7 c25 3 59 6 74 6 l29 0 0 -355 0 -355 425 0 425 0 0
80 0 80 -329 0 -329 0 -6 23 c-16 61 -37 57 309 57 l315 0 0 54 c0 29 3 68 6
85 l6 31 -316 0 -316 0 0 125 0 125 330 0 330 0 0 470 0 470 -330 0 -330 0 0
60 0 60 313 0 312 0 28 78 c15 43 27 81 27 85 0 4 -153 7 -340 7 l-340 0 0 60
0 60 349 0 348 0 7 46 c3 26 6 66 6 90 l0 44 -442 -2 -443 -3 -3 -307 -2 -308
-80 0 -80 0 -2 308 -3 307 -87 3 -88 3 0 -311 0 -310 -85 0 -85 0 0 310 0 310
-439 0 c-242 0 -442 -3 -444 -7z m333 -1048 l0 -295 -80 0 -80 0 0 289 0 290
43 4 c23 2 59 4 80 5 l37 2 0 -295z m1718 289 l52 -7 0 -288 0 -289 -75 0 -75
0 0 295 0 295 23 0 c12 0 46 -3 75 -6z m-1338 -289 l0 -285 -120 0 -120 0 0
285 0 285 120 0 120 0 0 -285z m1090 0 l0 -285 -115 0 -115 0 0 285 0 285 115
0 115 0 0 -285z m-383 173 l20 -73 -295 -3 c-162 -1 -297 0 -299 2 -4 4 25
125 33 138 3 5 121 8 264 8 l258 0 19 -72z m-31 -314 c-3 -26 -6 -60 -6 -75
l0 -29 -245 0 -245 0 0 75 0 75 251 0 252 0 -7 -46z"/>
<path d="M2553 4796 c-17 -8 -36 -23 -42 -35 -8 -14 -11 -332 -11 -1051 l0
-1032 31 -29 c25 -23 40 -29 76 -29 50 0 97 21 113 49 7 13 10 291 10 822 0
482 4 799 9 793 5 -5 191 -310 412 -678 414 -687 427 -706 487 -706 12 0 38 6
56 14 30 13 78 88 442 695 l409 681 5 -806 5 -806 33 -29 c27 -24 41 -29 83
-29 45 0 55 4 85 34 l34 34 -2 1026 -3 1026 -31 31 c-39 39 -93 47 -148 21
-37 -17 -68 -66 -497 -777 -251 -418 -461 -761 -466 -762 -4 -2 -213 338 -464
754 -252 419 -467 765 -481 776 -33 25 -104 31 -145 13z"/>
<path d="M6815 4775 l-25 -24 0 -1031 c0 -688 3 -1038 10 -1051 25 -46 123
-65 170 -32 52 35 49 -6 50 878 1 826 1 830 20 806 11 -13 279 -393 595 -846
469 -670 582 -826 609 -839 52 -24 119 -21 153 8 l28 24 3 1029 c2 802 0 1033
-10 1051 -17 33 -59 52 -114 52 -39 0 -51 -5 -80 -34 l-34 -34 0 -828 0 -827
-573 819 c-315 451 -581 831 -592 846 -32 42 -68 58 -129 58 -47 0 -61 -4 -81
-25z"/>
<path d="M5234 4766 c-69 -30 -64 46 -64 -1054 0 -662 3 -1000 10 -1013 27
-49 26 -49 677 -49 679 0 643 -4 663 70 8 30 7 47 -3 72 -28 66 2 63 -581 68
l-531 5 0 385 0 385 400 5 c439 5 436 5 461 67 18 41 6 89 -27 119 -20 18 -48
19 -428 24 l-406 5 -3 353 -2 352 516 0 c562 0 565 0 595 56 21 41 14 103 -16
133 l-25 26 -603 2 c-492 2 -608 0 -633 -11z"/>
<path d="M8664 4766 c-17 -8 -39 -24 -48 -37 -20 -30 -21 -88 0 -117 35 -50
48 -52 414 -52 l340 0 0 -941 0 -941 29 -29 c25 -25 37 -29 83 -29 33 0 62 6
77 16 52 37 51 13 51 1004 l0 920 331 0 c364 0 385 3 414 61 29 55 9 116 -49
143 -31 14 -113 16 -823 16 -641 -1 -794 -3 -819 -14z"/>
<path d="M10594 4766 c-69 -30 -64 46 -64 -1054 l0 -994 34 -34 34 -34 615 0
616 0 26 23 c20 17 28 35 32 70 5 43 3 49 -30 82 l-35 35 -526 0 -526 0 0 390
0 389 406 3 406 3 29 33 c42 46 40 93 -5 138 l-34 34 -401 0 -401 0 0 355 0
355 515 0 c566 0 559 -1 590 60 31 59 9 130 -46 149 -51 18 -1194 14 -1235 -3z"/>
<path d="M12214 4766 c-69 -30 -64 46 -64 -1056 1 -767 3 -999 13 -1010 7 -9
23 -24 37 -33 22 -16 76 -17 637 -17 l612 0 28 24 c24 21 28 32 28 76 0 46 -4
55 -33 81 l-32 29 -525 0 -525 0 0 390 0 390 393 0 c374 0 393 1 425 20 61 38
67 117 11 164 l-31 26 -399 0 -399 0 0 355 0 355 515 0 c566 0 559 -1 590 60
29 56 10 125 -41 146 -49 20 -1194 20 -1240 0z"/>
<path d="M33 2463 c-7 -3 -13 -11 -13 -19 0 -26 158 -546 169 -557 28 -28 45
11 104 231 33 122 62 221 63 219 2 -1 30 -101 63 -222 33 -120 65 -223 71
-229 27 -27 46 15 122 270 42 142 77 269 77 280 1 24 -19 37 -38 25 -6 -4 -32
-79 -57 -167 -25 -87 -55 -190 -66 -229 l-21 -70 -62 220 c-61 214 -80 254
-105 229 -6 -6 -38 -107 -71 -225 -33 -117 -62 -215 -63 -217 -2 -1 -25 73
-51 165 -87 306 -87 308 -122 296z"/>
<path d="M894 2454 c-185 -68 -245 -331 -109 -482 61 -68 127 -96 225 -97 62
0 85 5 132 28 64 32 112 80 142 146 29 66 28 189 -3 253 -28 58 -79 112 -134
140 -55 28 -192 35 -253 12z m224 -63 c135 -69 172 -252 77 -376 -34 -46 -117
-85 -178 -85 -148 0 -247 97 -247 241 0 152 112 258 258 244 30 -3 70 -14 90
-24z"/>
<path d="M1433 2464 c-10 -4 -13 -72 -13 -290 0 -245 2 -285 15 -290 35 -14
45 14 45 122 l0 104 59 0 60 0 73 -115 c57 -92 76 -115 93 -113 34 5 28 30
-34 128 -33 52 -60 100 -61 105 0 6 14 18 30 27 110 63 96 243 -24 305 -31 16
-216 29 -243 17z m212 -68 c64 -27 92 -104 60 -166 -23 -44 -63 -60 -150 -60
l-75 0 0 120 0 120 65 0 c36 0 81 -6 100 -14z"/>
<path d="M1882 2458 c-19 -19 -17 -551 2 -567 9 -8 68 -11 187 -9 161 3 174 4
177 22 2 10 -2 22 -10 27 -7 5 -79 9 -160 9 l-148 0 0 259 c0 227 -2 260 -16
265 -20 8 -18 8 -32 -6z"/>
<path d="M2352 2457 c-9 -11 -12 -83 -10 -293 l3 -279 106 -3 c87 -2 116 1
160 17 73 28 123 71 153 134 76 156 14 342 -136 407 -69 30 -256 42 -276 17z
m246 -63 c137 -57 184 -246 92 -372 -40 -56 -103 -83 -206 -90 l-84 -5 0 242
0 241 80 0 c50 0 95 -6 118 -16z"/>
<path d="M3285 2458 c-242 -87 -262 -440 -31 -553 29 -14 75 -28 102 -31 89
-11 214 40 214 86 0 29 -21 29 -78 -2 -162 -85 -342 30 -342 217 0 77 24 130
84 182 80 71 170 79 269 25 34 -18 51 -22 58 -15 21 21 3 47 -50 75 -45 23
-65 28 -125 27 -39 0 -84 -5 -101 -11z"/>
<path d="M3703 2463 c-10 -3 -13 -71 -13 -289 0 -245 2 -285 15 -290 36 -14
45 13 45 142 l0 124 180 0 180 0 0 -122 c0 -130 6 -152 36 -146 18 3 19 18 22
284 2 241 0 283 -13 294 -12 10 -18 10 -30 0 -12 -10 -15 -38 -15 -136 l0
-124 -180 0 -180 0 0 119 c0 95 -3 123 -16 135 -8 9 -16 16 -17 15 -1 0 -8 -3
-14 -6z"/>
<path d="M4487 2457 c-21 -18 -240 -545 -233 -563 3 -9 15 -14 27 -12 15 2 28
21 48 68 l28 65 145 3 146 3 25 -63 c28 -71 49 -91 71 -68 13 13 1 48 -102
292 -64 153 -121 280 -128 282 -7 3 -19 -1 -27 -7z m81 -245 l60 -142 -124 0
-124 0 19 48 c31 78 93 226 98 235 7 12 7 13 71 -141z"/>
<path d="M4841 2457 c-8 -11 -11 -92 -9 -293 l3 -279 25 0 25 0 5 234 5 234
180 -237 c141 -185 184 -236 200 -234 19 3 20 12 23 284 2 241 0 283 -13 294
-12 10 -18 10 -30 0 -12 -10 -15 -53 -17 -241 l-3 -228 -180 236 c-99 130
-185 238 -191 240 -6 2 -16 -3 -23 -10z"/>
<path d="M5585 2446 c-108 -51 -170 -152 -170 -276 0 -91 24 -149 85 -210 62
-62 119 -85 210 -84 78 0 122 15 168 57 20 19 22 30 22 116 0 53 -4 102 -8
109 -6 9 -34 12 -103 10 -86 -3 -94 -5 -94 -23 0 -18 8 -20 73 -23 l72 -3 0
-75 0 -75 -46 -21 c-66 -29 -146 -22 -210 18 -159 98 -147 338 20 427 63 33
161 30 216 -7 46 -30 73 -28 68 6 -2 15 -20 31 -57 50 -72 38 -172 39 -246 4z"/>
<path d="M6023 2463 c-10 -3 -13 -71 -13 -289 0 -245 2 -285 15 -290 8 -4 22
-1 30 6 23 19 22 541 -1 564 -8 9 -16 16 -17 15 -1 0 -8 -3 -14 -6z"/>
<path d="M6223 2463 c-10 -4 -13 -71 -13 -289 0 -245 2 -285 15 -290 8 -4 22
-1 30 6 12 10 15 54 17 236 l3 223 179 -234 c98 -129 184 -235 190 -235 33 0
36 23 36 297 0 252 -1 273 -18 282 -38 20 -42 4 -44 -238 l-3 -233 -179 235
c-98 130 -184 238 -190 240 -6 2 -17 2 -23 0z"/>
<path d="M6985 2458 c-242 -87 -262 -440 -31 -553 70 -34 139 -41 208 -21 30
8 67 25 82 37 26 21 27 22 24 132 l-3 112 -95 0 c-88 0 -95 -1 -95 -20 0 -18
8 -20 68 -23 l67 -3 0 -78 0 -79 -40 -16 c-157 -63 -320 54 -320 229 0 77 24
130 84 182 80 71 170 79 269 25 34 -18 51 -22 58 -15 21 21 3 47 -50 75 -45
23 -65 28 -125 27 -39 0 -84 -5 -101 -11z"/>
<path d="M7765 2458 c-242 -87 -262 -440 -31 -553 29 -14 75 -28 102 -31 89
-11 214 40 214 86 0 29 -21 29 -78 -2 -162 -85 -342 30 -342 217 0 77 24 130
84 182 80 71 170 79 269 25 34 -18 51 -22 58 -15 21 21 3 47 -50 75 -45 23
-65 28 -125 27 -39 0 -84 -5 -101 -11z"/>
<path d="M8324 2454 c-185 -68 -245 -331 -109 -482 61 -68 127 -96 225 -97 62
0 85 5 132 28 64 32 112 80 142 146 29 66 28 189 -3 253 -28 58 -79 112 -134
140 -55 28 -192 35 -253 12z m224 -63 c135 -69 172 -252 77 -376 -34 -46 -117
-85 -178 -85 -148 0 -247 97 -247 241 0 152 112 258 258 244 30 -3 70 -14 90
-24z"/>
<path d="M8861 2457 c-8 -11 -11 -92 -9 -293 l3 -279 25 0 25 0 5 234 5 234
180 -237 c141 -185 184 -236 200 -234 19 3 20 12 23 284 2 241 0 283 -13 294
-12 10 -18 10 -30 0 -12 -10 -15 -53 -17 -241 l-3 -228 -180 236 c-99 130
-185 238 -191 240 -6 2 -16 -3 -23 -10z"/>
<path d="M9473 2463 c-10 -4 -13 -71 -13 -289 0 -245 2 -285 15 -290 8 -4 22
-1 30 6 12 10 15 54 17 236 l3 223 179 -234 c98 -129 184 -235 190 -235 33 0
36 23 36 297 0 252 -1 273 -18 282 -38 20 -42 4 -44 -238 l-3 -233 -179 235
c-98 130 -184 238 -190 240 -6 2 -17 2 -23 0z"/>
<path d="M10082 2462 c-9 -7 -12 -72 -10 -293 l3 -284 196 -3 c175 -2 197 -1
203 14 15 38 -9 44 -180 44 l-164 0 0 100 0 100 113 0 c120 0 156 11 144 44
-5 14 -25 16 -132 16 l-125 0 0 105 0 105 170 0 c143 0 172 2 176 15 4 8 1 22
-6 30 -10 12 -45 15 -194 15 -99 0 -187 -4 -194 -8z"/>
<path d="M10745 2458 c-242 -87 -262 -440 -31 -553 29 -14 75 -28 102 -31 89
-11 214 40 214 86 0 29 -21 29 -78 -2 -162 -85 -342 30 -342 217 0 77 24 130
84 182 80 71 170 79 269 25 34 -18 51 -22 58 -15 21 21 3 47 -50 75 -45 23
-65 28 -125 27 -39 0 -84 -5 -101 -11z"/>
<path d="M11090 2455 c-10 -12 -10 -18 0 -30 9 -11 35 -15 106 -15 l94 0 0
-260 c0 -223 2 -261 15 -266 8 -4 22 -1 30 6 13 10 15 54 15 266 l0 253 97 3
c86 3 98 5 101 22 2 10 -2 22 -10 27 -7 5 -108 9 -224 9 -176 0 -214 -3 -224
-15z"/>
<path d="M11641 2456 c-8 -9 -11 -95 -9 -292 l3 -279 25 0 25 0 3 279 c2 270
-1 306 -28 306 -4 0 -13 -6 -19 -14z"/>
<path d="M11961 2439 c-221 -111 -211 -438 18 -542 66 -31 177 -30 249 2 139
62 208 234 152 383 -28 74 -70 122 -142 157 -52 27 -72 31 -138 31 -66 0 -86
-4 -139 -31z m261 -56 c105 -57 149 -199 97 -313 -27 -60 -54 -88 -114 -116
-98 -47 -229 -20 -290 60 -112 147 -45 352 130 397 47 12 125 0 177 -28z"/>
<path d="M12521 2457 c-8 -11 -11 -92 -9 -293 l3 -279 25 0 25 0 5 234 5 234
180 -237 c141 -185 184 -236 200 -234 19 3 20 12 23 284 2 241 0 283 -13 294
-12 10 -18 10 -30 0 -12 -10 -15 -53 -17 -241 l-3 -228 -180 236 c-99 130
-185 238 -191 240 -6 2 -16 -3 -23 -10z"/>
<path d="M13191 2448 c-57 -30 -84 -78 -78 -137 8 -79 70 -131 180 -150 32 -6
73 -19 91 -29 68 -40 66 -149 -4 -184 -72 -37 -187 -12 -226 48 -11 16 -24 24
-38 22 -63 -9 12 -105 104 -132 63 -19 91 -20 145 -5 84 23 127 77 127 159 0
26 -7 60 -16 77 -28 55 -66 74 -218 107 -14 3 -40 18 -57 32 -38 32 -43 87
-11 122 19 20 76 42 113 42 32 0 91 -31 120 -62 26 -28 30 -30 45 -15 14 15
14 20 1 43 -41 77 -188 110 -278 62z"/>
</g>
</svg>
