<?xml version="1.0" encoding="UTF-8" standalone="no"?>
<!-- Created with Inkscape (http://www.inkscape.org/) -->

<svg
   version="1.1"
   id="svg2"
   width="311.04001"
   height="337.92001"
   viewBox="0 0 311.04001 337.92001"
   sodipodi:docname="Mentee Logo Vector.ai"
   xmlns:inkscape="http://www.inkscape.org/namespaces/inkscape"
   xmlns:sodipodi="http://sodipodi.sourceforge.net/DTD/sodipodi-0.dtd"
   xmlns="http://www.w3.org/2000/svg"
   xmlns:svg="http://www.w3.org/2000/svg">
  <defs
     id="defs6">
    <clipPath
       clipPathUnits="userSpaceOnUse"
       id="clipPath16">
      <path
         d="M 0,253.44 H 233.28 V 0 H 0 Z"
         id="path14" />
    </clipPath>
    <clipPath
       clipPathUnits="userSpaceOnUse"
       id="clipPath24">
      <path
         d="M 21.8921,243.317 H 210.417 V 0.815033 H 21.8921 Z"
         id="path22" />
    </clipPath>
  </defs>
  <sodipodi:namedview
     id="namedview4"
     pagecolor="#ffffff"
     bordercolor="#000000"
     borderopacity="0.25"
     inkscape:showpageshadow="2"
     inkscape:pageopacity="0.0"
     inkscape:pagecheckerboard="0"
     inkscape:deskcolor="#d1d1d1" />
  <g
     id="g8"
     inkscape:groupmode="layer"
     inkscape:label="Mentee Logo Vector"
     transform="matrix(1.3333333,0,0,-1.3333333,0,337.92)">
    <g
       id="g10">
      <g
         id="g12"
         clip-path="url(#clipPath16)">
        <g
           id="g18">
          <g
             id="g20" />
          <g
             id="g38">
            <g
               clip-path="url(#clipPath24)"
               id="g36">
              <g
                 transform="translate(92.2173,165.5855)"
                 id="g28">
                <path
                   d="M 0,0 H 48.506 L 45.258,12.997 H 3.248 Z m 3.138,-27.743 h 42.229 v 12.997 H 3.138 Z m -56.971,-3 h 12.994 v 47.489 h -12.994 z m 23.988,0 h 19.741 v 47.489 h -19.741 z m 88.456,0 h 20.49 v 47.489 h -20.49 z m 31.483,0 h 12.994 v 47.505 l -0.515,-0.016 c -0.035,-10e-4 -3.587,-0.111 -7.092,-0.111 -2.053,0 -3.687,0.037 -4.856,0.111 l -0.531,0.033 z M 45.368,-99.477 V -41.74 H 30.875 V -99.477 H 17.631 V -41.74 H 3.138 v -57.737 h -66.466 v 11.748 h 53.224 v 8.499 h -50.975 v 12.496 h 50.975 v 21.245 h -53.224 v 75.482 h 53.224 v 10.748 h -51.114 l -4.165,12.496 h 55.279 V 63.985 H -67.825 V 77.232 H 3.138 V 26.994 H 17.631 V 77.232 H 30.875 V 26.994 h 14.493 v 50.238 h 70.975 c 0.045,-1.924 0.192,-9.09 0.012,-13.247 H 58.611 V 53.237 h 55.278 L 109.724,40.741 H 58.611 V 29.993 h 53.222 V -45.489 H 58.611 v -21.245 h 50.973 V -79.23 H 58.611 v -8.499 h 53.222 v -11.748 z"
                   style="fill:#000000;fill-opacity:1;fill-rule:evenodd;stroke:none"
                   id="path26" />
              </g>
              <path
                 d="m 95.856,150.339 h 41.229 V 138.342 H 95.856 Z m -2.999,15.747 2.999,11.997 h 41.229 l 2.998,-11.997 z M 38.884,181.832 H 50.878 V 135.343 H 38.884 Z m 23.988,0 H 81.613 V 135.343 H 62.872 Z m 88.456,0 h 19.49 v -46.489 h -19.49 z m 36.37,-0.111 c 3.554,0 7.108,0.111 7.108,0.111 v -46.489 h -11.994 v 46.489 c 1.333,-0.083 3.11,-0.111 4.886,-0.111 m 21.351,61.596 h -71.964 v -50.238 h -13.493 v 50.238 H 109.349 V 193.079 H 95.856 v 50.238 H 23.892 v -14.246 h 57.721 v -9.748 H 26.141 l 4.498,-13.497 h 50.974 v -9.747 H 28.39 V 119.596 H 81.613 V 99.351 H 30.639 V 85.855 H 81.613 V 78.356 H 28.39 V 65.61 h 67.466 v 57.735 h 13.493 V 65.61 h 14.243 v 57.735 h 13.493 V 65.61 h 67.466 v 12.746 h -53.223 v 7.499 h 50.974 v 13.496 h -50.974 v 20.245 h 53.223 v 76.483 h -53.223 v 9.747 h 50.974 l 4.498,13.497 h -55.472 v 9.748 h 57.721 c 0.25,4.748 0,14.246 0,14.246 M 94.856,137.342 h 1 41.229 1 v 1 11.997 1 h -1 -41.229 -1 v -1 -11.997 -1 m -3.279,27.744 h 1.28 47.226 1.281 l -0.31,1.242 -2.999,11.997 -0.189,0.758 h -0.781 -41.229 -0.781 l -0.189,-0.758 -2.999,-11.997 -0.31,-1.242 M 37.884,134.343 h 1 11.994 1 v 1 46.489 1 h -1 -11.994 -1 v -1 -46.489 -1 m 23.988,0 h 1 18.741 1 v 1 46.489 1 h -1 -18.741 -1 v -1 -46.489 -1 m 88.456,0 h 1 19.49 1 v 1 46.489 1 h -1 -19.49 -1 v -1 -46.489 -1 m 31.484,0 h 1 11.994 1 v 1 46.489 1.032 l -1.032,-0.032 c -0.035,-0.002 -3.58,-0.111 -7.076,-0.111 -2.043,0 -3.666,0.036 -4.824,0.109 l -1.062,0.067 v -1.065 -46.489 -1 m 26.259,107.974 c 0.051,-2.339 0.159,-8.366 0.02,-12.246 h -56.763 -1 v -1 -9.748 -1 h 1 54.084 l -3.831,-11.497 h -50.253 -1 v -1 -9.747 -1 h 1 52.223 v -74.483 h -52.223 -1 v -1 -20.245 -1 h 1 49.974 V 86.855 h -49.974 -1 v -1 -7.499 -1 h 1 52.223 V 66.61 h -65.466 v 56.735 1 h -1 -13.493 -1 v -1 -56.735 h -12.243 v 56.735 1 h -1 -13.493 -1 v -1 V 66.61 H 29.39 v 10.746 h 52.223 1 v 1 7.499 1 h -1 -49.974 v 11.496 h 49.974 1 v 1 20.245 1 h -1 -52.223 v 74.483 h 52.223 1 v 1 9.747 1 h -1 -50.254 l -3.831,11.497 h 54.085 1 v 1 9.748 1 h -1 -56.721 v 12.246 h 69.964 v -49.238 -1 h 1 13.493 1 v 1 49.238 h 12.243 v -49.238 -1 h 1 13.493 1 v 1 49.238 h 69.986"
                 style="fill:#000000;fill-opacity:1;fill-rule:nonzero;stroke:none"
                 id="path30" />
              <text
                 xml:space="preserve"
                 transform="matrix(1,0,0,-1,21.8921,19.668)"
                 style="font-variant:normal;font-weight:bold;font-stretch:normal;font-size:54px;font-family:Calibri;-inkscape-font-specification:Calibri-Bold;writing-mode:lr-tb;fill:#000000;fill-opacity:1;fill-rule:nonzero;stroke:none"
                 id="text34"><tspan
                   x="0 47.195999 73.547997 109.134 135.864 162.216"
                   y="0"
                   sodipodi:role="line"
                   id="tspan32">MENTEE</tspan></text>
            </g>
          </g>
        </g>
      </g>
    </g>
  </g>
</svg>
