<?xml version="1.0" standalone="no"?>
<!DOCTYPE svg PUBLIC "-//W3C//DTD SVG 20010904//EN"
 "http://www.w3.org/TR/2001/REC-SVG-20010904/DTD/svg10.dtd">
<svg version="1.0" xmlns="http://www.w3.org/2000/svg"
 width="230.000000pt" height="224.000000pt" viewBox="0 0 230.000000 224.000000"
 preserveAspectRatio="xMidYMid meet">

<g transform="translate(0.000000,224.000000) scale(0.100000,-0.100000)"
fill="#000000" stroke="none">
<path d="M7 2223 c-3 -5 -2 -45 1 -90 l5 -83 353 0 354 0 0 -60 0 -60 -345 0
c-190 0 -345 -1 -345 -3 0 -2 13 -39 29 -83 l29 -79 313 -5 314 -5 3 -57 3
-58 -331 0 -330 0 0 -470 0 -470 325 0 325 0 0 -125 0 -125 -310 0 -310 0 0
-62 c0 -35 3 -73 6 -85 l6 -23 309 0 309 0 0 -40 0 -40 -335 0 -335 0 0 -80 0
-80 425 0 425 0 0 355 0 355 34 0 c18 0 54 -3 80 -6 l46 -7 0 -354 0 -354 88
3 87 3 3 351 2 351 47 7 c25 3 59 6 74 6 l29 0 0 -355 0 -355 425 0 425 0 0
80 0 80 -329 0 -329 0 -6 23 c-16 61 -37 57 309 57 l315 0 0 54 c0 29 3 68 6
85 l6 31 -316 0 -316 0 0 125 0 125 330 0 330 0 0 470 0 470 -330 0 -330 0 0
60 0 60 313 0 312 0 28 78 c15 43 27 81 27 85 0 4 -153 7 -340 7 l-340 0 0 60
0 60 349 0 348 0 7 46 c3 26 6 66 6 90 l0 44 -442 -2 -443 -3 -3 -307 -2 -308
-80 0 -80 0 -2 308 -3 307 -87 3 -88 3 0 -311 0 -310 -85 0 -85 0 0 310 0 310
-439 0 c-242 0 -442 -3 -444 -7z m333 -1048 l0 -295 -80 0 -80 0 0 289 0 290
43 4 c23 2 59 4 80 5 l37 2 0 -295z m1718 289 l52 -7 0 -288 0 -289 -75 0 -75
0 0 295 0 295 23 0 c12 0 46 -3 75 -6z m-1338 -289 l0 -285 -120 0 -120 0 0
285 0 285 120 0 120 0 0 -285z m1090 0 l0 -285 -115 0 -115 0 0 285 0 285 115
0 115 0 0 -285z m-383 173 l20 -73 -295 -3 c-162 -1 -297 0 -299 2 -4 4 25
125 33 138 3 5 121 8 264 8 l258 0 19 -72z m-31 -314 c-3 -26 -6 -60 -6 -75
l0 -29 -245 0 -245 0 0 75 0 75 251 0 252 0 -7 -46z"/>
</g>
</svg>
