<?xml version="1.0" encoding="UTF-8"?>
<svg version="1.1" viewBox="0 0 288 288" xmlns="http://www.w3.org/2000/svg">
<svg class="gridItem__media" width="288" height="288" enable-background="new 0 0 1600 1200" fill="none" viewBox="0 0 1600 1200" xmlns="http://www.w3.org/2000/svg">
<path class="colorF4F4F4 svgShape" d="m233.39 1106.3c-1.672 0-3.281-0.63-4.509-1.77-1.229-1.13-1.986-2.68-2.121-4.35l-46.86-574.41c-1.2-14.781 2.909-29.506 11.59-41.53l236.3-327c6.314-8.741 14.79-15.693 24.598-20.175 9.807-4.482 20.61-6.341 31.352-5.395l809 71.33c12.8 1.129 24.94 6.192 34.75 14.494 9.82 8.302 16.82 19.437 20.05 31.876l111.14 427.77c2.73 10.501 2.66 21.534-0.2 32l-107.48 393.68c-0.38 1.41-1.22 2.66-2.39 3.55-1.16 0.88-2.59 1.36-4.05 1.36l-1111.2-1.43z" fill="#f4f4f4"/>
<path class="colorB2B6BB svgShape" d="m1388.2 1109h-1193c-0.398 0-0.779-0.16-1.061-0.44-0.281-0.28-0.439-0.66-0.439-1.06s0.158-0.78 0.439-1.06c0.282-0.28 0.663-0.44 1.061-0.44h1193c0.4 0 0.78 0.16 1.06 0.44s0.44 0.66 0.44 1.06-0.16 0.78-0.44 1.06-0.66 0.44-1.06 0.44z" fill="#b2b6bb"/>
<path class="colorDADDDF svgShape" d="m1438 729v-131.32l-8-30.8v162.12h8z" fill="#dadddf"/>
<path class="color000 svgShape" d="m1438 729v-131.32l-8-30.8v162.12h8z" fill="#000" opacity=".1"/>
<path class="colorDADDDF svgShape" d="m1113 332v397h317v-162.12l-19-73.12v215.24h-279v-359h241.65l-4.68-18h-255.97z" fill="#dadddf"/>
<path class="colorF4F4F4 svgShape" d="m1285 373.48v97.71l91.36-110.75-2.71-10.44h-70.02l-18.63 23.48zm126 335.52v-86.69l-69.56 86.69h69.56zm-126-1e-3l126-160.01v-55.23l-10.16-39.11-115.84 139.14v115.21zm0-128.44l113.33-135.56-3.23-12.45-110.1 129.7v18.31zm-95.92 128.44h74.92v-89.99l-74.92 89.99zm25.2-359h-77.28v103.17l77.28-103.17zm-77.28 300.61l127-153.96v-96.71l-127 160.02v90.65zm127-63.619l-103.56 122.01h17.18l86.38-103.32v-18.69z" fill="#f4f4f4"/>
<path class="colorfff svgShape" d="m1137 559.96l127-160.02v-49.94h-49.72l-77.28 103.17v106.79zm166.63-209.96h-18.63v23.48l18.63-23.48zm-39.63 146.65l-127 153.96v58.39h23.44l103.56-122.01v-90.34zm21 65.599l110.1-129.7-18.74-72.11-91.36 110.75v91.06zm56.44 146.75l69.56-86.69v-73.32l-126 160.01h56.44zm-56.44-115.21l115.84-139.14-2.51-9.65-113.33 135.56v13.23zm-21 11.89l-86.38 103.32h11.46l74.92-89.99v-13.33z" fill="#fff"/>
<path class="colorF4F4F4 svgShape" d="m1137 559.96l-4 5.04v-106.49l4-5.34v-103.17h-5v306.67l5-6.06v-90.65z" fill="#f4f4f4"/>
<path class="color000 svgShape" d="m1137 559.96l-4 5.04v-106.49l4-5.34v-103.17h-5v306.67l5-6.06v-90.65z" fill="#000" opacity=".2"/>
<path class="colorfff svgShape" d="m1133 458.51v106.49l4-5.04v-106.79l-4 5.34z" fill="#fff"/>
<path class="color000 svgShape" d="m1133 458.51v106.49l4-5.04v-106.79l-4 5.34z" fill="#000" opacity=".2"/>
<path class="colorfff svgShape" d="m1132 656.67v52.33h5v-58.39l-5 6.06z" fill="#fff"/>
<path class="color000 svgShape" d="m1132 656.67v52.33h5v-58.39l-5 6.06z" fill="#000" opacity=".2"/>
<path class="colorF4F4F4 svgShape" d="m1280 599.79v109.21h5v-115.21l-5 6z" fill="#f4f4f4"/>
<path class="color000 svgShape" d="m1280 599.79v109.21h5v-115.21l-5 6z" fill="#000" opacity=".2"/>
<path class="colorF4F4F4 svgShape" d="m1280 586.54l5-5.98v-18.31l-5 5.89v18.4z" fill="#f4f4f4"/>
<path class="color000 svgShape" d="m1280 586.54l5-5.98v-18.31l-5 5.89v18.4z" fill="#000" opacity=".2"/>
<path class="colorF4F4F4 svgShape" d="m1280 477.25l5-6.06v-97.71l-5 6.3v97.47z" fill="#f4f4f4"/>
<path class="color000 svgShape" d="m1280 477.25l5-6.06v-97.71l-5 6.3v97.47z" fill="#000" opacity=".2"/>
<path class="colorfff svgShape" d="m1285 373.48v-23.48h-5v29.78l5-6.3z" fill="#fff"/>
<path class="color000 svgShape" d="m1285 373.48v-23.48h-5v29.78l5-6.3z" fill="#000" opacity=".2"/>
<path class="colorfff svgShape" d="m1280 568.14l5-5.89v-91.06l-5 6.06v90.89z" fill="#fff"/>
<path class="color000 svgShape" d="m1280 568.14l5-5.89v-91.06l-5 6.06v90.89z" fill="#000" opacity=".2"/>
<path class="colorfff svgShape" d="m1280 599.79l5-6v-13.23l-5 5.98v13.25z" fill="#fff"/>
<path class="color000 svgShape" d="m1280 599.79l5-6v-13.23l-5 5.98v13.25z" fill="#000" opacity=".2"/>
<path class="colorDADDDF svgShape" d="m1280 586.54v-236.54h-16v359h16v-122.46z" fill="#dadddf"/>
<path class="colorFC9D9D svgShape" d="m779.55 774.79l-25.33 20.21c-0.34 0.242-0.714 0.43-1.11 0.56l-20.85 7.56c-2.177 0.821-4.204 1.993-6 3.47l-20.56 17.91c-0.427 0.365-0.697 0.881-0.753 1.44s0.106 1.118 0.453 1.56c0.169 0.241 0.384 0.445 0.633 0.602s0.526 0.263 0.816 0.312c0.29 0.05 0.587 0.041 0.874-0.025s0.557-0.188 0.797-0.359l20.61-14.77-17.2 20.23c-0.412 0.477-0.62 1.097-0.579 1.725 0.042 0.629 0.328 1.216 0.799 1.635 0.455 0.407 1.046 0.626 1.656 0.615s1.194-0.252 1.634-0.675l18.86-17.28-17 15.51c-0.431 0.424-0.69 0.992-0.729 1.595s0.146 1.199 0.519 1.675c0.179 0.246 0.405 0.453 0.665 0.611 0.26 0.157 0.548 0.261 0.849 0.306s0.607 0.029 0.902-0.046c0.294-0.075 0.571-0.208 0.814-0.391l18.25-13.33-15.74 11.58c-0.396 0.311-0.66 0.759-0.74 1.256-0.079 0.497 0.031 1.005 0.31 1.424 0.294 0.429 0.744 0.726 1.253 0.828 0.51 0.103 1.039 3e-3 1.477-0.278l45-28.53 32.55-15.93-23.13-21z" fill="#fc9d9d"/>
<path class="color000 svgShape" d="m716.33 837.64c-0.069 0.024-0.144 0.027-0.215 9e-3s-0.135-0.056-0.185-0.109c-0.073-0.073-0.114-0.172-0.114-0.275s0.041-0.202 0.114-0.275l17-15.51c0.035-0.037 0.078-0.067 0.125-0.087 0.048-0.02 0.098-0.031 0.15-0.031 0.051 0 0.102 0.011 0.149 0.031 0.048 0.02 0.09 0.05 0.126 0.087 0.073 0.073 0.113 0.172 0.113 0.275s-0.04 0.202-0.113 0.275l-17 15.51c-0.039 0.048-0.091 0.082-0.15 0.1zm5.542 2c-0.077 0.026-0.161 0.026-0.238 1e-3 -0.078-0.025-0.145-0.074-0.192-0.141-0.031-0.04-0.054-0.086-0.067-0.136-0.012-0.049-0.015-0.1-8e-3 -0.151 8e-3 -0.05 0.025-0.098 0.052-0.142 0.026-0.043 0.061-0.081 0.103-0.111l15.74-11.58c0.04-0.031 0.086-0.053 0.136-0.066 0.049-0.013 0.1-0.016 0.151-8e-3 0.05 7e-3 0.098 0.025 0.142 0.051 0.043 0.027 0.081 0.062 0.111 0.103 0.06 0.084 0.086 0.189 0.071 0.291-0.015 0.103-0.069 0.196-0.151 0.259l-15.72 11.57c-0.036 0.033-0.082 0.054-0.13 0.06z" fill="#000" opacity=".15"/>
<path class="color000 svgShape" d="m920.77 509c-0.23 0.22-12.26 7.88-12.26 7.88s-2-1.69-12.07-3.79c-10.26 24.61 5 92.2 10.66 108.2 3.7 10.13 11.07-4.27 21.76-5.46 2.61-0.27 0-18.38 1.31-19.94 14.71-16.69-9.44-86.99-9.4-86.89z" fill="#000"/>
<path class="color21252B svgShape" d="m1042.1 987.62c0.75-59.67 0.19-121.23-26.93-188.33l-0.87-3.63-119 0.16-23.33 192.45 170.13-0.65z" fill="#21252b"/>
<path class="color000 svgShape" d="m995.16 795.69c0.56 1 36 68.06 28.23 192l18.74-0.07c0.75-59.67 0.19-121.23-26.93-188.33l-0.84-3.51-16-0.1-3.2 0.01z" fill="#000" opacity=".3"/>
<path class="colorFC9D9D svgShape" d="m992.73 812.6l-12.73 5.45c-2.48 7.09-14.31 13.56-14.31 13.56-4.2 3.1-7.31 1-7.31 1-0.935-0.069-1.838-0.366-2.631-0.865-0.793-0.498-1.452-1.183-1.919-1.995-0.525-0.841-1.237-1.55-2.08-2.07-1.377-0.89-2.407-2.224-2.92-3.78-0.291-0.821-0.763-1.566-1.38-2.18-0.782-0.863-1.367-1.887-1.712-2.999-0.346-1.112-0.444-2.287-0.288-3.441l-21.74 9.11c-0.531 0.302-1.16 0.381-1.748 0.22-0.589-0.161-1.09-0.55-1.392-1.08-0.303-0.53-0.382-1.159-0.221-1.748 0.162-0.589 0.55-1.09 1.081-1.392l30.75-17.3c0.671-0.443 1.433-0.73 2.23-0.84l15.23-4.72 0.29 0.54-0.25-0.5 11.06-6.86 11.99 21.89z" fill="#fc9d9d"/>
<path class="color000 svgShape" d="m992.73 812.6l-12.73 5.45c-2.48 7.09-14.31 13.56-14.31 13.56-4.2 3.1-7.31 1-7.31 1-0.935-0.069-1.838-0.366-2.631-0.864-0.793-0.499-1.452-1.184-1.919-1.996-0.525-0.841-1.237-1.549-2.08-2.07-1.377-0.89-2.407-2.223-2.92-3.78-0.274-0.802-0.729-1.531-1.33-2.13-0.731-0.772-1.296-1.686-1.659-2.686-0.363-0.999-0.517-2.062-0.451-3.124 3.71 9.65 16.32 14 16.32 14 9.81-3.6 18.06-15.39 18.06-15.39l10.39-5 2.57 3.03z" fill="#000" opacity=".1"/>
<path class="change-color-in-svg color4D61FC svgShape" d="m872.92 751l45.39-145-27.31 4.88c-11.37 1.26-21.12 7.17-25.35 17.8l-32.51 105.39-77.94 55.49 13.66 25.72 92-51.09c0.57-0.32 1.15-0.61 1.73-0.91 4.933-2.564 8.648-6.981 10.33-12.28z" fill="#ffdb6f"/>
<path class="color000 svgShape" d="m886.18 644.11s-27.18 35.89-14.01 59.46c0.802 1.411 1.305 2.972 1.477 4.586s9e-3 3.246-0.477 4.794l-8.81 30.83c-1.496 4.644-4.646 8.576-8.85 11.05l-90.66 53 4 7.46 92-51.09c0.57-0.32 1.15-0.61 1.73-0.91 4.939-2.564 8.658-6.985 10.34-12.29l18.08-59.89-4.82-47z" fill="#000" opacity=".2"/>
<path class="change-color-in-svg color4D61FC svgShape" d="m895.17 796.05l119-0.25c-2.56-9.348-4.47-18.86-5.72-28.47-4.87-43.88 7.66-96.11 7.66-96.11l24.63-27.22c0.69-14.28-8.59-27.63-22.17-30.76l-38.19-7.78-62.21-0.11-22.87 8.47c-14.27 4.53-15.73 15.44-15.49 30.41l2.08 10.91-5.89 20.38c-3.49 13.23 1.84 20.89 11 31.57 2.9 3.36 4.41 4.76 5.57 11.14l2.6 77.82z" fill="#ffdb6f"/>
<path class="color21252B svgShape" d="m911.09 607.26c6.98 18.198 18.273 34.429 32.91 47.3 0 0 25.72-19.29 37.77-49l-45-6.43-25.68 8.13z" fill="#21252b"/>
<path class="color000 svgShape" d="m1006.7 640.09l-4.93 26.25c-5.451 30.449-7.856 61.364-7.182 92.29 0.18 7.77-20 30.13-31.28 37.36l50.862-0.19c-2.56-9.348-4.47-18.86-5.72-28.47-3.87-34.82 3.23-74.9 6.32-90l-8.07-37.24z" fill="#000" opacity=".2"/>
<path class="change-color-in-svg color4D61FC svgShape" d="m1076.8 736l-34.51-98.14c-9.83-21.62-12.78-23.26-35.49-27.28l-18.47 10.22 43.34 115.73-62.63 59.47 16.88 21.7 84.11-60.08c3.32-2.382 5.78-5.779 7-9.679 1.22-3.899 1.14-8.091-0.23-11.941z" fill="#ffdb6f"/>
<path class="color000 svgShape" d="m959.91 593.64c5.68 3.8 29 38.6 38.37 33.9 9.369-4.7 3.589-46.89 1.61-57.21-4.92-26.79-19.8-64.8-41.64-79.13-2.72-1.77-11.38-5.62-15.63-3.7l16.84 89s-2.35 15.09 0.45 17.14z" fill="#000"/>
<path class="colorFC9D9D svgShape" d="m945.36 619.55l-26.05-14.33c3.86-0.63 7.26-3.36 7.11-7.65l-0.28-13.47-0.26-5.73-1.47-35.32 38 6.56 5.48 46.19c0.223 1.918 1.062 3.711 2.391 5.112 1.328 1.401 3.075 2.333 4.979 2.658 0.32 0.07 0.59 0 0.91 0l-30.81 15.98z" fill="#fc9d9d"/>
<path class="color000 svgShape" d="m947.67 575.92c-0.05-0.09-0.118-0.169-0.2-0.232-0.081-0.063-0.174-0.109-0.274-0.136-0.099-0.027-0.203-0.034-0.306-0.021-0.102 0.013-0.2 0.047-0.29 0.099-2.5 1.42-5.339 3.3-7.669 4.07l-13.16-0.25v7.08c2.404 0.101 4.803-0.302 7.042-1.183 2.239-0.882 4.268-2.223 5.958-3.937 3.005-1.172 5.881-2.653 8.579-4.42 0.185-0.1 0.322-0.268 0.382-0.469s0.038-0.417-0.062-0.601z" fill="#000" opacity=".15"/>
<path class="colorFC9D9D svgShape" d="m905.77 554.25l-3.3-35.79c-0.44-6.59 4.18-12.19 10.41-12.42l34-1.57c4.7-0.26 8.86 3.64 9.3 8.74l2.69 38.42c0.66 11.32-8.77 27-24.34 29.06l-1.94 0.09c-14.92 1.22-25.71-11.5-26.82-26.53z" fill="#fc9d9d"/>
<path class="colorfff svgShape" d="m931.75 560.36l-12.47 0.19c-0.45 0-0.61 0.47-0.35 0.85l1.23 1.74c0.653 0.893 1.516 1.612 2.512 2.094 0.997 0.481 2.096 0.711 3.202 0.669 1.106-0.043 2.184-0.356 3.141-0.913 0.956-0.556 1.761-1.339 2.345-2.28l0.89-1.59c0.21-0.37-0.1-0.87-0.5-0.76z" fill="#fff"/>
<path class="color000 svgShape" d="m934.84 544.16c0.57-0.162 1.079-0.488 1.464-0.939 0.385-0.45 0.627-1.005 0.697-1.593s-0.035-1.184-0.303-1.712c-0.268-0.529-0.687-0.966-1.203-1.256-0.516-0.291-1.107-0.423-1.698-0.378-0.59 0.044-1.155 0.263-1.622 0.627-0.466 0.365-0.815 0.86-1.001 1.422-0.186 0.563-0.201 1.168-0.044 1.739 0.105 0.381 0.285 0.739 0.528 1.05 0.244 0.312 0.547 0.573 0.892 0.767s0.725 0.319 1.118 0.365c0.393 0.047 0.791 0.016 1.172-0.092z" fill="#000"/>
<path class="colorfff svgShape" d="m933.07 543.16c0.146-0.04 0.27-0.136 0.345-0.267s0.095-0.287 0.055-0.433c-0.039-0.146-0.135-0.27-0.267-0.345-0.131-0.075-0.287-0.095-0.433-0.055-0.143 0.044-0.264 0.141-0.338 0.271s-0.096 0.284-0.062 0.429c0.042 0.145 0.139 0.267 0.27 0.342 0.13 0.074 0.285 0.095 0.43 0.058z" fill="#fff"/>
<path class="color000 svgShape" d="m911.9 546.82c0.57-0.161 1.079-0.487 1.464-0.937s0.629-1.004 0.699-1.591c0.071-0.588-0.033-1.184-0.301-1.712-0.267-0.529-0.684-0.967-1.199-1.258-0.516-0.292-1.106-0.425-1.696-0.381-0.591 0.043-1.155 0.259-1.623 0.623-0.467 0.363-0.817 0.857-1.005 1.418-0.187 0.562-0.204 1.166-0.049 1.738 0.104 0.382 0.283 0.74 0.526 1.053s0.546 0.575 0.891 0.77c0.345 0.196 0.725 0.321 1.119 0.368 0.393 0.047 0.793 0.016 1.174-0.091z" fill="#000"/>
<path class="colorfff svgShape" d="m910 545.71c0.144-0.042 0.267-0.138 0.341-0.269 0.075-0.131 0.096-0.285 0.059-0.431-0.044-0.145-0.143-0.268-0.275-0.342-0.132-0.075-0.288-0.095-0.435-0.058-0.072 0.02-0.14 0.055-0.199 0.101-0.059 0.047-0.108 0.104-0.145 0.17-0.036 0.065-0.06 0.137-0.069 0.212-8e-3 0.074-2e-3 0.15 0.018 0.222s0.055 0.14 0.101 0.199c0.047 0.059 0.104 0.108 0.17 0.145 0.065 0.036 0.137 0.06 0.212 0.069 0.074 8e-3 0.15 2e-3 0.222-0.018z" fill="#fff"/>
<path class="color000 svgShape" d="m918.67 553c-6e-3 -0.936 0.351-1.839 0.996-2.518 0.645-0.678 1.528-1.081 2.464-1.122 0.42-0.11 0.84 0.36 0.82 0.82s-0.36 0.84-0.82 0.82c-0.232 7e-3 -0.461 0.059-0.674 0.154-0.212 0.095-0.403 0.231-0.563 0.4-0.323 0.341-0.496 0.797-0.483 1.266s0.212 0.914 0.554 1.237c0.341 0.322 0.797 0.496 1.266 0.483l4-0.08c0.42-0.11 0.84 0.36 0.82 0.82s-0.36 0.85-0.82 0.82l-4 0.07c-0.891 0.046-1.765-0.26-2.431-0.854-0.667-0.593-1.072-1.425-1.129-2.316z" fill="#000" opacity=".15"/>
<path class="color000 svgShape" d="m897.45 531.78l6.66 9-1.31-22.42c0-1.64 0.72-4.36 2.39-4.24 6.8 0.34 37.76 3.51 47.87 4l0.22 4.56c0.319 5.056 1.499 10.021 3.49 14.68 0.122 0.293 0.327 0.545 0.59 0.724s0.572 0.277 0.89 0.283c0.318 7e-3 0.631-0.079 0.901-0.248 0.269-0.168 0.484-0.411 0.619-0.699 1.1-1.94 2.7-4.79 3-4.71 2.18 0.88 7.7 10.53 8.32 8 1.52-5.79 9.08-14 10.39-22.1 0 0-9.67-18.17-23.06-27.25-22.18-15-63.88-3.7-64.78 38.11l1.52-0.42 2.29 2.73z" fill="#000"/>
<path class="colorFC9D9D svgShape" d="m958.73 552.41l1.541-14.28c2.16-13.12 18.38-11.07 15.76 2s-15.661 12.24-15.661 12.24l-1.64 0.04z" fill="#fc9d9d"/>
<path class="color000 svgShape" d="m972.14 534.7c-0.137 0.161-0.329 0.266-0.539 0.296-0.21 0.029-0.424-0.019-0.601-0.136-0.789-0.561-1.756-0.817-2.72-0.72-0.432 0.145-0.832 0.375-1.175 0.675s-0.623 0.666-0.825 1.075c-0.641 1.298-1.005 2.714-1.07 4.16v1.49c-0.032 0.225-0.147 0.429-0.322 0.574-0.175 0.144-0.397 0.218-0.624 0.206-0.226-0.011-0.44-0.106-0.6-0.267s-0.254-0.376-0.264-0.603l0.07-1.36c0.048-1.806 0.524-3.574 1.39-5.16 0.289-0.648 0.719-1.223 1.259-1.683s1.176-0.794 1.861-0.977c0.7-0.127 1.419-0.104 2.108 0.069 0.69 0.172 1.335 0.49 1.892 0.931 0.181 0.188 0.295 0.429 0.324 0.688s-0.029 0.52-0.164 0.742z" fill="#000" opacity=".15"/>
<path class="colorfff svgShape" d="m895.57 544.35c0.302 3.021 1.738 5.815 4.017 7.819 2.28 2.005 5.235 3.071 8.27 2.983 3.034-0.087 5.923-1.322 8.083-3.454 2.161-2.133 3.433-5.005 3.56-8.038-0.064-2.194-0.713-4.331-1.88-6.19 1.907-0.761 3.999-0.925 6-0.47-0.433 1.249-0.62 2.57-0.55 3.89 0.063 2.375 0.829 4.678 2.202 6.618 1.373 1.939 3.29 3.427 5.509 4.275 2.22 0.849 4.641 1.019 6.957 0.49s4.424-1.734 6.055-3.462c1.63-1.727 2.712-3.9 3.106-6.243 0.395-2.343 0.085-4.751-0.889-6.917-0.975-2.167-2.571-3.996-4.586-5.254-2.015-1.259-4.359-1.891-6.734-1.817-2.202 0.109-4.335 0.811-6.172 2.031-1.837 1.219-3.312 2.912-4.268 4.899-2.471-0.634-5.087-0.379-7.39 0.72-1.14-1.369-2.575-2.463-4.197-3.199-1.623-0.736-3.391-1.095-5.173-1.051-3.203 0.112-6.238 1.465-8.463 3.773-2.224 2.308-3.464 5.391-3.457 8.597zm29.13-3.47c-0.058-2.06 0.496-4.091 1.591-5.837 1.096-1.745 2.685-3.126 4.566-3.969 1.881-0.842 3.97-1.108 6.002-0.763s3.916 1.284 5.414 2.7c1.498 1.415 2.542 3.243 3.001 5.252s0.312 4.109-0.422 6.035c-0.735 1.926-2.024 3.59-3.704 4.783-1.681 1.193-3.678 1.861-5.738 1.919-2.759 0.067-5.433-0.958-7.439-2.854s-3.182-4.507-3.271-7.266zm-27.38 3.28c-0.056-2.061 0.5-4.093 1.598-5.837 1.098-1.745 2.69-3.125 4.573-3.965s3.972-1.103 6.005-0.755c2.032 0.348 3.915 1.291 5.411 2.71s2.538 3.25 2.993 5.261c0.454 2.011 0.303 4.112-0.437 6.037-0.739 1.924-2.033 3.586-3.718 4.775-1.684 1.189-3.683 1.852-5.745 1.904-1.369 0.047-2.733-0.179-4.014-0.665s-2.452-1.221-3.446-2.164-1.791-2.074-2.343-3.327c-0.553-1.254-0.851-2.604-0.877-3.974z" fill="#fff"/>
<path class="change-color-in-svg color4D61FC svgShape" d="m964.39 550.25c0.494-0.136 0.938-0.416 1.273-0.803 0.335-0.388 0.548-0.867 0.612-1.376 0.063-0.509-0.027-1.025-0.257-1.483s-0.592-0.837-1.038-1.09c-0.446-0.252-0.957-0.367-1.469-0.329-0.511 0.039-1 0.228-1.403 0.544-0.404 0.316-0.705 0.745-0.865 1.232s-0.171 1.011-0.033 1.505c0.184 0.659 0.623 1.219 1.218 1.556 0.596 0.337 1.302 0.425 1.962 0.244z" fill="#ffdb6f"/>
<path class="color000 svgShape" d="m962.47 549.74c0.201 0.173 0.434 0.305 0.687 0.387 0.252 0.083 0.518 0.114 0.783 0.092 0.345 0.011 0.688-0.051 1.008-0.181s0.608-0.326 0.848-0.575c0.239-0.249 0.424-0.545 0.541-0.869 0.118-0.325 0.167-0.67 0.143-1.014-0.017-0.412-0.131-0.814-0.335-1.173-0.203-0.358-0.49-0.663-0.835-0.887 0.285 0.454 0.431 0.983 0.42 1.519 6e-3 0.738-0.276 1.45-0.786 1.984-0.509 0.533-1.207 0.848-1.944 0.877-0.33 0.1-0.46 0.1-0.53-0.16zm2.27 12.48l-6.29-9.73 4.56-0.23 1.73 9.96z" fill="#000" opacity=".15"/>
<path class="colorF4F4F4 svgShape" d="m925.77 600l19.08 18.4 24.43-19.53 6.91 5.06-20.09 28.13-10.45-12.06-10.45 12.86-16.87-27.32 7.44-5.54z" fill="#f4f4f4"/>
<path class="color000 svgShape" d="m899.75 511.16l26-10.8 21-2s28.07 21.68 6.63 32.4c-22.89 11.44-28.75-24.62-50.57-12.6l-3.06-7zm104.73 115.31c-11.78 6.39-44 5.59-44 5.59 7.83-19 2.49-79.78 2.49-79.78s28.551-2.94 34.241 6.27c0.05-0.02 14.789 63.85 7.269 67.92z" fill="#000"/>
<path class="color000 svgShape" d="m985.83 817.69l84.109-60.08c3.32-2.373 5.78-5.76 7.01-9.652s1.17-8.078-0.19-11.928l-2.64-7.52c0.47 13.27-11.81 23.86-19.53 29.18-7.49 5.16-14.9 10.42-22.15 15.9l-50.999 38.52 4.39 5.58z" fill="#000" opacity=".2"/>
<path class="color868A91 svgShape" d="m1297 967h-981v25h981v-25zm-39.83 25h-901.35v114h901.35v-114z" fill="#868a91"/>
<path class="color000 svgShape" d="m1256.2 992h-116.55v114h116.55v-114zm40.8-25h-127.24v25h127.24v-25zm-157.35 25h-784.8v5h784.8v-5z" fill="#000" opacity=".2"/>
<path class="change-color-in-svg color4D61FC svgShape" d="m570.44 967.87l171.77-0.76-20.86-184.63c-0.488-5.766-2.792-11.228-6.582-15.601-3.79-4.372-8.87-7.429-14.508-8.729l-51.77-13.27-49.271 0.13-53.069 12.53c-6.446 1.548-12.174 5.239-16.249 10.467s-6.254 11.685-6.181 18.313l20.8 156.93v23.75l25.92 0.87z" fill="#ffdb6f"/>
<path class="colorfff svgShape" d="m707.32 826.99h-138.79v15.1h138.79v-15.1z" fill="#fff"/>
<path class="color000 svgShape" d="m548.37 805.94l22.85-8.53c0.91-0.165 1.846-0.13 2.741 0.101 0.896 0.232 1.73 0.655 2.446 1.241s1.297 1.32 1.701 2.152c0.405 0.832 0.624 1.742 0.642 2.666l-0.87 101.09 92.77 19.42-0.5 43h-126.57l4.79-161.14zm158.96-1.939v150.71l36.31-0.07v-9.35l-11.38-3.9c-4.071-1.398-7.631-3.982-10.222-7.42-2.591-3.437-4.095-7.571-4.318-11.87l-6-118.18c-0.031-0.566-0.277-1.099-0.687-1.489-0.411-0.39-0.956-0.609-1.523-0.611-0.576 8e-3 -1.126 0.24-1.533 0.647-0.407 0.408-0.639 0.958-0.647 1.533z" fill="#000" opacity=".2"/>
<path class="colorfff svgShape colorStroke000 svgStroke" d="m706.39 948.83v0.1-0.1z" fill="#fff" stroke="#000" stroke-miterlimit="10" stroke-width="1.32"/>
<path class="colorFC9D9D svgShape" d="m667.67 926.88l14.26 1.91 22.53-4.87c2.633 0.06 5.141 1.135 7 3l26.7 18.93c0.569 0.517 0.917 1.233 0.972 2 0.056 0.767-0.184 1.525-0.672 2.12-0.49 0.598-1.192 0.984-1.959 1.077-0.768 0.093-1.542-0.113-2.161-0.577l-21.65-14.55 15.42 15.15c0.305 0.356 0.519 0.781 0.624 1.237 0.106 0.457 0.099 0.932-0.019 1.386-0.117 0.454-0.343 0.872-0.657 1.22-0.315 0.347-0.708 0.614-1.148 0.777-0.508 0.178-1.054 0.217-1.582 0.111-0.528-0.105-1.018-0.351-1.418-0.711l-15.47-15.17 11.76 11.55c0.322 0.314 0.56 0.703 0.691 1.133 0.132 0.43 0.153 0.886 0.063 1.326-0.091 0.44-0.291 0.85-0.581 1.193-0.291 0.343-0.663 0.607-1.083 0.768-0.423 0.183-0.887 0.252-1.345 0.199-0.458-0.052-0.894-0.225-1.265-0.499l-16.47-12.05 11.15 8.24c0.302 0.218 0.547 0.504 0.717 0.835 0.169 0.331 0.257 0.698 0.257 1.07s-0.088 0.739-0.257 1.07c-0.17 0.331-0.415 0.617-0.717 0.835-0.327 0.244-0.711 0.399-1.116 0.452-0.404 0.052-0.815 0-1.194-0.152l-15-6.22c-0.716-0.31-1.49-0.462-2.271-0.445-0.78 0.017-1.547 0.203-2.249 0.545l-5.73 2.12c-3.44 1.63-8.23 1.27-13.35 1.27l-11.71 0.09c2.18-7.97 8.93-26.37 8.93-26.37z" fill="#fc9d9d"/>
<path class="color000 svgShape" d="m697 947.48c3.57 1.79 9.55 4.83 11.65 6 2.93 1.68 3.77-0.52 3.77-0.52 0.111 0.481 0.082 0.983-0.085 1.448-0.166 0.465-0.463 0.872-0.855 1.172-0.344 0.252-0.746 0.414-1.169 0.47-0.423 0.055-0.853 4e-3 -1.251-0.15l-15.63-6.51c-0.749-0.321-1.558-0.478-2.372-0.459s-1.615 0.213-2.348 0.569l3-1.79c0.801-0.453 1.698-0.71 2.617-0.75 0.92-0.04 1.836 0.138 2.673 0.52zm12.148 3.829c-0.057 7e-3 -0.115 0-0.168-0.019-0.054-0.019-0.103-0.05-0.142-0.091l-10.71-7.87c-0.056-0.041-0.103-0.092-0.139-0.151-0.035-0.059-0.058-0.125-0.067-0.193-0.01-0.068-5e-3 -0.137 0.013-0.204 0.018-0.066 0.05-0.128 0.093-0.182 0.21-0.21 0.52-0.32 0.73-0.11l10.7 7.87c0.21 0.21 0.32 0.53 0.11 0.74-0.117 0.109-0.263 0.182-0.42 0.21zm9.061-0.7c-0.11 0-0.32 0-0.32-0.1l-11.54-11.34c-0.05-0.047-0.09-0.103-0.117-0.166-0.028-0.063-0.042-0.13-0.042-0.199 0-0.068 0.014-0.136 0.042-0.199 0.027-0.062 0.067-0.119 0.117-0.166 0.047-0.05 0.105-0.09 0.168-0.117 0.064-0.028 0.132-0.042 0.202-0.042 0.069 0 0.137 0.014 0.201 0.042 0.064 0.027 0.121 0.067 0.169 0.117l11.54 11.33c0.05 0.048 0.09 0.105 0.117 0.169 0.028 0.064 0.042 0.132 0.042 0.201s-0.014 0.138-0.042 0.202c-0.027 0.063-0.067 0.121-0.117 0.168-0.125 0.079-0.273 0.114-0.42 0.1z" fill="#000" opacity=".15"/>
<path class="change-color-in-svg color4D61FC svgShape" d="m670.65 927l-101.16-15.1 5.75-115.78-51.41-12.59-5.68 151.14c0.038 3.333 0.744 6.625 2.076 9.681 1.332 3.055 3.264 5.812 5.681 8.108 2.416 2.295 5.269 4.083 8.389 5.256 3.12 1.174 6.444 1.709 9.774 1.575l126.58-6v-26.29z" fill="#ffdb6f"/>
<path class="colorFC9D9D svgShape" d="m606.55 750.47c13.77 9.22 27.35 10.95 41.91 3 2.074-1.147 4.054-2.458 5.92-3.92l0.84-0.64c1.48-1.23 0.84-3.2 0.59-5l-1.35-24.19c0.681-2.907 1.016-5.884 1-8.87 0.49-15.15 1.85-28.83 1.85-28.83s-50.27-31.54-52.24 7l-0.74 10-3.45 44.76c0.021 0.915 0.265 1.81 0.711 2.608 0.447 0.798 1.081 1.475 1.849 1.972l3.11 2.11z" fill="#fc9d9d"/>
<path class="color000 svgShape" d="m661.73 684.33c3.363 0 6.65-0.997 9.445-2.865 2.796-1.868 4.975-4.523 6.261-7.629 1.287-3.107 1.624-6.525 0.968-9.822-0.656-3.298-2.275-6.327-4.653-8.705-2.377-2.377-5.406-3.996-8.704-4.652s-6.716-0.32-9.822 0.967-5.761 3.466-7.629 6.261c-1.868 2.796-2.866 6.083-2.866 9.445 0 4.509 1.792 8.833 4.98 12.021s7.512 4.979 12.02 4.979z" fill="#000"/>
<path class="colorFC9D9D svgShape" d="m666.43 657.33s11 76.22-27.71 77.78c-33.53 1.42-32.53-50.57-32.53-50.57l4.63-33.36 55.61 6.15z" fill="#fc9d9d"/>
<path class="color000 svgShape" d="m660.75 659.44l-34 2.47c-2.026 0.186-3.901 1.149-5.232 2.687s-2.015 3.531-1.908 5.563c0.073 1.012-0.054 2.028-0.373 2.991-0.32 0.963-0.826 1.854-1.49 2.621s-1.473 1.396-2.38 1.85c-0.907 0.455-1.895 0.726-2.907 0.798-0.548 0.061-1.054 0.321-1.422 0.73-0.369 0.409-0.574 0.939-0.578 1.49l0.49 7.51c0.034 0.23 0.019 0.464-0.046 0.687-0.064 0.224-0.177 0.43-0.329 0.606s-0.34 0.317-0.552 0.413c-0.211 0.096-0.441 0.145-0.673 0.144-0.422 0.039-0.843-0.078-1.184-0.329-0.34-0.251-0.578-0.617-0.666-1.031l-1.5-7.14-1.47-2.34-8 4.92s-12.94-20-6.78-38.19c3.57-10.35 13.8-14 18.73-14.66 0.777-0.111 1.522-0.389 2.181-0.815 0.66-0.427 1.219-0.991 1.639-1.655 2-3.32 6.77-9.11 17.49-8.74 3.036 0 6.023 0.769 8.682 2.234s4.905 3.58 6.528 6.146c0.689 1.036 1.726 1.791 2.924 2.128 1.198 0.338 2.477 0.235 3.606-0.288 3.45-1.6 8.5-2.46 14.41 1.11 11.06 7.02 6.64 26.25-5.19 28.09z" fill="#000"/>
<path class="color000 svgShape" d="m604.32 701.46s3.2 0.24 4.93-1.11l-5.42 8.38 0.49-7.27z" fill="#000" opacity=".15"/>
<path class="colorFC9D9D svgShape" d="m606.17 681.5s-2.47-7-9.86-3.82c-8.38 3.69-6.65 22.67 7.52 23.78 7.39 0.61 5.91-3.7 4.68-9.49l-2.34-10.47z" fill="#fc9d9d"/>
<path class="color000 svgShape" d="m595.94 682.61c0.568-0.447 1.22-0.776 1.917-0.967 0.698-0.19 1.426-0.239 2.143-0.143 0.688 0.174 1.33 0.495 1.882 0.94s1.002 1.005 1.318 1.64c0.908 1.574 1.377 3.363 1.36 5.18l0.12 1.6c-0.023 0.214-0.124 0.411-0.284 0.554-0.16 0.144-0.367 0.223-0.581 0.223-0.215 0-0.422-0.079-0.582-0.223-0.159-0.143-0.26-0.34-0.283-0.554l-0.12-1.6c-0.057-1.499-0.436-2.969-1.11-4.31-0.168-0.459-0.448-0.87-0.815-1.194-0.366-0.324-0.808-0.551-1.285-0.662-0.476-0.11-0.973-0.099-1.444 0.031-0.472 0.13-0.904 0.376-1.256 0.715-0.204 0.108-0.439 0.142-0.665 0.096-0.226-0.045-0.429-0.168-0.575-0.346-0.23-0.12-0.11-0.59 0.26-0.98zm60.329 57.391l-1.27-12c-3.2 3.32-13.16 8.85-23.64 6.38-5.227-1.314-9.903-4.247-13.36-8.38-0.133-0.165-0.326-0.27-0.536-0.292-0.21-0.023-0.42 0.039-0.584 0.172-0.165 0.132-0.27 0.325-0.292 0.535-0.023 0.21 0.039 0.42 0.172 0.585 4.523 5.269 10.855 8.654 17.75 9.49 3.179 2.075 6.758 3.46 10.507 4.065 3.748 0.605 7.582 0.415 11.253-0.555zm-11.047-20.551c0 0.12-0.12 0.12 0 0-3.2 0.24-4.68 0.37-4.68 0.37-0.278 6e-3 -0.547-0.094-0.753-0.28-0.207-0.186-0.334-0.443-0.357-0.72-0.016-0.14-1e-3 -0.282 0.042-0.416 0.043-0.135 0.114-0.258 0.209-0.363 0.094-0.105 0.21-0.189 0.339-0.246s0.269-0.086 0.41-0.085l4.56-0.37c0.261-0.031 0.523 0.042 0.731 0.203 0.208 0.16 0.344 0.397 0.379 0.657-0.01 0.8-0.38 1.25-0.88 1.25zm1.777-4.45c-8.38 1.23-12.2-3.33-13.55-5.54-0.082-0.113-0.14-0.242-0.169-0.379s-0.03-0.278-1e-3 -0.415 0.086-0.266 0.168-0.38c0.082-0.113 0.187-0.208 0.308-0.278 0.121-0.071 0.256-0.115 0.395-0.13s0.279-1e-3 0.413 0.042c0.133 0.042 0.256 0.113 0.36 0.206 0.105 0.093 0.188 0.207 0.246 0.334 1.23 2.22 5.42 7 15.53 3.7 0.128-0.082 0.274-0.133 0.425-0.151 0.151-0.017 0.305 0 0.448 0.051 0.144 0.051 0.274 0.134 0.38 0.243 0.107 0.109 0.187 0.241 0.235 0.385 0.048 0.145 0.062 0.298 0.042 0.449-0.021 0.151-0.075 0.295-0.16 0.422-0.085 0.126-0.197 0.232-0.329 0.308-0.132 0.077-0.279 0.122-0.431 0.133-1.4 0.474-2.844 0.809-4.31 1z" fill="#000" opacity=".15"/>
<path class="color000 svgShape" d="m635.37 695.3c0.609 0 1.205-0.181 1.711-0.519 0.507-0.339 0.902-0.82 1.135-1.383 0.233-0.562 0.294-1.182 0.175-1.779-0.119-0.598-0.412-1.146-0.843-1.577s-0.98-0.724-1.577-0.843-1.217-0.058-1.78 0.175c-0.562 0.233-1.043 0.628-1.382 1.134-0.338 0.507-0.519 1.102-0.519 1.712 0 0.404 0.08 0.805 0.235 1.178 0.154 0.374 0.381 0.714 0.667 1s0.626 0.512 0.999 0.667c0.374 0.155 0.775 0.235 1.179 0.235z" fill="#000"/>
<path class="colorfff svgShape" d="m636.72 693.08c0.165 0 0.323-0.066 0.439-0.182s0.181-0.274 0.181-0.438c1e-3 -0.081-0.016-0.161-0.047-0.236s-0.077-0.142-0.135-0.199c-0.057-0.057-0.126-0.102-0.201-0.132s-0.156-0.045-0.237-0.043c-0.161 0-0.316 0.064-0.431 0.178-0.114 0.115-0.179 0.27-0.179 0.432-1e-3 0.081 0.014 0.161 0.044 0.236s0.075 0.144 0.132 0.202c0.056 0.057 0.124 0.103 0.199 0.134 0.074 0.032 0.154 0.048 0.235 0.048z" fill="#fff"/>
<path class="color000 svgShape" d="m659.76 695.42c0.609 0 1.204-0.181 1.711-0.519 0.506-0.339 0.901-0.82 1.134-1.383 0.233-0.562 0.294-1.182 0.176-1.779-0.119-0.598-0.413-1.146-0.843-1.577-0.431-0.431-0.98-0.724-1.577-0.843-0.598-0.119-1.217-0.058-1.78 0.175s-1.044 0.628-1.382 1.135c-0.339 0.506-0.519 1.102-0.519 1.711 0 0.404 0.079 0.805 0.234 1.178 0.155 0.374 0.382 0.714 0.668 1s0.625 0.513 0.999 0.667c0.374 0.155 0.774 0.235 1.179 0.235z" fill="#000"/>
<path class="colorfff svgShape" d="m661.12 693.2c0.162 0 0.317-0.065 0.431-0.179 0.115-0.114 0.179-0.269 0.179-0.431 1e-3 -0.081-0.013-0.162-0.044-0.237-0.03-0.075-0.074-0.143-0.131-0.201s-0.125-0.104-0.199-0.135c-0.075-0.031-0.155-0.047-0.236-0.047-0.164 0-0.322 0.065-0.438 0.181-0.117 0.117-0.182 0.274-0.182 0.439 0 0.081 0.016 0.161 0.047 0.235 0.032 0.075 0.077 0.143 0.135 0.2 0.058 0.056 0.126 0.101 0.201 0.131 0.076 0.03 0.156 0.045 0.237 0.044z" fill="#fff"/>
<path class="color000 svgShape" d="m649.17 707.49l-4.07 0.25c-0.233-3e-3 -0.457-0.095-0.626-0.256s-0.271-0.38-0.286-0.613c-0.016-0.233 0.058-0.464 0.205-0.645 0.146-0.182 0.356-0.302 0.587-0.336l4.06-0.24c0.491-0.031 0.949-0.257 1.273-0.626 0.325-0.37 0.489-0.853 0.457-1.344-0.031-0.49-0.257-0.948-0.626-1.273-0.37-0.324-0.853-0.488-1.344-0.457-0.242 3e-3 -0.477-0.083-0.661-0.241-0.184-0.159-0.305-0.378-0.339-0.619-0.12-0.5 0.37-0.86 0.86-1 0.966-0.06 1.919 0.251 2.662 0.87 0.744 0.619 1.223 1.5 1.338 2.46 0.064 1-0.265 1.985-0.917 2.745-0.652 0.761-1.575 1.236-2.573 1.325z" fill="#000" opacity=".15"/>
<path class="color000 svgShape" d="m668.8 682.5l-13.43-0.4-1.84-0.06-11.7-0.34h-0.13l-15.15-0.44c-0.583-0.02-1.164 0.076-1.709 0.282s-1.044 0.517-1.468 0.917-0.765 0.88-1.002 1.412c-0.238 0.533-0.367 1.107-0.381 1.689l-0.1 3.45c-4e-3 3.145 1.218 6.168 3.408 8.426 2.189 2.257 5.173 3.572 8.316 3.664 3.144 0.093 6.2-1.044 8.518-3.169 2.319-2.125 3.717-5.071 3.898-8.211l0.1-3.45c0.022-0.991-0.3-1.959-0.91-2.74l4.68 0.14c-0.614 0.762-0.946 1.712-0.94 2.69l-0.1 3.45c-4e-3 3.145 1.218 6.168 3.408 8.426 2.189 2.257 5.173 3.572 8.316 3.664 3.144 0.093 6.2-1.044 8.518-3.169 2.319-2.125 3.717-5.071 3.898-8.211l0.1-3.45c0.021-0.583-0.074-1.165-0.279-1.711-0.205-0.547-0.517-1.047-0.917-1.472s-0.88-0.766-1.413-1.005c-0.533-0.238-1.108-0.367-1.691-0.382zm-24.4 3.71l-0.1 3.45c-5e-3 1.369-0.284 2.723-0.818 3.983-0.535 1.26-1.316 2.4-2.297 3.355-0.981 0.954-2.143 1.703-3.417 2.203s-2.635 0.741-4.003 0.708c-1.369-0.032-2.717-0.337-3.966-0.897-1.249-0.561-2.373-1.364-3.308-2.364-0.934-1-1.66-2.177-2.134-3.461s-0.688-2.649-0.627-4.017l0.1-3.44c0.028-0.716 0.336-1.392 0.858-1.884s1.215-0.759 1.932-0.746l15.15 0.45h0.12c0.685 0.021 1.334 0.313 1.804 0.812 0.471 0.498 0.724 1.163 0.706 1.848zm26.87 4.25c-1e-3 1.371-0.276 2.727-0.808 3.989-0.532 1.263-1.31 2.407-2.29 3.364-0.98 0.958-2.142 1.71-3.416 2.213-1.275 0.503-2.637 0.746-4.006 0.715-1.37-0.03-2.72-0.334-3.971-0.893-1.251-0.56-2.377-1.363-3.313-2.364-0.936-1-1.663-2.177-2.138-3.463-0.475-1.285-0.689-2.652-0.628-4.021l0.1-3.45c0.031-0.714 0.34-1.388 0.861-1.877 0.522-0.49 1.214-0.756 1.929-0.743l1.85 0.05 13.42 0.4c0.717 0.027 1.395 0.334 1.887 0.856s0.759 1.217 0.743 1.934l-0.22 3.29z" fill="#000"/>
<path class="color21252B svgShape" d="m876.32 966.94h-263v-12.25h263l0.13 0.24c0.99 1.85 1.496 3.92 1.474 6.017-0.023 2.098-0.574 4.156-1.604 5.983v0.01z" fill="#21252b"/>
<path class="color000 svgShape" d="m876.32 966.94h-263v-12.25h263c1.176 1.827 1.8 3.953 1.8 6.125 0 2.173-0.624 4.299-1.8 6.125z" fill="#000" opacity=".3"/>
<path class="color21252B svgShape" d="m876.87 954.96h-147.08l54.8-109.12h147.08l-54.8 109.12z" fill="#21252b"/>
<path class="color000 svgShape" d="m876.87 954.96h-147.08l54.8-109.12h147.08l-54.8 109.12z" fill="#000" opacity=".3"/>
<path class="color21252B svgShape" d="m613.87 954.33h115c0.584 0 1.163 0.115 1.703 0.339 0.54 0.223 1.03 0.551 1.444 0.964 0.413 0.414 0.741 0.904 0.964 1.444 0.224 0.54 0.339 1.119 0.339 1.703v3.35c0 0.584-0.115 1.163-0.339 1.703-0.223 0.54-0.551 1.03-0.964 1.444-0.414 0.413-0.904 0.741-1.444 0.964-0.54 0.224-1.119 0.339-1.703 0.339h-115v-12.25z" fill="#21252b"/>
<path class="color21252B svgShape" d="m730.46 956.29l-4.82-1.96 54.8-108.49h5.48l-55.46 110.45z" fill="#21252b"/>
<path class="colorfff svgShape" d="m841.94 908.64c3.803-4.2 4.444-9.817 1.43-12.546-3.013-2.728-8.539-1.535-12.342 2.666-3.803 4.2-4.444 9.817-1.431 12.545 3.013 2.729 8.539 1.535 12.343-2.665z" fill="#fff" opacity=".2"/>
<path class="color000 svgShape" d="m731.31 954.58l145.22 0.09 0.79-1.58h-145.26l-0.75 1.49z" fill="#000" opacity=".3"/>
<path class="color21252B svgShape" d="m1171.5 917.59h-58.67v29.49c0 5.174 2.05 10.137 5.71 13.795 3.66 3.659 8.62 5.715 13.8 5.715h19.28c5.13 0 10.05-2.021 13.71-5.626 3.65-3.605 5.73-8.503 5.8-13.634l0.37-29.74z" fill="#21252b"/>
<path class="change-color-in-svg color4D61FC svgShape" d="m1138.2 908.73c-1.43 0.967-3.09 1.551-4.81 1.697-1.72 0.145-3.45-0.153-5.02-0.867-1.53-0.864-2.82-2.092-3.76-3.575s-1.49-3.175-1.62-4.925c1.51-0.768 3.16-1.21 4.86-1.298 1.69-0.087 3.38 0.181 4.96 0.788 1.54 0.689 2.92 1.695 4.04 2.953 1.13 1.258 1.98 2.739 2.49 4.347m-28.23 11.329c-1.43 0.97-3.08 1.556-4.8 1.702-1.72 0.145-3.45-0.155-5.02-0.872-1.53-0.864-2.82-2.092-3.75-3.574-0.94-1.483-1.5-3.175-1.63-4.926 1.51-0.766 3.17-1.206 4.86-1.292s3.38 0.184 4.96 0.792c1.54 0.684 2.92 1.689 4.05 2.948 1.12 1.258 1.97 2.742 2.47 4.352m14.07-22.47c-0.66 1.595-1.73 2.994-3.08 4.062-1.36 1.067-2.97 1.769-4.68 2.038-1.75 0.118-3.5-0.199-5.1-0.921s-2.99-1.828-4.06-3.219c0.84-1.471 1.98-2.749 3.35-3.75 1.36-1.001 2.92-1.703 4.58-2.06 1.66-0.276 3.37-0.196 5 0.235s3.15 1.203 4.46 2.265m-10.36 13.442c1.73-0.087 3.45 0.27 5 1.037s2.87 1.918 3.85 3.343c0.86 1.531 1.33 3.249 1.36 5.003 0.04 1.755-0.36 3.491-1.15 5.057-1.7-0.072-3.36-0.524-4.86-1.323-1.5-0.8-2.81-1.927-3.82-3.298-1-1.371-1.69-2.95-2.01-4.622-0.31-1.672-0.25-3.393 0.19-5.037m-8.09 18.909c0.8 1.529 1.21 3.239 1.16 4.966-0.04 1.728-0.52 3.416-1.4 4.904-1.02 1.422-2.38 2.571-3.95 3.344-1.57 0.772-3.3 1.146-5.05 1.086-0.6-1.583-0.87-3.275-0.77-4.966s0.56-3.341 1.34-4.844c1.55-2.83 4.36-4.23 7.87-5" fill="#ffdb6f"/>
<path class="change-color-in-svg color4D61FC svgShape" d="m1091.2 929.28c0.68-0.639 1.47-1.145 2.34-1.49 1.03-0.357 2.12-0.55 3.21-0.57 1.46 7e-3 2.92 0.093 4.37 0.26 1.81 0.232 3.64 0.071 5.38-0.47 1.99-0.803 3.58-2.344 4.45-4.3 0.94-2.081 1.58-4.282 1.91-6.54 0.32-2.369 1.09-4.654 2.28-6.73 1.4-1.944 3.08-3.661 5-5.09 1.82-1.386 3.43-3.022 4.79-4.86 2.14-3.3 2.99-7.273 2.39-11.16-0.35-2.596-1.36-5.061-2.91-7.17-0.43-0.561-0.9-1.083-1.42-1.56-0.35-0.33-0.54-0.5-0.56-0.48 0.13 0.204 0.29 0.392 0.46 0.56 0.48 0.512 0.91 1.056 1.31 1.63 1.44 2.112 2.36 4.54 2.67 7.08 0.51 3.762-0.35 7.583-2.43 10.76-1.34 1.782-2.93 3.368-4.71 4.71-1.97 1.476-3.7 3.239-5.15 5.23-1.22 2.162-2.02 4.538-2.36 7-0.31 2.211-0.92 4.369-1.83 6.41-0.79 1.831-2.26 3.285-4.1 4.06-1.67 0.525-3.42 0.695-5.16 0.5-1.47-0.138-2.94-0.192-4.42-0.16-1.13 0.041-2.24 0.278-3.29 0.7-0.66 0.264-1.27 0.655-1.78 1.15-0.14 0.124-0.26 0.262-0.37 0.41l-0.08 0.16" fill="#ffdb6f"/>
<path class="change-color-in-svg color4D61FC svgShape" d="m1091.2 929.28c0.68-0.639 1.47-1.145 2.34-1.49 1.03-0.357 2.12-0.55 3.21-0.57 1.46 7e-3 2.92 0.093 4.37 0.26 1.81 0.232 3.64 0.071 5.38-0.47 1.99-0.803 3.58-2.344 4.45-4.3 0.94-2.081 1.58-4.282 1.91-6.54 0.32-2.369 1.09-4.654 2.28-6.73 1.4-1.944 3.08-3.661 5-5.09 1.82-1.386 3.43-3.022 4.79-4.86 2.14-3.3 2.99-7.273 2.39-11.16-0.35-2.596-1.36-5.061-2.91-7.17-0.43-0.561-0.9-1.083-1.42-1.56-0.35-0.33-0.54-0.5-0.56-0.48 0.13 0.204 0.29 0.392 0.46 0.56 0.48 0.512 0.91 1.056 1.31 1.63 1.44 2.112 2.36 4.54 2.67 7.08 0.51 3.762-0.35 7.583-2.43 10.76-1.34 1.782-2.93 3.368-4.71 4.71-1.97 1.476-3.7 3.239-5.15 5.23-1.22 2.162-2.02 4.538-2.36 7-0.31 2.211-0.92 4.369-1.83 6.41-0.79 1.831-2.26 3.285-4.1 4.06-1.67 0.525-3.42 0.695-5.16 0.5-1.47-0.138-2.94-0.192-4.42-0.16-1.13 0.041-2.24 0.278-3.29 0.7-0.66 0.264-1.27 0.655-1.78 1.15-0.14 0.124-0.26 0.262-0.37 0.41l-0.08 0.16m113.57 4.49c-0.12-2.487 0.38-4.964 1.45-7.209 1.08-2.245 2.69-4.188 4.71-5.652 2.01-1.464 4.36-2.405 6.82-2.736 2.47-0.332 4.98-0.044 7.31 0.837-3.42 7.85-11.77 13.81-20.29 14.76zm3.29 1.339c2.89 3.18 2.91 9.47 0.84 13.23s-5.64 6.46-9.22 8.84c-1.21-4.089-1.04-8.461 0.47-12.448 1.51-3.986 4.29-7.366 7.91-9.622m-13.88-13.75c-0.23 2.321-0.93 4.572-2.05 6.616-1.13 2.045-2.65 3.841-4.49 5.28-1.83 1.439-3.94 2.491-6.2 3.093-2.25 0.602-4.6 0.742-6.91 0.411 1.12-4.66 3-9.35 6.59-12.51s9.27-4.34 13.25-1.68m-0.14-7.61c0.73-4.24 5-5.71 9.24-6.12s8.52 1.43 11.94 4c-2.6 2.977-6.24 4.851-10.17 5.239-3.94 0.389-7.87-0.738-11.01-3.15m22.68 36.451c4.07 3.48 4.74 10.93 3.06 16s-5.65 9.12-10.11 12.08c-1.71-5-2.78-10.42-1.88-15.66s4-10.29 8.93-12.43m-22.35-47.179c-1.04-1.499-2.42-2.729-4.02-3.587-1.61-0.857-3.4-1.318-5.22-1.343-1.91-0.101-3.82 0.233-5.59 0.978-1.76 0.745-3.33 1.881-4.59 3.322 0.85 1.846 2.19 3.421 3.89 4.549 1.69 1.128 3.66 1.765 5.69 1.841 2.01 0.051 4-0.461 5.74-1.479s3.16-2.5 4.1-4.281m-4.62-11.702c2.2 0.669 4.51 0.864 6.79 0.572s4.47-1.064 6.43-2.265 3.64-2.804 4.94-4.703c1.29-1.899 2.17-4.051 2.57-6.314-3.26-0.379-6.55-0.332-9.79 0.14-3.26 0.496-6.29 1.987-8.67 4.27-1.07 1.064-1.84 2.391-2.24 3.847-0.4 1.457-0.41 2.992-0.03 4.453m-9.51-3.529c1.52-1.241 2.74-2.802 3.58-4.571s1.28-3.703 1.29-5.662c0.01-1.96-0.42-3.897-1.25-5.672s-2.04-3.344-3.55-4.595c-2.94 3.577-4.93 7.833-5.8 12.38-0.43 1.68-0.43 3.44 0 5.12 0.23 0.837 0.69 1.594 1.32 2.187s1.42 0.999 2.27 1.173" fill="#ffdb6f"/>
<path class="change-color-in-svg color4D61FC svgShape" d="m1194.1 921.4c-0.23 2.321-0.93 4.572-2.05 6.616-1.13 2.045-2.65 3.841-4.49 5.28-1.83 1.439-3.94 2.491-6.2 3.093-2.25 0.602-4.6 0.742-6.91 0.411 1.12-4.66 3-9.35 6.59-12.51s9.27-4.34 13.25-1.68m-4.43-30.081c2.2 0.669 4.51 0.864 6.79 0.572s4.47-1.064 6.43-2.265 3.64-2.804 4.94-4.703c1.29-1.899 2.17-4.051 2.57-6.314-3.26-0.379-6.55-0.332-9.79 0.14-3.26 0.496-6.29 1.987-8.67 4.27-1.07 1.064-1.84 2.391-2.24 3.847-0.4 1.457-0.41 2.992-0.03 4.453" fill="#ffdb6f" opacity=".4"/>
<path class="change-color-in-svg color4D61FC svgShape" d="m1164.2 919.15c0.01-0.113 0.01-0.227 0-0.34 0-0.26 0-0.57-0.06-1-0.06-0.85-0.14-2.12-0.17-3.75-0.19-4.59 0.55-9.171 2.2-13.46 1.2-2.918 3.05-5.522 5.41-7.61 2.71-2.405 6.23-3.701 9.85-3.63 1.94 0.023 3.84 0.503 5.56 1.4 1.78 0.947 3.27 2.365 4.3 4.1 2.15 3.54 2.68 8 2.5 12.37s-0.79 8.78-0.3 13c0.22 2.073 0.77 4.099 1.62 6 0.82 1.857 2.07 3.492 3.65 4.77 1.54 1.128 3.25 2.005 5.07 2.6 1.67 0.561 3.27 1.288 4.79 2.17 2.67 1.67 4.84 4.034 6.28 6.84 1.18 2.322 1.8 4.887 1.81 7.49-0.01 1.973-0.35 3.93-1 5.79-0.57 1.582-1.32 3.092-2.24 4.5 0 0 0.08-0.08 0.22-0.25s0.34-0.43 0.57-0.8c0.7-1.047 1.27-2.176 1.7-3.36 0.69-1.884 1.05-3.873 1.06-5.88 0.04-2.67-0.57-5.31-1.76-7.7-1.45-2.905-3.66-5.358-6.41-7.09-2.93-1.95-6.79-2.44-9.77-4.77s-4.55-6.35-5-10.42 0.15-8.46 0.32-12.93-0.35-9-2.59-12.73c-1.09-1.826-2.67-3.317-4.55-4.31-1.81-0.929-3.81-1.419-5.84-1.43-3.76-0.055-7.4 1.305-10.21 3.81-2.41 2.162-4.28 4.848-5.49 7.85-0.98 2.459-1.61 5.045-1.86 7.68-0.2 1.994-0.26 3.999-0.17 6 0.07 1.63 0.19 2.9 0.29 3.75 0 0.4 0.09 0.71 0.12 1 0.01 0.106 0.04 0.21 0.07 0.31" fill="#ffdb6f"/>
<path class="color21252B svgShape" d="m1164.2 919.15c0.01-0.113 0.01-0.227 0-0.34 0-0.26 0-0.57-0.06-1-0.06-0.85-0.14-2.12-0.17-3.75-0.19-4.59 0.55-9.171 2.2-13.46 1.2-2.918 3.05-5.522 5.41-7.61 2.71-2.405 6.23-3.701 9.85-3.63 1.94 0.023 3.84 0.503 5.56 1.4 1.78 0.947 3.27 2.365 4.3 4.1 2.15 3.54 2.68 8 2.5 12.37s-0.79 8.78-0.3 13c0.22 2.073 0.77 4.099 1.62 6 0.82 1.857 2.07 3.492 3.65 4.77 1.54 1.128 3.25 2.005 5.07 2.6 1.67 0.561 3.27 1.288 4.79 2.17 2.67 1.67 4.84 4.034 6.28 6.84 1.18 2.322 1.8 4.887 1.81 7.49-0.01 1.973-0.35 3.93-1 5.79-0.57 1.582-1.32 3.092-2.24 4.5 0 0 0.08-0.08 0.22-0.25s0.34-0.43 0.57-0.8c0.7-1.047 1.27-2.176 1.7-3.36 0.69-1.884 1.05-3.873 1.06-5.88 0.04-2.67-0.57-5.31-1.76-7.7-1.45-2.905-3.66-5.358-6.41-7.09-2.93-1.95-6.79-2.44-9.77-4.77s-4.55-6.35-5-10.42 0.15-8.46 0.32-12.93-0.35-9-2.59-12.73c-1.09-1.826-2.67-3.317-4.55-4.31-1.81-0.929-3.81-1.419-5.84-1.43-3.76-0.055-7.4 1.305-10.21 3.81-2.41 2.162-4.28 4.848-5.49 7.85-0.98 2.459-1.61 5.045-1.86 7.68-0.2 1.994-0.26 3.999-0.17 6 0.07 1.63 0.19 2.9 0.29 3.75 0 0.4 0.09 0.71 0.12 1 0.01 0.106 0.04 0.21 0.07 0.31" fill="#21252b" opacity=".4"/>
<path class="change-color-in-svg color4D61FC svgShape" d="m1078 908.57c-0.55-1.384-0.84-2.853-0.88-4.34-0.02-1.734 0.38-3.447 1.15-5 1.05-2.046 2.75-3.688 4.83-4.67 1.2-0.564 2.49-0.903 3.81-1 1.44-0.082 2.87 0.087 4.25 0.5 2.91 0.76 5.78 2.41 9.21 3.09 1.76 0.391 3.6 0.346 5.34-0.13 1.82-0.598 3.36-1.834 4.34-3.48 2.08-3.21 2.66-7.23 5.16-10.19 1.24-1.435 2.86-2.495 4.67-3.06 1.76-0.567 3.63-0.758 5.47-0.56 3.52 0.374 6.77 2.067 9.09 4.74 2.11 2.41 3.66 5.263 4.52 8.35 0.79 2.683 1.12 5.477 1 8.27-0.24 4.066-0.75 8.111-1.53 12.11l-0.57 3.27c0 0.35-0.09 0.63-0.13 0.86-0.02 0.096-0.02 0.194 0 0.29 0.04-0.09 0.07-0.184 0.09-0.28 0-0.23 0.11-0.51 0.19-0.85 0.17-0.79 0.4-1.88 0.68-3.26 0.88-3.994 1.47-8.049 1.75-12.13 0.14-2.849-0.2-5.702-1-8.44-0.86-3.176-2.43-6.115-4.59-8.6-1.2-1.327-2.6-2.451-4.16-3.33-1.67-0.894-3.51-1.449-5.39-1.631-1.89-0.182-3.8 0.012-5.61 0.571-1.94 0.595-3.67 1.721-5 3.25-2.64 3.17-3.21 7.22-5.19 10.28-0.91 1.515-2.33 2.656-4 3.22-1.63 0.458-3.35 0.506-5 0.14-3.31-0.63-6.19-2.25-9.19-3-1.44-0.415-2.94-0.575-4.43-0.47-2.79 0.198-5.4 1.477-7.27 3.566-1.87 2.09-2.85 4.824-2.73 7.624 0.03 1.122 0.25 2.23 0.65 3.28 0.12 0.378 0.29 0.74 0.49 1.08" fill="#ffdb6f"/>
<path class="color21252B svgShape" d="m1078 908.57c-0.55-1.384-0.84-2.853-0.88-4.34-0.02-1.734 0.38-3.447 1.15-5 1.05-2.046 2.75-3.688 4.83-4.67 1.2-0.564 2.49-0.903 3.81-1 1.44-0.082 2.87 0.087 4.25 0.5 2.91 0.76 5.78 2.41 9.21 3.09 1.76 0.391 3.6 0.346 5.34-0.13 1.82-0.598 3.36-1.834 4.34-3.48 2.08-3.21 2.66-7.23 5.16-10.19 1.24-1.435 2.86-2.495 4.67-3.06 1.76-0.567 3.63-0.758 5.47-0.56 3.52 0.374 6.77 2.067 9.09 4.74 2.11 2.41 3.66 5.263 4.52 8.35 0.79 2.683 1.12 5.477 1 8.27-0.24 4.066-0.75 8.111-1.53 12.11l-0.57 3.27c0 0.35-0.09 0.63-0.13 0.86-0.02 0.096-0.02 0.194 0 0.29 0.04-0.09 0.07-0.184 0.09-0.28 0-0.23 0.11-0.51 0.19-0.85 0.17-0.79 0.4-1.88 0.68-3.26 0.88-3.994 1.47-8.049 1.75-12.13 0.14-2.849-0.2-5.702-1-8.44-0.86-3.176-2.43-6.115-4.59-8.6-1.2-1.327-2.6-2.451-4.16-3.33-1.67-0.894-3.51-1.449-5.39-1.631-1.89-0.182-3.8 0.012-5.61 0.571-1.94 0.595-3.67 1.721-5 3.25-2.64 3.17-3.21 7.22-5.19 10.28-0.91 1.515-2.33 2.656-4 3.22-1.63 0.458-3.35 0.506-5 0.14-3.31-0.63-6.19-2.25-9.19-3-1.44-0.415-2.94-0.575-4.43-0.47-2.79 0.198-5.4 1.477-7.27 3.566-1.87 2.09-2.85 4.824-2.73 7.624 0.03 1.122 0.25 2.23 0.65 3.28 0.12 0.378 0.29 0.74 0.49 1.08" fill="#21252b" opacity=".2"/>
<path class="change-color-in-svg color4D61FC svgShape" d="m1112.6 887.06c-1.57 0.953-3.36 1.515-5.19 1.637-1.84 0.121-3.68-0.2-5.37-0.937-1.53-0.864-2.82-2.092-3.76-3.575-0.93-1.483-1.49-3.175-1.62-4.925 1.49-0.814 3.15-1.284 4.84-1.374 1.7-0.09 3.39 0.201 4.96 0.853 1.57 0.651 2.97 1.646 4.11 2.912 1.13 1.265 1.97 2.768 2.44 4.399m-11.63 11.209c-0.01 1.842-0.46 3.655-1.31 5.288-0.86 1.632-2.09 3.035-3.6 4.092-1.53 0.844-3.24 1.301-4.98 1.33-1.74 0.03-3.47-0.369-5.02-1.16 0.08-1.695 0.55-3.349 1.35-4.842 0.81-1.493 1.94-2.786 3.31-3.785s2.95-1.679 4.62-1.989c1.66-0.311 3.38-0.244 5.02 0.196m-18.88-1.39c-1.67 0.778-3.5 1.144-5.35 1.067-1.84-0.076-3.63-0.593-5.23-1.507-1.42-1.021-2.57-2.376-3.34-3.946-0.78-1.569-1.15-3.306-1.09-5.054 1.57-0.648 3.26-0.937 4.96-0.844 1.69 0.093 3.35 0.564 4.84 1.379 1.49 0.816 2.77 1.954 3.77 3.332 0.99 1.379 1.66 2.961 1.96 4.633m46.56-13.74c2.85-2.45 4.75-6.75 4.2-10-0.37-1.713-1.16-3.308-2.3-4.643-1.14-1.334-2.59-2.367-4.22-3.007-1.22 1.186-2.15 2.629-2.74 4.222-0.58 1.594-0.8 3.299-0.64 4.99 0.16 1.69 0.69 3.323 1.56 4.78 0.88 1.457 2.06 2.7 3.48 3.638m25.07 4.55c-2.11 0.072-4.2-0.31-6.15-1.121s-3.7-2.032-5.13-3.579c-1.32-1.574-2.27-3.421-2.79-5.408s-0.59-4.064-0.21-6.082c2.16-0.49 4.4-0.391 6.5 0.288s3.98 1.912 5.44 3.569 2.45 3.678 2.86 5.848c0.4 2.17 0.22 4.411-0.54 6.485" fill="#ffdb6f"/>
<path class="colorfff svgShape" d="m1153.4 884.85c-2.11 0.072-4.2-0.31-6.15-1.121s-3.7-2.032-5.13-3.579c-1.32-1.574-2.27-3.421-2.79-5.408s-0.59-4.064-0.21-6.082c2.16-0.49 4.4-0.391 6.5 0.288s3.98 1.912 5.44 3.569 2.45 3.678 2.86 5.848c0.4 2.17 0.22 4.411-0.54 6.485" fill="#fff" opacity=".7"/>
<path class="change-color-in-svg color4D61FC svgShape" d="m1205.1 866.37s0-0.09-0.12-0.26l-0.4-0.72c-0.52-0.918-1.09-1.81-1.71-2.67-2.25-3.218-5.13-5.941-8.48-8-2.32-1.425-4.91-2.374-7.61-2.79-3.11-0.448-6.29-0.104-9.24 1-3.31 1.169-6.1 3.462-7.9 6.48-1.81 3.17-2.41 6.89-3.47 10.45-0.48 1.767-1.23 3.452-2.21 5-1.02 1.442-2.29 2.692-3.75 3.69-1.42 1-2.89 2-4.23 3.09-1.31 1.072-2.47 2.324-3.44 3.72-1.75 2.6-2.95 5.53-3.53 8.61-0.51 2.661-0.67 5.378-0.47 8.08 0.32 3.891 1.02 7.742 2.07 11.5 0.35 1.34 0.64 2.36 0.85 3.06 0.09 0.359 0.21 0.71 0.35 1.05-0.05-0.367-0.12-0.731-0.22-1.09-0.18-0.76-0.43-1.79-0.73-3.09-0.96-3.76-1.59-7.599-1.87-11.47-0.17-2.679 0.02-5.368 0.54-8 0.58-2.999 1.77-5.848 3.49-8.37 0.94-1.343 2.06-2.551 3.33-3.59 1.31-1.06 2.78-2 4.22-3 1.52-1.043 2.85-2.347 3.92-3.85 1.01-1.6 1.78-3.338 2.29-5.16 1.07-3.62 1.65-7.29 3.39-10.33 1.72-2.895 4.4-5.098 7.57-6.23 2.87-1.076 5.97-1.42 9-1 2.63 0.394 5.16 1.298 7.44 2.66 3.32 2.004 6.21 4.641 8.51 7.76 0.82 1.1 1.42 2 1.81 2.6 0.19 0.33 0.4 0.644 0.64 0.94" fill="#ffdb6f"/>
<path class="change-color-in-svg color4D61FC svgShape" d="m1159.5 879.77c1.97 0.07 3.89 0.679 5.54 1.76 2.25 1.862 3.91 4.343 4.77 7.135 0.86 2.793 0.89 5.777 0.08 8.585-2.1 0.082-4.19-0.389-6.05-1.366-1.86-0.978-3.44-2.428-4.56-4.204-1.02-1.827-1.54-3.892-1.5-5.985s0.63-4.138 1.72-5.925" fill="#ffdb6f"/>
<path class="colorfff svgShape" d="m1159.5 879.77c1.97 0.07 3.89 0.679 5.54 1.76 2.25 1.862 3.91 4.343 4.77 7.135 0.86 2.793 0.89 5.777 0.08 8.585-2.1 0.082-4.19-0.389-6.05-1.366-1.86-0.978-3.44-2.428-4.56-4.204-1.02-1.827-1.54-3.892-1.5-5.985s0.63-4.138 1.72-5.925" fill="#fff" opacity=".7"/>
<path class="change-color-in-svg color4D61FC svgShape" d="m1198.8 861.1c0.49-1.25 1.2-0.88 2.49-1.23 1.32-0.296 2.69-0.272 4 0.07 2.84 0.712 5.4 2.237 7.39 4.389 1.98 2.151 3.29 4.835 3.76 7.721-1.85 1.012-3.94 1.502-6.05 1.42s-4.16-0.734-5.93-1.887c-1.77-1.152-3.19-2.763-4.12-4.66-0.93-1.896-1.33-4.009-1.15-6.113m-49.51 43.41c1.34-1.55 3.01-2.777 4.89-3.585 1.88-0.809 3.92-1.179 5.96-1.083 2.05 0.096 4.05 0.657 5.84 1.639 1.8 0.982 3.35 2.36 4.53 4.029-3.02 2.735-6.93 4.278-11 4.34-4.11-0.106-8.05-1.701-11.08-4.49m18.33-41.14c-1.92 0.739-3.98 1.037-6.02 0.872-2.05-0.166-4.03-0.791-5.81-1.828-1.77-1.038-3.29-2.462-4.43-4.166-1.15-1.704-1.9-3.645-2.19-5.678 1.87-1.181 4.02-1.835 6.23-1.895s4.39 0.478 6.32 1.556 3.53 2.657 4.64 4.57 1.68 4.089 1.65 6.299m4.37-6.84c1.92-0.737 3.98-1.034 6.02-0.866 2.05 0.167 4.03 0.793 5.81 1.831 1.77 1.038 3.29 2.463 4.43 4.167 1.15 1.704 1.9 3.645 2.19 5.678-1.87 1.177-4.02 1.829-6.23 1.887s-4.39-0.48-6.32-1.558c-1.92-1.077-3.53-2.654-4.63-4.565-1.11-1.911-1.68-4.085-1.66-6.294m6.04-4.099c-1.95-0.659-3.72-1.747-5.19-3.184s-2.59-3.187-3.29-5.119-0.96-3.997-0.75-6.041 0.88-4.015 1.95-5.766c2.19 0.289 4.25 1.162 5.99 2.527 1.73 1.365 3.06 3.171 3.85 5.229s1.02 4.292 0.65 6.465c-0.37 2.174-1.32 4.208-2.75 5.889m14.05 0.688c-0.7-1.932-0.95-3.997-0.75-6.042 0.21-2.044 0.88-4.015 1.95-5.767 1.08-1.752 2.53-3.24 4.26-4.353s3.68-1.823 5.72-2.078c1.14 1.892 1.75 4.056 1.76 6.265 0.02 2.209-0.56 4.381-1.68 6.287-1.11 1.907-2.72 3.478-4.65 4.547-1.94 1.07-4.12 1.599-6.33 1.531" fill="#ffdb6f"/>
<g class="color000 svgShape" opacity=".7">
<g class="color000 svgShape" fill="#000" opacity=".7">
<path class="colorfff svgShape" d="m1138.2 908.73c-1.43 0.967-3.09 1.551-4.81 1.697-1.72 0.145-3.45-0.154-5.02-0.867-1.53-0.864-2.82-2.092-3.76-3.575s-1.49-3.175-1.62-4.925c1.51-0.768 3.16-1.21 4.86-1.298 1.69-0.088 3.38 0.181 4.96 0.788 1.54 0.689 2.92 1.695 4.04 2.953 1.13 1.258 1.98 2.739 2.49 4.347m-28.23 11.329c-1.43 0.97-3.08 1.556-4.8 1.702-1.72 0.145-3.45-0.155-5.02-0.872-1.53-0.864-2.82-2.092-3.75-3.575-0.94-1.482-1.5-3.174-1.63-4.925 1.51-0.766 3.17-1.206 4.86-1.292s3.38 0.184 4.96 0.792c1.54 0.684 2.92 1.689 4.05 2.948 1.12 1.258 1.97 2.742 2.47 4.352m14.07-22.47c-0.66 1.595-1.73 2.994-3.08 4.061-1.36 1.068-2.97 1.77-4.68 2.039-1.75 0.118-3.5-0.199-5.1-0.921s-2.99-1.828-4.06-3.219c0.84-1.471 1.98-2.749 3.35-3.75 1.36-1.001 2.92-1.703 4.58-2.06 1.66-0.276 3.37-0.196 5 0.235s3.15 1.203 4.46 2.265m-10.36 13.44c1.73-0.087 3.45 0.27 5 1.037s2.87 1.918 3.85 3.343c0.86 1.531 1.33 3.249 1.36 5.003 0.04 1.755-0.36 3.491-1.15 5.057-1.7-0.072-3.36-0.524-4.86-1.323-1.5-0.8-2.81-1.927-3.82-3.298-1-1.371-1.69-2.95-2.01-4.622-0.31-1.672-0.25-3.393 0.19-5.037m-8.09 18.909c0.81 1.529 1.21 3.239 1.17 4.966-0.04 1.728-0.53 3.416-1.41 4.904-1.02 1.422-2.37 2.571-3.94 3.344-1.57 0.772-3.31 1.146-5.06 1.086-0.6-1.583-0.86-3.275-0.76-4.966s0.55-3.341 1.33-4.844c1.55-2.83 4.36-4.23 7.87-5" fill="#fff" opacity=".7"/>
</g>
<path class="colorfff svgShape" d="m1091.2 929.28c0.68-0.639 1.47-1.145 2.34-1.49 1.03-0.357 2.12-0.55 3.21-0.57 1.46 7e-3 2.92 0.093 4.37 0.26 1.81 0.232 3.64 0.071 5.38-0.47 1.99-0.803 3.58-2.344 4.45-4.3 0.94-2.081 1.58-4.282 1.91-6.54 0.32-2.369 1.09-4.654 2.28-6.73 1.4-1.944 3.08-3.661 5-5.09 1.82-1.386 3.43-3.022 4.79-4.86 2.14-3.3 2.99-7.273 2.39-11.16-0.35-2.596-1.36-5.061-2.91-7.17-0.43-0.561-0.9-1.083-1.42-1.56-0.35-0.33-0.54-0.5-0.56-0.48 0.13 0.204 0.29 0.392 0.46 0.56 0.48 0.512 0.91 1.056 1.31 1.63 1.44 2.112 2.36 4.54 2.67 7.08 0.51 3.762-0.35 7.583-2.43 10.76-1.34 1.782-2.93 3.368-4.71 4.71-1.97 1.476-3.7 3.239-5.15 5.23-1.22 2.162-2.02 4.538-2.36 7-0.31 2.211-0.92 4.369-1.83 6.41-0.79 1.831-2.26 3.285-4.1 4.06-1.67 0.525-3.42 0.695-5.16 0.5-1.47-0.138-2.94-0.192-4.42-0.16-1.13 0.041-2.24 0.278-3.29 0.7-0.66 0.264-1.27 0.655-1.78 1.15-0.14 0.124-0.26 0.262-0.37 0.41l-0.08 0.16" fill="#fff" opacity=".7"/>
<path class="color21252B svgShape" d="m1091.2 929.28c0.68-0.639 1.47-1.145 2.34-1.49 1.03-0.357 2.12-0.55 3.21-0.57 1.46 7e-3 2.92 0.093 4.37 0.26 1.81 0.232 3.64 0.071 5.38-0.47 1.99-0.803 3.58-2.344 4.45-4.3 0.94-2.081 1.58-4.282 1.91-6.54 0.32-2.369 1.09-4.654 2.28-6.73 1.4-1.944 3.08-3.661 5-5.09 1.82-1.386 3.43-3.022 4.79-4.86 2.14-3.3 2.99-7.273 2.39-11.16-0.35-2.596-1.36-5.061-2.91-7.17-0.43-0.561-0.9-1.083-1.42-1.56-0.35-0.33-0.54-0.5-0.56-0.48 0.13 0.204 0.29 0.392 0.46 0.56 0.48 0.512 0.91 1.056 1.31 1.63 1.44 2.112 2.36 4.54 2.67 7.08 0.51 3.762-0.35 7.583-2.43 10.76-1.34 1.782-2.93 3.368-4.71 4.71-1.97 1.476-3.7 3.239-5.15 5.23-1.22 2.162-2.02 4.538-2.36 7-0.31 2.211-0.92 4.369-1.83 6.41-0.79 1.831-2.26 3.285-4.1 4.06-1.67 0.525-3.42 0.695-5.16 0.5-1.47-0.138-2.94-0.192-4.42-0.16-1.13 0.041-2.24 0.278-3.29 0.7-0.66 0.264-1.27 0.655-1.78 1.15-0.14 0.124-0.26 0.262-0.37 0.41l-0.08 0.16" fill="#21252b" opacity=".7"/>
</g>
<g class="color000 svgShape" opacity=".7">
<path class="colorfff svgShape" d="m1198.8 861.1c0.49-1.25 1.2-0.88 2.49-1.23 1.32-0.307 2.69-0.283 4 0.07 2.84 0.711 5.4 2.235 7.38 4.385 1.98 2.149 3.29 4.831 3.77 7.715-1.85 1.011-3.94 1.502-6.05 1.42s-4.16-0.733-5.93-1.885c-1.77-1.151-3.19-2.76-4.12-4.655-0.93-1.896-1.32-4.007-1.15-6.11m-49.51 43.41c1.34-1.55 3.01-2.777 4.89-3.585 1.88-0.809 3.92-1.179 5.96-1.083 2.05 0.096 4.05 0.657 5.84 1.639 1.8 0.982 3.35 2.36 4.53 4.029-3.02 2.735-6.93 4.278-11 4.34-4.11-0.106-8.05-1.701-11.08-4.49m18.33-41.14c-1.91 0.739-3.97 1.037-6.02 0.872-2.05-0.166-4.03-0.791-5.8-1.828-1.78-1.038-3.29-2.462-4.44-4.166-1.14-1.704-1.89-3.645-2.19-5.678 1.87-1.181 4.02-1.835 6.23-1.895s4.4 0.478 6.33 1.556c1.92 1.078 3.53 2.657 4.63 4.57 1.11 1.913 1.68 4.089 1.65 6.299m4.37-6.84c1.92-0.737 3.98-1.034 6.02-0.866 2.05 0.167 4.03 0.793 5.81 1.831 1.77 1.038 3.29 2.463 4.43 4.167 1.15 1.704 1.9 3.645 2.19 5.678-1.87 1.177-4.02 1.829-6.23 1.887s-4.39-0.48-6.32-1.558c-1.92-1.077-3.53-2.654-4.63-4.565-1.11-1.911-1.68-4.085-1.66-6.294m6.04-4.099c-1.95-0.659-3.72-1.747-5.19-3.184s-2.59-3.187-3.29-5.119-0.96-3.997-0.75-6.041 0.88-4.015 1.95-5.766c2.19 0.289 4.25 1.162 5.99 2.527 1.73 1.365 3.06 3.171 3.85 5.229s1.02 4.292 0.65 6.465c-0.37 2.174-1.32 4.208-2.75 5.889m14.05 0.69c-0.7-1.932-0.95-3.997-0.75-6.042 0.21-2.044 0.88-4.015 1.95-5.767 1.08-1.752 2.53-3.24 4.26-4.353s3.68-1.824 5.72-2.078c1.14 1.892 1.75 4.056 1.76 6.265 0.02 2.209-0.56 4.381-1.68 6.287-1.11 1.907-2.72 3.478-4.65 4.547-1.94 1.07-4.12 1.599-6.33 1.531" fill="#fff" opacity=".7"/>
<path class="color21252B svgShape" d="m1205.1 866.37s0-0.09-0.12-0.26l-0.4-0.72c-0.52-0.919-1.09-1.81-1.71-2.67-2.25-3.218-5.13-5.941-8.48-8-2.32-1.425-4.91-2.374-7.61-2.79-3.11-0.448-6.29-0.104-9.24 1-3.31 1.169-6.1 3.462-7.9 6.48-1.81 3.17-2.41 6.89-3.47 10.45-0.48 1.767-1.23 3.452-2.21 5-1.02 1.442-2.29 2.692-3.75 3.69-1.42 1-2.89 2-4.23 3.09-1.31 1.072-2.47 2.324-3.44 3.72-1.75 2.6-2.95 5.53-3.53 8.61-0.51 2.661-0.67 5.378-0.47 8.08 0.32 3.891 1.02 7.742 2.07 11.5 0.35 1.34 0.64 2.36 0.85 3.06 0.09 0.359 0.21 0.71 0.35 1.05-0.05-0.367-0.12-0.732-0.22-1.09-0.18-0.76-0.43-1.79-0.73-3.09-0.96-3.76-1.59-7.599-1.87-11.47-0.17-2.679 0.02-5.368 0.54-8 0.58-2.999 1.77-5.848 3.49-8.37 0.94-1.343 2.06-2.551 3.33-3.59 1.31-1.06 2.78-2 4.22-3 1.52-1.043 2.85-2.347 3.92-3.85 1.01-1.6 1.78-3.338 2.29-5.16 1.07-3.62 1.65-7.29 3.39-10.33 1.72-2.895 4.4-5.098 7.57-6.23 2.87-1.076 5.97-1.42 9-1 2.63 0.394 5.16 1.298 7.44 2.66 3.32 2.004 6.21 4.641 8.51 7.76 0.82 1.1 1.42 2 1.81 2.6 0.19 0.33 0.4 0.644 0.64 0.94" fill="#21252b" opacity=".7"/>
</g>
<path class="change-color-in-svg color4D61FC svgShape" d="m469.88 966.66h-27.25c-1.001 4e-3 -1.992-0.19-2.917-0.571s-1.766-0.942-2.473-1.649c-0.708-0.708-1.268-1.548-1.649-2.473s-0.575-1.917-0.571-2.917v-44.8h42.57v44.81c-0.037 2.023-0.864 3.952-2.306 5.372-1.441 1.421-3.381 2.22-5.404 2.228" fill="#ffdb6f"/>
<path class="change-color-in-svg color4D61FC svgShape" d="m484.15 951.33h-6.66v-3.27h6.66c0.811-3e-3 1.588-0.326 2.161-0.899 0.573-0.574 0.897-1.35 0.899-2.161v-18.29c0-0.812-0.322-1.59-0.896-2.164s-1.352-0.896-2.164-0.896h-6.66v-3.27h6.66c1.653 0 3.237 0.656 4.406 1.825 1.168 1.168 1.824 2.753 1.824 4.405v18.29c0.029 0.835-0.112 1.667-0.412 2.447-0.301 0.78-0.756 1.491-1.337 2.091-0.582 0.6-1.278 1.077-2.048 1.402s-1.597 0.492-2.433 0.49z" fill="#ffdb6f"/>
<path class="color000 svgShape" d="m480.45 923.65v-3.27h-3v-6.24h-9.3v44.06c2e-3 0.902-0.173 1.795-0.517 2.629s-0.849 1.592-1.486 2.231c-0.638 0.638-1.395 1.144-2.228 1.489-0.834 0.345-1.727 0.522-2.629 0.521h-23.52c1.341 1.1 3.024 1.698 4.76 1.69h27.25c1 4e-3 1.991-0.191 2.916-0.572 0.926-0.381 1.766-0.941 2.473-1.648 0.708-0.708 1.268-1.548 1.649-2.473 0.381-0.926 0.576-1.917 0.572-2.917v-7.71h3v-3.28h-3v-24.41h3.06v-0.1z" fill="#000" opacity=".2"/>
<path class="colorB2B6BB svgShape" d="m449.5 911c-0.071 5e-3 -0.142-6e-3 -0.208-0.031-0.067-0.025-0.127-0.064-0.177-0.114s-0.089-0.11-0.114-0.177c-0.025-0.066-0.036-0.137-0.031-0.208-8e-3 -1.96-0.79-3.837-2.176-5.223-1.387-1.386-3.264-2.169-5.224-2.177h-3.57c-0.77 0.033-1.537-0.091-2.258-0.363-0.72-0.272-1.378-0.687-1.933-1.22-0.556-0.533-0.998-1.173-1.3-1.881-0.303-0.709-0.458-1.471-0.458-2.241 0-0.769 0.155-1.531 0.458-2.24 0.302-0.708 0.744-1.348 1.3-1.881 0.555-0.533 1.213-0.948 1.933-1.22 0.721-0.272 1.488-0.396 2.258-0.364h20.29c1.233 0 2.416-0.489 3.288-1.361 0.872-0.873 1.362-2.055 1.362-3.289 0-1.233-0.49-2.416-1.362-3.288s-2.055-1.362-3.288-1.362h-4.89c-0.764 2e-3 -1.52-0.148-2.225-0.439-0.706-0.292-1.347-0.72-1.887-1.259-0.539-0.54-0.967-1.181-1.259-1.887-0.291-0.705-0.441-1.461-0.439-2.225-5e-3 -0.07 6e-3 -0.141 0.031-0.207 0.025-0.067 0.064-0.127 0.114-0.177s0.111-0.089 0.177-0.114 0.137-0.036 0.208-0.032c0.07-4e-3 0.141 7e-3 0.208 0.032 0.066 0.025 0.126 0.064 0.176 0.114s0.089 0.11 0.114 0.177c0.025 0.066 0.036 0.137 0.032 0.207-3e-3 0.626 0.118 1.246 0.357 1.825 0.238 0.579 0.588 1.105 1.031 1.547 0.442 0.443 0.968 0.793 1.547 1.032 0.579 0.238 1.199 0.359 1.825 0.356h4.87c1.514 0 2.966 0.602 4.037 1.673s1.673 2.523 1.673 4.037c0 1.515-0.602 2.967-1.673 4.038s-2.523 1.672-4.037 1.672h-20.28c-1.234 0-2.416 0.49-3.288 1.362s-1.362 2.055-1.362 3.288c0 1.234 0.49 2.416 1.362 3.289 0.872 0.872 2.054 1.362 3.288 1.362h3.59c2.24 5e-3 4.387 0.896 5.972 2.48 1.586 1.583 2.48 3.729 2.488 5.969-2e-3 0.07-0.017 0.139-0.044 0.203-0.028 0.063-0.068 0.121-0.119 0.169-0.05 0.049-0.109 0.087-0.174 0.112s-0.134 0.038-0.203 0.036m11.722 3.25c-0.071 4e-3 -0.142-7e-3 -0.208-0.032s-0.127-0.064-0.177-0.114-0.089-0.11-0.114-0.177c-0.025-0.066-0.036-0.137-0.031-0.207v-1.27c1e-3 -0.223-0.042-0.443-0.126-0.649-0.085-0.205-0.209-0.392-0.366-0.549-0.157-0.158-0.344-0.282-0.55-0.367-0.206-0.084-0.426-0.127-0.648-0.125-0.361 2e-3 -0.719-0.067-1.053-0.203-0.335-0.137-0.638-0.339-0.894-0.593-0.256-0.255-0.459-0.558-0.596-0.892-0.138-0.334-0.209-0.691-0.207-1.052v-2.22c-3e-3 -0.362 0.066-0.721 0.204-1.056 0.137-0.335 0.339-0.639 0.595-0.895s0.56-0.458 0.895-0.596c0.335-0.137 0.694-0.206 1.056-0.203h3.38c2.21-6e-3 4.328-0.886 5.891-2.449s2.444-3.681 2.449-5.891v-4.12c-5e-3 -0.071 6e-3 -0.142 0.031-0.208 0.025-0.067 0.064-0.127 0.114-0.177s0.111-0.089 0.177-0.114 0.137-0.036 0.208-0.031c0.07-3e-3 0.14 9e-3 0.206 0.034 0.065 0.026 0.125 0.065 0.175 0.115 0.05 0.049 0.089 0.109 0.114 0.174 0.026 0.066 0.038 0.136 0.035 0.207v4c-5e-3 2.491-0.998 4.879-2.759 6.641-1.762 1.761-4.15 2.753-6.641 2.759h-3.39c-0.223-3e-3 -0.444 0.039-0.65 0.123s-0.394 0.208-0.551 0.366c-0.158 0.157-0.282 0.344-0.366 0.551-0.084 0.206-0.126 0.427-0.123 0.65v2.21c-3e-3 0.222 0.039 0.443 0.123 0.649 0.084 0.207 0.208 0.394 0.366 0.552 0.157 0.157 0.345 0.281 0.551 0.365s0.427 0.126 0.65 0.124c0.362-3e-3 0.72 0.066 1.055 0.203 0.335 0.138 0.639 0.34 0.895 0.596s0.459 0.56 0.596 0.895 0.206 0.694 0.204 1.056v1.27c0.011 0.154-0.038 0.307-0.137 0.426-0.098 0.119-0.239 0.196-0.393 0.214" fill="#b2b6bb"/>
<path class="change-color-in-svg color4D61FC svgShape" d="m705 545c-22.67 0-41 14.55-41 32.49 0 11.35 7.37 21.34 18.52 27.15l-2.23 12.91c-0.028 0.169-6e-3 0.342 0.063 0.498 0.069 0.157 0.182 0.289 0.325 0.383 0.143 0.093 0.31 0.143 0.481 0.143 0.171-1e-3 0.338-0.05 0.481-0.144l14.06-9.31c3.067 0.573 6.18 0.868 9.3 0.88 22.66 0 41-14.55 41-32.49s-18.3-32.51-41-32.51z" fill="#ffdb6f"/>
<path class="colorfff svgShape" d="m714.94 565.31c-1.076-1.844-2.826-3.199-4.88-3.78-4.77-1.31-10.06-0.68-12.64 2.14-3.08 2.27-3.6 7.94 0.66 7.94 2.65 0 3.31-5.29 8.44-4.05 0.457 0.145 0.869 0.406 1.196 0.756s0.559 0.779 0.674 1.244c0.84 3.11-3.17 5.28-6 8.6-0.458 0.525-0.755 1.171-0.855 1.861s1e-3 1.394 0.292 2.027c0.29 0.634 0.757 1.17 1.345 1.545 0.588 0.374 1.271 0.571 1.968 0.567 0.727 2e-3 1.439-0.199 2.058-0.581 0.618-0.382 1.118-0.929 1.442-1.579 2.53-5 10.9-9 6.3-16.69zm-10.269 22.24c-0.843-0.176-1.72-0.075-2.501 0.287s-1.424 0.967-1.834 1.723c-0.411 0.757-0.565 1.626-0.442 2.478 0.123 0.853 0.518 1.642 1.126 2.252 0.607 0.609 1.396 1.007 2.247 1.133 0.852 0.126 1.721-0.026 2.48-0.434 0.758-0.408 1.364-1.049 1.729-1.829s0.468-1.656 0.295-2.5c-0.157-0.764-0.535-1.465-1.085-2.018-0.551-0.553-1.252-0.932-2.015-1.092z" fill="#fff"/>
<path class="change-color-in-svg color4D61FC svgShape" d="m840.61 434c22.66-0.26 41.2 14.07 41.41 32 0.13 11.35-7.11 21.43-18.2 27.37l2.38 12.88c0.032 0.167 0.013 0.34-0.053 0.497-0.066 0.158-0.176 0.292-0.318 0.387s-0.308 0.146-0.479 0.147c-0.17 1e-3 -0.337-0.048-0.48-0.141l-14.18-9.14c-3.069 0.621-6.189 0.955-9.32 1-22.66 0.27-41.21-14.06-41.42-32s17.99-32.73 40.66-33z" fill="#ffdb6f"/>
<path class="colorfff svgShape" d="m850.66 468.9c2.139-2.162 3.339-5.079 3.34-8.12-0.118-3.06-1.363-5.968-3.495-8.165s-5.001-3.529-8.056-3.738c-3.055-0.21-6.079 0.717-8.491 2.602-2.413 1.886-4.043 4.596-4.578 7.611-0.238 1.725-0.093 3.482 0.425 5.145 0.519 1.663 1.398 3.191 2.575 4.475 2.095 2.263 3.253 5.236 3.24 8.32v0.28h11.98v-0.31c-0.078-2.996 1.021-5.904 3.06-8.1z" fill="#fff"/>
<path class="color000 svgShape" d="m841.58 448.82c-0.768-3e-3 -1.535 0.068-2.29 0.21 5.72 1 11.3 3.25 11.3 11.75 0 3.043-1.205 5.962-3.35 8.12-2.021 2.215-3.097 5.132-3 8.13v0.28h3.41v-0.31c-0.085-3.007 1.014-5.926 3.06-8.13 2.139-2.162 3.339-5.079 3.34-8.12-0.079-3.234-1.435-6.304-3.772-8.54s-5.464-3.455-8.698-3.39z" fill="#000" opacity=".1"/>
<path class="colorfff svgShape" d="m847.17 480.16h-11.38v1.14h11.38v-1.14zm0 2.84h-11.38v1.14h11.38v-1.14z" fill="#fff"/>
<path class="colorB2B6BB svgShape" d="m568 687.5c0-10.77-12.09-19.5-27-19.5s-27 8.73-27 19.5 12.09 19.5 27 19.5c1.905 2e-3 3.808-0.145 5.69-0.44l13.31 4.44-2.86-7.87c6.59-3.55 10.86-9.23 10.86-15.63z" fill="#b2b6bb"/>
<path class="colorfff svgShape" d="m531 691c1.657 0 3-1.343 3-3s-1.343-3-3-3-3 1.343-3 3 1.343 3 3 3zm10 0c1.657 0 3-1.343 3-3s-1.343-3-3-3-3 1.343-3 3 1.343 3 3 3zm10 0c1.657 0 3-1.343 3-3s-1.343-3-3-3-3 1.343-3 3 1.343 3 3 3z" fill="#fff"/>
<path class="colorB2B6BB svgShape" d="m1025 536.5c0-10.77 12.09-19.5 27-19.5s27 8.73 27 19.5-12.09 19.5-27 19.5c-1.91 2e-3 -3.81-0.145-5.69-0.44l-13.31 4.44 2.86-7.87c-6.59-3.55-10.86-9.23-10.86-15.63z" fill="#b2b6bb"/>
<path class="colorfff svgShape" d="m1062 540c1.66 0 3-1.343 3-3s-1.34-3-3-3-3 1.343-3 3 1.34 3 3 3zm-10 0c1.66 0 3-1.343 3-3s-1.34-3-3-3-3 1.343-3 3 1.34 3 3 3zm-10 0c1.66 0 3-1.343 3-3s-1.34-3-3-3-3 1.343-3 3 1.34 3 3 3z" fill="#fff"/>
<path class="colorDADDDF svgShape" d="m589 529h-286v15h286v-15z" fill="#dadddf"/>
<path class="color000 svgShape" d="m589 529h-286v15h286v-15z" fill="#000" opacity=".2"/>
<path class="colorD7DADC svgShape" d="m354.13 451.25l-28.01-0.06v0.44l0.02-6.35 28.02 0.07-0.02 4.15-0.01 1.7v0.05z" fill="#d7dadc"/>
<path class="colorF4F4F4 svgShape" d="m354.13 451.25v0.44l-0.01 4.41-28.02-0.06 0.02-4.41v-0.44l28.01 0.06zm-0.024 7.75l-0.02 4.85-28.01-0.06 0.01-4.85 28.02 0.06z" fill="#f4f4f4"/>
<path class="colorB2B6BB svgShape" d="m354.09 463.85l0.01-2.57-0.01 2.57zm-28-4.91l0.01-2.9 28.02 0.06 0.01-4.41-0.03 9.59 0.01-2.28-28.02-0.06zm-0.211 60.022l-0.02 4.19 0.02-4.19zm-0.038 10.039h28v-10l0.16-43.42v-11.77l-28-0.06v-4.15l-0.06 16-0.14 39.26v4.08l28 0.06v4.87l-28-0.06v3.46l0.04 1.73zm13.8-60.91v7.52l-0.14 37.48h-6l0.14-37.46v-7.53l6-0.01zm6.83 7.52l-0.13 34h-3.94l0.13-34v-4h3.94v4zm7.66-24.361l-28.01-0.06v0.44l0.02-6.35 28.02 0.07-0.02 4.15-0.01 1.7v0.05z" fill="#b2b6bb"/>
<path class="colorB2B6BB svgShape" d="m326.09 458.94l0.01-2.9 28.02 0.06 0.01-4.41-0.03 9.59 0.01-2.28-28.02-0.06zm-0.249 70.061h28v-10l0.16-43.42v-11.77l-28-0.06v-4.15l-0.06 16-0.14 39.26v4.08l28 0.06v4.87l-28-0.06v3.46l0.04 1.73zm13.8-60.91v7.52l-0.14 37.48h-6l0.14-37.46v-7.53l6-0.01zm6.83 7.52l-0.13 34h-3.94l0.13-34v-4h3.94v4z" fill="#b2b6bb"/>
<path class="colorF4F4F4 svgShape" d="m325.86 523.15l0.02-4.19 28.01 0.06-0.02 4.87-28.01-0.06v-0.68z" fill="#f4f4f4"/>
<path class="colorD7DADC svgShape" d="m333.63 475.63l0.02-7.54 5.98 0.01-0.02 7.53-0.14 37.47-5.98-0.02 0.14-37.45zm8.9 0l0.01-4.05 3.94 0.01-0.02 4.04-0.12 34.01-3.94-0.01 0.13-34z" fill="#d7dadc"/>
<path class="colorB2B6BB svgShape" d="m368.62 449.72h-15.39v1.7h15.39v-1.7z" fill="#b2b6bb"/>
<path class="colorB2B6BB svgShape" d="m368.62 451.42v76.34h-15.39v-76.34h15.39zm0 76.34h-15.39v1.25h15.39v-1.25z" fill="#b2b6bb"/>
<path class="colorfff svgShape" d="m369 451.42v76.34h-15.77v-76.34h15.77z" fill="#fff" opacity=".3"/>
<path class="colorD7DADC svgShape" d="m403.86 469.72v-12.67h-18v12.67h18zm-13.86-5.29h8.57v1.24h-8.57v-1.24zm10.75-1.77h-12.95v-2.49h12.93l0.02 2.49z" fill="#d7dadc"/>
<path class="colorF4F4F4 svgShape" d="m400.73 460.17h-12.93v2.49h12.93v-2.49zm-2.171 4.26h-8.58v1.25h8.58v-1.25z" fill="#f4f4f4"/>
<path class="colorB2B6BB svgShape" d="m403.86 469.72v-12.67h-18v12.67h18zm-13.86-5.29h8.57v1.24h-8.57v-1.24zm10.75-1.77h-12.95v-2.49h12.93l0.02 2.49zm-14.858 7.06v59.28h18v-59.28h-18zm4.11 52.54c0-2 2.07-3.53 4.63-3.53s4.62 1.58 4.62 3.53-2.07 3.53-4.62 3.53-4.63-1.58-4.63-3.53z" fill="#b2b6bb"/>
<path class="colorF4F4F4 svgShape" d="m394.61 518.73c2.55 0 4.62 1.58 4.62 3.53s-2.07 3.53-4.62 3.53-4.63-1.58-4.63-3.53 2.07-3.53 4.63-3.53z" fill="#f4f4f4"/>
<path class="colorfff svgShape" d="m385.89 469.72v59.28h18v-59.28h-18zm4.11 52.54c0-2 2.07-3.53 4.63-3.53s4.62 1.58 4.62 3.53-2.07 3.53-4.62 3.53-4.63-1.58-4.63-3.53zm-5.423-56.761h1.42v1.38h-17.6v-1.38h16.18z" fill="#fff" opacity=".2"/>
<path class="colorD7DADC svgShape" d="m373.56 469.5v28.87h-2.03v-28.87h2.03zm3.948 0v17.51h-2.04v-17.51h2.04zm3.931 0v20.7h-2.03v-20.7h2.03z" fill="#d7dadc"/>
<path class="colorfff svgShape" d="m373.56 469.5v28.87h-2.03v-28.87h2.03zm3.948 0v17.51h-2.04v-17.51h2.04zm3.931 0v20.7h-2.03v-20.7h2.03z" fill="#fff" opacity=".2"/>
<path class="colorD7DADC svgShape" d="m384.58 454.62h1.42v10.88h-17.6v-10.88h16.18zm0 12.262h-16.18v53.19h17.6v-53.19h-1.42zm-11 8.74v22.75h-2v-28.87h2v6.12zm3.94 0v11.38h-2v-17.5h2v6.12zm3.94 0v14.58h-2v-20.7h2v6.12z" fill="#d7dadc"/>
<path class="colorD7DADC svgShape" d="m384.58 454.62h1.42v10.88h-17.6v-10.88h16.18z" fill="#d7dadc"/>
<path class="colorB2B6BB svgShape" d="m384.58 466.88h-16.18v53.19h17.6v-53.19h-1.42zm-11 8.74v22.75h-2v-28.87h2v6.12zm3.94 0v11.38h-2v-17.5h2v6.12zm3.94 0v14.58h-2v-20.7h2v6.12z" fill="#b2b6bb"/>
<path class="colorD7DADC svgShape" d="m384.58 520.07h1.42v8.93h-17.6v-8.93h16.18z" fill="#d7dadc"/>
<path class="colorfff svgShape" d="m384.58 520.07h1.42v8.93h-17.6v-8.93h16.18z" fill="#fff" opacity=".1"/>
<path class="colorD7DADC svgShape" d="m525.57 451.25l28.01-0.06v0.44l-0.02-6.35-28.02 0.07 0.02 4.15 0.01 1.7v0.05z" fill="#d7dadc"/>
<path class="colorF4F4F4 svgShape" d="m525.57 451.25v0.44l0.01 4.41 28.02-0.06-0.02-4.41v-0.44l-28.01 0.06zm0.032 7.75l0.01 4.85 28.02-0.06-0.02-4.85-28.01 0.06z" fill="#f4f4f4"/>
<path class="colorB2B6BB svgShape" d="m525.61 463.85l-0.01-2.57 0.01 2.57zm27.998-4.91l-0.01-2.9-28.02 0.06-0.01-4.41 0.03 9.59v-2.28l28.01-0.06zm0.218 60.022l0.01 4.19-0.01-4.19zm0.032 8.328v-3.46l-28 0.06v-4.87l28-0.06v-4.08l-0.14-39.26-0.06-16v4.19l-28 0.06v11.77l0.15 43.42v10h28l0.05-1.77zm-7.81-59.2v7.53l0.13 37.46h-6l-0.14-37.48v-7.52l6.01 0.01zm-12.83 3.5h3.94v4l0.12 34h-3.94l-0.12-34v-4zm-7.651-20.34l28.01-0.06v0.44l-0.02-6.35-28.02 0.07 0.02 4.15 0.01 1.7v0.05z" fill="#b2b6bb"/>
<path class="colorB2B6BB svgShape" d="m553.61 458.94l-0.01-2.9-28.02 0.06-0.01-4.41 0.03 9.59v-2.28l28.01-0.06zm0.25 68.35v-3.46l-28 0.06v-4.87l28-0.06v-4.08l-0.14-39.26-0.06-16v4.19l-28 0.06v11.77l0.15 43.42v10h28l0.05-1.77zm-7.81-59.2v7.53l0.13 37.46h-6l-0.14-37.48v-7.52l6.01 0.01zm-12.83 3.5h3.94v4l0.12 34h-3.94l-0.12-34v-4z" fill="#b2b6bb"/>
<path class="colorF4F4F4 svgShape" d="m553.84 523.15l-0.01-4.19-28.02 0.06 0.02 4.87 28.01-0.06v-0.68z" fill="#f4f4f4"/>
<path class="colorD7DADC svgShape" d="m546.08 475.63l-0.03-7.54-5.98 0.01 0.02 7.53 0.14 37.47 5.98-0.02-0.13-37.45zm-8.901 0l-0.02-4.05-3.94 0.01 0.02 4.04 0.12 34.01 3.94-0.01-0.12-34z" fill="#d7dadc"/>
<path class="colorB2B6BB svgShape" d="m526.48 449.72h-15.39v1.7h15.39v-1.7z" fill="#b2b6bb"/>
<path class="colorB2B6BB svgShape" d="m511.08 451.42v76.34h15.39v-76.34h-15.39zm15.402 76.34h-15.39v1.25h15.39v-1.25z" fill="#b2b6bb"/>
<path class="colorfff svgShape" d="m510.7 451.42v76.34h15.77v-76.34h-15.77z" fill="#fff" opacity=".3"/>
<path class="colorD7DADC svgShape" d="m493.81 469.72v-12.67h-18v12.67h18zm-4.09-4.05h-8.57v-1.24h8.57v1.24zm-10.72-5.5h12.9v2.49h-12.9v-2.49z" fill="#d7dadc"/>
<path class="colorF4F4F4 svgShape" d="m491.9 460.17h-12.93v2.49h12.93v-2.49zm-2.171 4.26h-8.58v1.25h8.58v-1.25z" fill="#f4f4f4"/>
<path class="colorB2B6BB svgShape" d="m493.81 469.72v-12.67h-18v12.67h18zm-4.09-4.05h-8.57v-1.24h8.57v1.24zm-10.72-5.5h12.9v2.49h-12.9v-2.49zm-3.159 9.55v59.28h18v-59.28h-18zm9.26 56.07c-2.56 0-4.63-1.58-4.63-3.53s2.07-3.53 4.63-3.53 4.62 1.58 4.62 3.53-2.07 3.53-4.62 3.53z" fill="#b2b6bb"/>
<path class="colorF4F4F4 svgShape" d="m485.1 518.73c-2.56 0-4.63 1.58-4.63 3.53s2.07 3.53 4.63 3.53 4.62-1.58 4.62-3.53-2.07-3.53-4.62-3.53z" fill="#f4f4f4"/>
<path class="colorfff svgShape" d="m475.84 469.72v59.28h18v-59.28h-18zm9.26 56.07c-2.56 0-4.63-1.58-4.63-3.53s2.07-3.53 4.63-3.53 4.62 1.58 4.62 3.53-2.07 3.53-4.62 3.53zm10.019-60.291h-1.42v1.38h17.61v-1.38h-16.19z" fill="#fff" opacity=".2"/>
<path class="colorD7DADC svgShape" d="m506.14 469.5v28.87h2.03v-28.87h-2.03zm-3.942 0v17.51h2.03v-17.51h-2.03zm-3.937 0v20.7h2.03v-20.7h-2.03z" fill="#d7dadc"/>
<path class="colorfff svgShape" d="m506.14 469.5v28.87h2.03v-28.87h-2.03zm-3.942 0v17.51h2.03v-17.51h-2.03zm-3.937 0v20.7h2.03v-20.7h-2.03z" fill="#fff" opacity=".2"/>
<path class="colorD7DADC svgShape" d="m495.12 454.62h-1.42v10.88h17.61v-10.88h-16.19zm-1.42 12.262v53.19h17.6v-53.19h-17.6zm12.44 2.62h2v28.87h-2v-28.87zm-3.94 0h2v17.5h-2v-17.5zm-3.94 0h2v20.7h-2v-20.7z" fill="#d7dadc"/>
<path class="colorD7DADC svgShape" d="m495.12 454.62h-1.42v10.88h17.61v-10.88h-16.19z" fill="#d7dadc"/>
<path class="colorB2B6BB svgShape" d="m493.7 466.88v53.19h17.6v-53.19h-17.6zm12.44 2.62h2v28.87h-2v-28.87zm-3.94 0h2v17.5h-2v-17.5zm-3.94 0h2v20.7h-2v-20.7z" fill="#b2b6bb"/>
<path class="colorD7DADC svgShape" d="m495.12 520.07h-1.42v8.93h17.61v-8.93h-16.19z" fill="#d7dadc"/>
<path class="colorfff svgShape" d="m495.12 520.07h-1.42v8.93h17.61v-8.93h-16.19z" fill="#fff" opacity=".1"/>
<path class="color3F4249 svgShape" d="m438.88 505.3l-7.37-35.6 7.62 35.55-0.25 0.05zm2.256-54.033l-1.072 52.459 0.25 5e-3 1.072-52.459-0.25-5e-3z" fill="#3f4249"/>
<path class="color3F4249 svgShape" d="m453.18 460.98l-12.51 15.71 0.2 0.16 12.5-15.71-0.19-0.16zm-6.095 19.155l-11.321 9.392 0.121 0.147 11.321-9.393-0.121-0.146zm-10.346 16.146l-8.85-8.38 0.1-0.1 8.89 8.34-0.14 0.14z" fill="#3f4249"/>
<path class="change-color-in-svg color4D61FC svgShape" d="m445.81 470.41l2.06-9c0.163-0.741 0.512-1.429 1.015-1.999 0.502-0.569 1.141-1.002 1.856-1.257 0.715-0.254 1.484-0.323 2.233-0.2 0.749 0.124 1.455 0.436 2.05 0.907 0.596 0.471 1.062 1.086 1.354 1.787 0.293 0.7 0.403 1.464 0.319 2.219-0.083 0.755-0.357 1.476-0.796 2.096-0.438 0.619-1.027 1.118-1.711 1.447l-8.38 4z" fill="#ffdb6f"/>
<path class="colorfff svgShape" d="m445.81 470.41l2.06-9c0.163-0.741 0.512-1.429 1.015-1.999 0.502-0.569 1.141-1.002 1.856-1.257 0.715-0.254 1.484-0.323 2.233-0.2 0.749 0.124 1.455 0.436 2.05 0.907 0.596 0.471 1.062 1.086 1.354 1.787 0.293 0.7 0.403 1.464 0.319 2.219-0.083 0.755-0.357 1.476-0.796 2.096-0.438 0.619-1.027 1.118-1.711 1.447l-8.38 4z" fill="#fff" opacity=".3"/>
<path class="change-color-in-svg color4D61FC svgShape" d="m456.7 462.42c8e-3 0.844-0.23 1.671-0.685 2.382-0.454 0.71-1.106 1.273-1.875 1.618l-8.38 4 9.24-11.56c0.553 0.409 0.997 0.948 1.294 1.568 0.296 0.621 0.436 1.305 0.406 1.992m-15.703 3.97l-5.93-12.25c-0.484-1.003-0.706-2.113-0.645-3.225 0.062-1.112 0.404-2.191 0.997-3.134 0.592-0.944 1.414-1.722 2.388-2.261 0.975-0.539 2.071-0.822 3.185-0.822s2.21 0.283 3.185 0.822c0.974 0.539 1.796 1.317 2.389 2.261 0.592 0.943 0.935 2.022 0.996 3.134 0.062 1.112-0.16 2.222-0.645 3.225l-5.92 12.25z" fill="#ffdb6f"/>
<path class="colorfff svgShape" d="m441 466.39l-5.93-12.25c-0.484-1.003-0.706-2.113-0.645-3.225 0.062-1.112 0.404-2.191 0.997-3.134 0.592-0.944 1.414-1.722 2.388-2.261 0.975-0.539 2.071-0.822 3.185-0.822s2.21 0.283 3.185 0.822c0.974 0.539 1.796 1.317 2.389 2.261 0.592 0.943 0.935 2.022 0.996 3.134 0.062 1.112-0.16 2.222-0.645 3.225l-5.92 12.25z" fill="#fff" opacity=".3"/>
<path class="colorfff svgShape" d="m441.34 444.75l-0.3 21.64 5.96-12.25c0.474-0.977 0.698-2.057 0.65-3.141-0.047-1.085-0.364-2.141-0.922-3.073s-1.339-1.71-2.272-2.264c-0.934-0.555-1.991-0.868-3.076-0.912" fill="#fff" opacity=".3"/>
<path class="change-color-in-svg color4D61FC svgShape" d="m434.26 481.71l-5.79-6.87c-0.474-0.562-0.797-1.236-0.939-1.957-0.142-0.722-0.098-1.468 0.127-2.168s0.624-1.331 1.16-1.835c0.536-0.503 1.191-0.862 1.904-1.043 0.713-0.18 1.46-0.177 2.171 0.01s1.363 0.552 1.895 1.06 0.925 1.143 1.144 1.845 0.256 1.448 0.108 2.168l-1.78 8.79z" fill="#ffdb6f"/>
<path class="colorfff svgShape" d="m436.08 472.92c0.147-0.721 0.109-1.467-0.11-2.169-0.22-0.702-0.614-1.336-1.145-1.845-0.531-0.508-1.183-0.874-1.894-1.062s-1.458-0.193-2.171-0.014l3.53 13.84 1.79-8.75z" fill="#fff" opacity=".3"/>
<path class="change-color-in-svg color4D61FC svgShape" d="m433.77 493.34l-2.64-6.59c-0.215-0.54-0.564-1.016-1.014-1.384s-0.986-0.616-1.558-0.72c-0.571-0.104-1.16-0.061-1.711 0.125-0.55 0.186-1.045 0.509-1.436 0.938-0.392 0.429-0.668 0.951-0.803 1.517-0.135 0.565-0.124 1.155 0.032 1.715s0.452 1.071 0.859 1.485c0.408 0.414 0.914 0.718 1.471 0.884l6.8 2.03z" fill="#ffdb6f"/>
<path class="colorfff svgShape" d="m433.77 493.34l-2.64-6.59c-0.215-0.54-0.564-1.016-1.014-1.384s-0.986-0.616-1.558-0.72c-0.571-0.104-1.16-0.061-1.711 0.125-0.55 0.186-1.045 0.509-1.436 0.938-0.392 0.429-0.668 0.951-0.803 1.517-0.135 0.565-0.124 1.155 0.032 1.715s0.452 1.071 0.859 1.485c0.408 0.414 0.914 0.718 1.471 0.884l6.8 2.03z" fill="#fff" opacity=".3"/>
<path class="colorfff svgShape" d="m425.52 485.56l8.25 7.78-2.64-6.59c-0.213-0.525-0.551-0.99-0.985-1.353-0.434-0.364-0.951-0.615-1.504-0.733-0.554-0.117-1.128-0.097-1.672 0.059-0.545 0.156-1.042 0.443-1.449 0.837" fill="#fff" opacity=".3"/>
<path class="change-color-in-svg color4D61FC svgShape" d="m438.83 487.11l3.24-7.87c0.262-0.646 0.685-1.215 1.228-1.653 0.542-0.438 1.188-0.73 1.875-0.85 0.686-0.12 1.393-0.063 2.052 0.166 0.658 0.228 1.248 0.62 1.714 1.139 0.465 0.52 0.791 1.149 0.946 1.829s0.135 1.388-0.059 2.058c-0.194 0.669-0.555 1.279-1.049 1.771-0.495 0.491-1.106 0.849-1.777 1.04l-8.17 2.37z" fill="#ffdb6f"/>
<path class="colorfff svgShape" d="m438.83 487.11l3.24-7.87c0.262-0.646 0.685-1.215 1.228-1.653 0.542-0.438 1.188-0.73 1.875-0.85 0.686-0.12 1.393-0.063 2.052 0.166 0.658 0.228 1.248 0.62 1.714 1.139 0.465 0.52 0.791 1.149 0.946 1.829s0.135 1.388-0.059 2.058c-0.194 0.669-0.555 1.279-1.049 1.771-0.495 0.491-1.106 0.849-1.777 1.04l-8.17 2.37z" fill="#fff" opacity=".3"/>
<path class="color3F4249 svgShape" d="m440.26 496.03l-0.07-0.15 15.32-8.41 0.08 0.16-15.33 8.4z" fill="#3f4249"/>
<path class="change-color-in-svg color4D61FC svgShape" d="m442.72 494.55l5.56-7.61c0.454-0.621 1.059-1.118 1.757-1.442 0.699-0.325 1.468-0.467 2.236-0.413 0.769 0.054 1.51 0.303 2.157 0.722 0.646 0.419 1.175 0.995 1.538 1.674 0.362 0.68 0.547 1.44 0.535 2.21-0.011 0.77-0.217 1.525-0.6 2.193-0.383 0.669-0.928 1.229-1.587 1.629-0.658 0.4-1.407 0.626-2.176 0.657l-9.42 0.38z" fill="#ffdb6f"/>
<path class="colorfff svgShape" d="m442.72 494.55l5.56-7.61c0.454-0.621 1.059-1.118 1.757-1.442 0.699-0.325 1.468-0.467 2.236-0.413 0.769 0.054 1.51 0.303 2.157 0.722 0.646 0.419 1.175 0.995 1.538 1.674 0.362 0.68 0.547 1.44 0.535 2.21-0.011 0.77-0.217 1.525-0.6 2.193-0.383 0.669-0.928 1.229-1.587 1.629-0.658 0.4-1.407 0.626-2.176 0.657l-9.42 0.38z" fill="#fff" opacity=".3"/>
<path class="change-color-in-svg color4D61FC svgShape" d="m456.12 491.48c-0.348 0.778-0.907 1.442-1.614 1.918s-1.534 0.743-2.386 0.772l-9.42 0.38 13.3-7.08c0.329 0.611 0.513 1.289 0.539 1.982 0.026 0.694-0.107 1.384-0.389 2.018" fill="#ffdb6f"/>
<path class="colorfff svgShape" d="m442.07 479.24l-3.24 7.87 10.17-9.05c-0.469-0.512-1.059-0.899-1.717-1.124-0.657-0.224-1.36-0.281-2.045-0.163-0.685 0.117-1.329 0.404-1.874 0.836-0.544 0.431-0.972 0.992-1.244 1.631" fill="#fff" opacity=".3"/>
<path class="colorB2B6BB svgShape" d="m445.86 511.48l-1.42-1.73c-1.384-1.652-2.148-3.735-2.16-5.89v-4.16h-5.45v4.16c-0.011 2.155-0.775 4.238-2.16 5.89l-1.43 1.73c-1.426 1.696-2.407 3.721-2.852 5.891-0.446 2.171-0.342 4.419 0.302 6.539l1.59 5.14h14.55l1.59-5.14c0.631-2.122 0.727-4.367 0.28-6.536-0.447-2.168-1.422-4.193-2.84-5.894" fill="#b2b6bb"/>
<path class="color000 svgShape" d="m445.86 511.48l-1.42-1.73c-1.384-1.652-2.148-3.735-2.16-5.89v-4.16h-1.59v3.78c0.032 2.403 0.874 4.725 2.39 6.59 1.017 1.637 1.68 3.469 1.943 5.377 0.264 1.909 0.123 3.852-0.413 5.703-0.544 2.052-1.489 3.976-2.78 5.66l-1.08 1.45c-0.222 0.267-0.5 0.482-0.815 0.627s-0.658 0.218-1.005 0.213h8l1.59-5.14c0.608-2.137 0.687-4.389 0.23-6.563-0.456-2.174-1.434-4.205-2.85-5.917" fill="#000" opacity=".2"/>
</svg>
</svg>
